<svg width="25" height="25" viewBox="0 0 25 25" fill="none" xmlns="http://www.w3.org/2000/svg">
<path d="M14.9997 23V17.0002C14.9997 16.7349 14.8944 16.4806 14.7068 16.2931C14.5193 16.1055 14.265 16.0002 13.9997 16.0002H9.99982C9.73461 16.0002 9.48026 16.1055 9.29272 16.2931C9.10519 16.4806 8.99984 16.7349 8.99984 17.0002V23C8.99984 23.2653 8.89448 23.5196 8.70695 23.7071C8.51941 23.8947 8.26507 24 7.99985 24H1.99996C1.73475 24 1.4804 23.8947 1.29287 23.7071C1.10534 23.5196 0.999982 23.2653 0.999982 23V11.4428C0.999995 11.3034 1.02914 11.1656 1.08553 11.0382C1.14193 10.9107 1.22434 10.7965 1.32748 10.7028L11.3273 1.26045C11.5114 1.09286 11.7514 0.999982 12.0004 0.999982C12.2494 0.999982 12.4894 1.09286 12.6735 1.26045L22.6733 10.7028C22.7765 10.7965 22.8589 10.9107 22.9153 11.0382C22.9717 11.1656 23.0008 11.3034 23.0008 11.4428V23C23.0008 23.2653 22.8955 23.5196 22.7079 23.7071C22.5204 23.8947 22.2661 24 22.0008 24H15.9997C15.7345 24 15.4801 23.8947 15.2926 23.7071C15.1051 23.5196 14.9997 23.2653 14.9997 23Z" stroke="#686868" stroke-width="2" stroke-linecap="round" stroke-linejoin="round"/>
</svg>
