<svg width="34" height="32" viewBox="0 0 34 32" fill="none" xmlns="http://www.w3.org/2000/svg">
<path d="M14.7046 1.04707C15.9164 -0.34902 18.0836 -0.349022 19.2954 1.04707L21.9551 4.11096C22.5225 4.76464 23.3417 5.1454 24.2072 5.15772L28.3095 5.21615C30.2386 5.24363 31.6544 7.03815 31.2322 8.9207L30.4613 12.3576C30.2571 13.2681 30.4824 14.2219 31.0723 14.9448L33.3145 17.6921C34.5625 19.2212 34.0449 21.5156 32.2613 22.3609L28.8223 23.9906C28.0071 24.377 27.4056 25.1054 27.1805 25.979L26.2446 29.6111C25.7771 31.4254 23.7954 32.3889 22.0797 31.636L18.2214 29.943C17.443 29.6014 16.557 29.6014 15.7786 29.943L11.9203 31.6361C10.2046 32.3889 8.22292 31.4254 7.75541 29.6111L6.81949 25.979C6.5944 25.1054 5.99291 24.377 5.17772 23.9906L1.73866 22.3609C-0.0448888 21.5156 -0.562474 19.2212 0.685455 17.6921L2.92766 14.9448C3.51762 14.2219 3.74289 13.2681 3.53869 12.3576L2.76784 8.9207C2.34561 7.03815 3.76138 5.24363 5.6905 5.21615L9.79277 5.15772C10.6583 5.1454 11.4775 4.76464 12.0449 4.11096L14.7046 1.04707Z" fill="#5D48E2" fill-opacity="0.4"/>
</svg>
