<svg width="28" height="24" viewBox="0 0 28 24" fill="none" xmlns="http://www.w3.org/2000/svg">
<path d="M26 0H19C17.9391 0 16.9217 0.421427 16.1716 1.17157C15.4214 1.92172 15 2.93913 15 4V15C15 15.2652 14.8946 15.5196 14.7071 15.7071C14.5196 15.8946 14.2652 16 14 16C13.7348 16 13.4804 15.8946 13.2929 15.7071C13.1054 15.5196 13 15.2652 13 15V4C13 2.93913 12.5786 1.92172 11.8284 1.17157C11.0783 0.421427 10.0609 0 9 0H2C1.46957 0 0.960859 0.210714 0.585786 0.585786C0.210714 0.960859 0 1.46957 0 2V18C0 18.5304 0.210714 19.0391 0.585786 19.4142C0.960859 19.7893 1.46957 20 2 20H10C10.7956 20 11.5587 20.3161 12.1213 20.8787C12.6839 21.4413 13 22.2044 13 23C13 23.2652 13.1054 23.5196 13.2929 23.7071C13.4804 23.8946 13.7348 24 14 24C14.2652 24 14.5196 23.8946 14.7071 23.7071C14.8946 23.5196 15 23.2652 15 23C15 22.2044 15.3161 21.4413 15.8787 20.8787C16.4413 20.3161 17.2044 20 18 20H26C26.5304 20 27.0391 19.7893 27.4142 19.4142C27.7893 19.0391 28 18.5304 28 18V2C28 1.46957 27.7893 0.960859 27.4142 0.585786C27.0391 0.210714 26.5304 0 26 0ZM24 15H19C18.7348 15 18.4804 14.8946 18.2929 14.7071C18.1054 14.5196 18 14.2652 18 14C18 13.7348 18.1054 13.4804 18.2929 13.2929C18.4804 13.1054 18.7348 13 19 13H24C24.2652 13 24.5196 13.1054 24.7071 13.2929C24.8946 13.4804 25 13.7348 25 14C25 14.2652 24.8946 14.5196 24.7071 14.7071C24.5196 14.8946 24.2652 15 24 15ZM24 11H19C18.7348 11 18.4804 10.8946 18.2929 10.7071C18.1054 10.5196 18 10.2652 18 10C18 9.73478 18.1054 9.48043 18.2929 9.29289C18.4804 9.10536 18.7348 9 19 9H24C24.2652 9 24.5196 9.10536 24.7071 9.29289C24.8946 9.48043 25 9.73478 25 10C25 10.2652 24.8946 10.5196 24.7071 10.7071C24.5196 10.8946 24.2652 11 24 11ZM24 7H19C18.7348 7 18.4804 6.89464 18.2929 6.70711C18.1054 6.51957 18 6.26522 18 6C18 5.73478 18.1054 5.48043 18.2929 5.29289C18.4804 5.10536 18.7348 5 19 5H24C24.2652 5 24.5196 5.10536 24.7071 5.29289C24.8946 5.48043 25 5.73478 25 6C25 6.26522 24.8946 6.51957 24.7071 6.70711C24.5196 6.89464 24.2652 7 24 7Z" fill="#332885"/>
</svg>
