<svg width="19" height="19" viewBox="0 0 19 19" fill="none" xmlns="http://www.w3.org/2000/svg">
<path d="M17.2802 16.4401L13.5641 12.7247C14.6412 11.4316 15.1783 9.773 15.0636 8.09398C14.949 6.41496 14.1915 4.84477 12.9486 3.71006C11.7058 2.57534 10.0733 1.96345 8.39083 2.00169C6.70834 2.03993 5.10536 2.72534 3.91535 3.91535C2.72534 5.10536 2.03993 6.70834 2.00169 8.39083C1.96345 10.0733 2.57534 11.7058 3.71006 12.9486C4.84477 14.1915 6.41496 14.949 8.09398 15.0636C9.773 15.1783 11.4316 14.6412 12.7247 13.5641L16.4401 17.2802C16.4952 17.3354 16.5607 17.3792 16.6328 17.409C16.7049 17.4389 16.7821 17.4542 16.8602 17.4542C16.9382 17.4542 17.0154 17.4389 17.0875 17.409C17.1596 17.3792 17.2251 17.3354 17.2802 17.2802C17.3354 17.2251 17.3792 17.1596 17.409 17.0875C17.4389 17.0154 17.4542 16.9382 17.4542 16.8602C17.4542 16.7821 17.4389 16.7049 17.409 16.6328C17.3792 16.5607 17.3354 16.4952 17.2802 16.4401ZM3.2039 8.54765C3.2039 7.49076 3.51731 6.4576 4.10449 5.57883C4.69167 4.70005 5.52625 4.01513 6.50269 3.61067C7.47913 3.20622 8.55358 3.10039 9.59017 3.30658C10.6268 3.51277 11.5789 4.02172 12.3263 4.76905C13.0736 5.51639 13.5825 6.46855 13.7887 7.50514C13.9949 8.54173 13.8891 9.61618 13.4846 10.5926C13.0802 11.5691 12.3953 12.4036 11.5165 12.9908C10.6377 13.578 9.60455 13.8914 8.54765 13.8914C7.13089 13.8898 5.7726 13.3263 4.77079 12.3245C3.76898 11.3227 3.20548 9.96442 3.2039 8.54765Z" fill="#332885"/>
</svg>
