<svg width="25" height="25" viewBox="0 0 25 25" fill="none" xmlns="http://www.w3.org/2000/svg">
<path d="M22.7778 5H14.2222C13.8981 5 13.5872 5.12643 13.358 5.35148C13.1288 5.57653 13 5.88176 13 6.20002V19.4003C13.0001 19.5074 13.0293 19.6125 13.0847 19.7047C13.1401 19.797 13.2196 19.873 13.315 19.9249C13.4104 19.9767 13.5182 20.0026 13.6272 19.9998C13.7363 19.997 13.8425 19.9655 13.935 19.9088L18.5 17.1075L23.0658 19.9088C23.1582 19.9654 23.2644 19.9966 23.3733 19.9993C23.4822 20.0021 23.5899 19.9762 23.6852 19.9243C23.7805 19.8724 23.8599 19.7965 23.9152 19.7044C23.9706 19.6122 23.9999 19.5073 24 19.4003V6.20002C24 5.88176 23.8712 5.57653 23.642 5.35148C23.4128 5.12643 23.1019 5 22.7778 5Z" fill="#332885"/>
</svg>
