<svg width="23" height="23" viewBox="0 0 23 23" fill="none" xmlns="http://www.w3.org/2000/svg">
<path d="M19.4062 11.5V18.6875C19.4062 19.0687 19.2548 19.4344 18.9852 19.704C18.7156 19.9735 18.35 20.125 17.9688 20.125H4.3125C3.93125 20.125 3.56562 19.9735 3.29603 19.704C3.02645 19.4344 2.875 19.0687 2.875 18.6875V5.03125C2.875 4.65 3.02645 4.28437 3.29603 4.01478C3.56562 3.7452 3.93125 3.59375 4.3125 3.59375H11.5C11.6906 3.59375 11.8734 3.66948 12.0082 3.80427C12.143 3.93906 12.2188 4.12188 12.2188 4.3125C12.2188 4.50312 12.143 4.68594 12.0082 4.82073C11.8734 4.95552 11.6906 5.03125 11.5 5.03125H4.3125V18.6875H17.9688V11.5C17.9688 11.3094 18.0445 11.1266 18.1793 10.9918C18.3141 10.857 18.4969 10.7812 18.6875 10.7812C18.8781 10.7812 19.0609 10.857 19.1957 10.9918C19.3305 11.1266 19.4062 11.3094 19.4062 11.5ZM17.6094 2.15625C16.9697 2.15625 16.3443 2.34594 15.8125 2.70134C15.2806 3.05674 14.866 3.56188 14.6212 4.15288C14.3764 4.74389 14.3123 5.39421 14.4371 6.02162C14.5619 6.64903 14.87 7.22534 15.3223 7.67767C15.7747 8.13001 16.351 8.43805 16.9784 8.56285C17.6058 8.68765 18.2561 8.6236 18.8471 8.3788C19.4381 8.134 19.9433 7.71944 20.2987 7.18755C20.6541 6.65566 20.8438 6.03032 20.8438 5.39062C20.8438 4.53282 20.503 3.71014 19.8964 3.10358C19.2899 2.49701 18.4672 2.15625 17.6094 2.15625Z" fill="#686868"/>
<circle cx="17.5" cy="5.5" r="3.5" fill="#E43F3F"/>
</svg>
