<svg width="8" height="7" viewBox="0 0 8 7" fill="none" xmlns="http://www.w3.org/2000/svg">
<path d="M4.81069 0.0272062C4.7643 0.00514366 4.7125 -0.0037767 4.66117 0.00145866C4.60985 0.00669403 4.56106 0.0258752 4.52034 0.0568227L2.11207 1.88463H0.551724C0.405398 1.88463 0.265065 1.94136 0.161596 2.04235C0.0581279 2.14333 0 2.2803 0 2.42311V4.57704C0 4.71985 0.0581279 4.85681 0.161596 4.9578C0.265065 5.05878 0.405398 5.11552 0.551724 5.11552H2.11207L4.52034 6.94332C4.5611 6.97425 4.60992 6.99339 4.66127 6.99857C4.71261 7.00375 4.76442 6.99477 4.81079 6.97265C4.85717 6.95053 4.89625 6.91615 4.92361 6.87343C4.95096 6.8307 4.96548 6.78134 4.96552 6.73096V0.269186C4.96552 0.218747 4.95101 0.169319 4.92364 0.126537C4.89627 0.083754 4.85713 0.0493365 4.81069 0.0272062ZM0.551724 2.42311H1.93103V4.57704H0.551724V2.42311ZM4.41379 6.18036L2.48276 4.71469V2.28546L4.41379 0.819783V6.18036ZM6.27586 2.61023C6.49774 2.85608 6.62016 3.17245 6.62016 3.50007C6.62016 3.82769 6.49774 4.14407 6.27586 4.38991C6.22712 4.44218 6.15928 4.47365 6.08698 4.47753C6.01468 4.48141 5.94372 4.45739 5.8894 4.41065C5.83509 4.36391 5.80178 4.29821 5.79667 4.22771C5.79155 4.15722 5.81504 4.08758 5.86207 4.03384C5.99512 3.88636 6.06852 3.69658 6.06852 3.50007C6.06852 3.30356 5.99512 3.11379 5.86207 2.9663C5.81504 2.91256 5.79155 2.84293 5.79667 2.77244C5.80178 2.70194 5.83509 2.63623 5.8894 2.5895C5.94372 2.54276 6.01468 2.51874 6.08698 2.52262C6.15928 2.5265 6.22712 2.55797 6.27586 2.61023ZM8 3.50007C8.00039 4.16247 7.75027 4.80171 7.29759 5.29524C7.24844 5.34713 7.18037 5.37809 7.10804 5.38144C7.03572 5.38478 6.96495 5.36024 6.911 5.31311C6.85706 5.26597 6.82426 5.20003 6.81968 5.12951C6.81511 5.05898 6.83912 4.98953 6.88655 4.93614C7.24842 4.54124 7.44847 4.03003 7.44847 3.50024C7.44847 2.97045 7.24842 2.45924 6.88655 2.06435C6.86171 2.03812 6.84247 2.00733 6.82994 1.97377C6.81742 1.94021 6.81186 1.90455 6.81359 1.86887C6.81532 1.83319 6.82431 1.79821 6.84003 1.76595C6.85575 1.7337 6.87789 1.70482 6.90515 1.681C6.93242 1.65718 6.96427 1.63889 6.99885 1.6272C7.03343 1.61551 7.07005 1.61065 7.10657 1.61291C7.1431 1.61516 7.17879 1.62449 7.21159 1.64034C7.24438 1.6562 7.27361 1.67826 7.29759 1.70525C7.75039 2.19857 8.00054 2.83775 8 3.50007Z" fill="white"/>
</svg>
