<svg width="21" height="21" viewBox="0 0 21 21" fill="none" xmlns="http://www.w3.org/2000/svg">
<g clip-path="url(#clip0_1_39)">
<path d="M10.5189 2.46094C10.7009 1.75605 11.1121 1.13171 11.6879 0.686186C12.2636 0.240666 12.9712 -0.000729285 13.6992 1.65508e-06H13.7812C13.9553 1.65508e-06 14.1222 0.0691421 14.2453 0.192213C14.3684 0.315284 14.4375 0.482203 14.4375 0.656252C14.4375 0.8303 14.3684 0.99722 14.2453 1.12029C14.1222 1.24336 13.9553 1.3125 13.7812 1.3125H13.6992C13.2627 1.31246 12.8386 1.45748 12.4935 1.72477C12.1484 1.99205 11.9019 2.36643 11.7928 2.78906C11.7493 2.95767 11.6406 3.10209 11.4906 3.19055C11.3406 3.27901 11.1616 3.30426 10.993 3.26074C10.8244 3.21723 10.68 3.10852 10.5915 2.95853C10.5031 2.80854 10.4778 2.62955 10.5213 2.46094H10.5189ZM18.3176 13.9117C18.2684 13.7992 18.1888 13.7026 18.0879 13.6328C16.6958 12.6763 16.4062 11.0447 16.4062 9.84375C16.4062 8.39426 17.5112 7.1318 18.1699 6.50754C18.2347 6.44621 18.2863 6.37232 18.3216 6.29037C18.3569 6.20843 18.375 6.12015 18.375 6.03094C18.375 5.94173 18.3569 5.85345 18.3216 5.77151C18.2863 5.68956 18.2347 5.61567 18.1699 5.55434C17.1298 4.57242 15.4071 3.9375 13.7812 3.9375C12.6133 3.93855 11.4718 4.28472 10.5 4.93254C9.36643 4.17241 8.00341 3.83103 6.64537 3.96712C5.28733 4.1032 4.01915 4.70826 3.05895 5.67821C2.48492 6.26423 2.03453 6.95964 1.73451 7.72313C1.4345 8.48662 1.29099 9.30262 1.3125 10.1227C1.3447 11.5068 1.65248 12.8707 2.21784 14.1345C2.78321 15.3983 3.59482 16.5368 4.60523 17.4833C5.21374 18.0582 6.01985 18.3775 6.85699 18.375H14.0495C14.497 18.3759 14.94 18.2848 15.3509 18.1074C15.7618 17.93 16.1319 17.6701 16.4382 17.3439C17.0057 16.7331 17.4966 16.0555 17.9 15.3259C18.4759 14.2734 18.4021 14.1094 18.3176 13.9117Z" fill="#555151"/>
</g>
<defs>
<clipPath id="clip0_1_39">
<rect width="21" height="21" fill="white"/>
</clipPath>
</defs>
</svg>
