<svg width="25" height="20" viewBox="0 0 25 20" fill="none" xmlns="http://www.w3.org/2000/svg">
<path d="M23.2143 0H16.0714C15.3784 0 14.6948 0.150604 14.0749 0.439887C13.455 0.729169 12.9158 1.14918 12.5 1.66667C12.0842 1.14918 11.545 0.729169 10.9251 0.439887C10.3052 0.150604 9.62163 0 8.92857 0H1.78571C1.31211 0 0.85791 0.175595 0.523023 0.488155C0.188137 0.800716 0 1.22464 0 1.66667V15C0 15.442 0.188137 15.8659 0.523023 16.1785C0.85791 16.4911 1.31211 16.6667 1.78571 16.6667H8.92857C9.63897 16.6667 10.3203 16.9301 10.8226 17.3989C11.3249 17.8677 11.6071 18.5036 11.6071 19.1667C11.6071 19.3877 11.7012 19.5996 11.8687 19.7559C12.0361 19.9122 12.2632 20 12.5 20C12.7368 20 12.9639 19.9122 13.1313 19.7559C13.2988 19.5996 13.3929 19.3877 13.3929 19.1667C13.3929 18.5036 13.6751 17.8677 14.1774 17.3989C14.6797 16.9301 15.361 16.6667 16.0714 16.6667H23.2143C23.6879 16.6667 24.1421 16.4911 24.477 16.1785C24.8119 15.8659 25 15.442 25 15V1.66667C25 1.22464 24.8119 0.800716 24.477 0.488155C24.1421 0.175595 23.6879 0 23.2143 0ZM8.92857 15H1.78571V1.66667H8.92857C9.63897 1.66667 10.3203 1.93006 10.8226 2.3989C11.3249 2.86774 11.6071 3.50363 11.6071 4.16667V15.8333C10.8351 15.2911 9.89476 14.9986 8.92857 15ZM23.2143 15H16.0714C15.1052 14.9986 14.1649 15.2911 13.3929 15.8333V4.16667C13.3929 3.50363 13.6751 2.86774 14.1774 2.3989C14.6797 1.93006 15.361 1.66667 16.0714 1.66667H23.2143V15Z" fill="#686868"/>
</svg>
