<svg width="24" height="25" viewBox="0 0 24 25" fill="none" xmlns="http://www.w3.org/2000/svg">
<path d="M24 11.4426V22.9998C24 23.5303 23.7893 24.0391 23.4142 24.4142C23.0391 24.7893 22.5304 25 22 25H17C16.4695 25 15.9608 24.7893 15.5858 24.4142C15.2107 24.0391 15 23.5303 15 22.9998V17.9994C15 17.7342 14.8946 17.4798 14.7071 17.2922C14.5196 17.1047 14.2652 16.9993 14 16.9993H9.99999C9.73477 16.9993 9.48042 17.1047 9.29288 17.2922C9.10535 17.4798 8.99999 17.7342 8.99999 17.9994V22.9998C8.99999 23.5303 8.78928 24.0391 8.4142 24.4142C8.03913 24.7893 7.53042 25 6.99999 25H2C1.46957 25 0.960858 24.7893 0.585786 24.4142C0.210713 24.0391 2.31097e-08 23.5303 2.31097e-08 22.9998V11.4426C-4.20535e-05 11.1658 0.0573739 10.892 0.168614 10.6385C0.279855 10.385 0.442497 10.1573 0.646249 9.96997L10.6462 0.53417L10.66 0.520418C11.0282 0.185556 11.5079 0 12.0056 0C12.5033 0 12.9831 0.185556 13.3512 0.520418C13.3555 0.52531 13.3601 0.529904 13.365 0.53417L23.365 9.96997C23.5667 10.1583 23.7272 10.3864 23.8365 10.6399C23.9458 10.8933 24.0014 11.1666 24 11.4426Z" fill="#332885"/>
</svg>
