<svg width="177" height="126" viewBox="0 0 177 126" fill="none" xmlns="http://www.w3.org/2000/svg">
<path d="M89.4605 117.096C94.7976 113.334 99.2276 104.894 114.946 113.65C131.673 122.968 143.114 114.325 141.13 103.718C139.577 95.413 138.414 88.8958 143.999 86.3657C154.433 81.6383 158.231 70.6378 147.432 64.5598C138.101 59.3082 137.069 56.3903 137.512 46.6652C137.956 36.9401 126.993 21.6427 113.851 32.428C102.833 41.4698 94.0476 37.4705 88.1303 29.0061C82.213 20.5417 66.5918 15.4991 59.9249 31.1672C56.2474 39.8097 53.0885 46.8952 38.2435 45.9974C24.5511 45.1693 22.1482 61.8871 34.2369 72.0556C45.7896 81.7734 26.885 90.6492 30.6194 103.718C33.8126 114.894 47.71 117.259 57.1092 112.975C66.5918 108.652 69.9987 117.555 75.5219 119.731C82.0389 122.299 86.9496 118.865 89.4605 117.096Z" fill="url(#paint0_linear_1_254)"/>
<path d="M140.873 102.331H30.304C30.3819 102.788 30.4857 103.25 30.6194 103.718C33.8126 114.894 46.865 117.268 56.7133 114.152C65.1235 111.491 69.9988 117.555 75.5222 119.731C82.0392 122.299 86.9499 118.865 89.4608 117.096C94.7978 113.334 103.924 108.504 115.183 114.742C131.933 124.022 143.114 114.325 141.13 103.718C141.042 103.249 140.957 102.788 140.873 102.331Z" fill="url(#paint1_linear_1_254)"/>
<path d="M50.337 32.0546C50.7015 32.0546 51.0528 32.1099 51.3838 32.2119C52.308 31.1922 53.6393 30.5476 55.1242 30.5476C55.2322 30.5476 55.3379 30.5571 55.4441 30.5639C56.4208 27.1434 59.5631 24.6366 63.297 24.6366C66.6961 24.6366 69.6087 26.7123 70.8411 29.6645C71.6809 29.0761 72.7012 28.7279 73.8043 28.7279C76.4718 28.7279 78.6665 30.7475 78.9463 33.3407C79.5342 32.7382 80.3538 32.3629 81.2624 32.3629C83.0501 32.3629 84.4996 33.8122 84.4996 35.6002C84.4996 37.3879 83.0504 38.8374 81.2624 38.8374C80.8956 38.8374 80.5442 38.7735 80.2154 38.661C79.8874 40.5478 78.2457 41.984 76.2649 41.984C75.0336 41.984 73.9328 41.4281 73.1965 40.5552C72.2644 42.4056 70.3523 43.6778 68.139 43.6778C66.2713 43.6778 64.6199 42.7701 63.5878 41.3762C62.6641 42.3857 61.3399 43.0226 59.8636 43.0226C58.0505 43.0226 56.4651 42.0642 55.5739 40.6299C55.4255 40.643 55.276 40.6527 55.1239 40.6527C53.639 40.6527 52.308 40.0082 51.3835 38.9885C51.0526 39.0905 50.7012 39.1458 50.3367 39.1458C48.3786 39.1458 46.7914 37.5584 46.7914 35.6004C46.7917 33.642 48.3788 32.0546 50.337 32.0546Z" fill="url(#paint2_linear_1_254)"/>
<path d="M25.1135 56.6579C25.3209 56.6579 25.5207 56.6894 25.709 56.7476C26.235 56.1673 26.9922 55.8008 27.8371 55.8008C27.8984 55.8008 27.9587 55.8063 28.0191 55.8099C28.5747 53.8638 30.3627 52.4376 32.4871 52.4376C34.4209 52.4376 36.0784 53.6186 36.7793 55.2984C37.257 54.9635 37.8375 54.7655 38.4653 54.7655C39.9829 54.7655 41.2316 55.9145 41.3908 57.39C41.7253 57.047 42.1915 56.8336 42.7084 56.8336C43.7255 56.8336 44.5501 57.6582 44.5501 58.6754C44.5501 59.6925 43.7255 60.5171 42.7084 60.5171C42.4996 60.5171 42.2998 60.4807 42.1126 60.4167C41.9259 61.4902 40.9919 62.3075 39.8649 62.3075C39.1643 62.3075 38.5382 61.9913 38.1191 61.4947C37.5887 62.5474 36.501 63.2714 35.2416 63.2714C34.1789 63.2714 33.2394 62.7548 32.6523 61.9619C32.1268 62.5362 31.3735 62.8988 30.5334 62.8988C29.5019 62.8988 28.5999 62.3537 28.0927 61.5374C28.0083 61.545 27.9231 61.5502 27.8368 61.5502C26.992 61.5502 26.2347 61.1837 25.7087 60.6034C25.5205 60.6616 25.3206 60.6931 25.1132 60.6931C23.9991 60.6931 23.0961 59.79 23.0961 58.6759C23.0963 57.561 23.9994 56.6579 25.1135 56.6579Z" fill="url(#paint3_linear_1_254)"/>
<path d="M89.0836 47.778C89.291 47.778 89.4908 47.8095 89.6791 47.8677C90.2051 47.2874 90.9624 46.9209 91.8072 46.9209C91.8686 46.9209 91.9289 46.9264 91.9892 46.93C92.5448 44.9839 94.3328 43.5578 96.4572 43.5578C98.391 43.5578 100.048 44.7387 100.749 46.4185C101.227 46.0836 101.808 45.8857 102.435 45.8857C103.953 45.8857 105.202 47.0347 105.361 48.5101C105.695 48.1674 106.162 47.9537 106.678 47.9537C107.696 47.9537 108.52 48.7784 108.52 49.7955C108.52 50.8126 107.696 51.6372 106.678 51.6372C106.47 51.6372 106.27 51.6008 106.083 51.5368C105.896 52.6103 104.962 53.4274 103.835 53.4274C103.134 53.4274 102.508 53.1111 102.089 52.6145C101.559 53.6673 100.471 54.3912 99.2118 54.3912C98.149 54.3912 97.2095 53.8747 96.6224 53.0815C96.097 53.6557 95.3434 54.0184 94.5035 54.0184C93.472 54.0184 92.57 53.4732 92.0629 52.657C91.9784 52.6643 91.8932 52.6698 91.8069 52.6698C90.9621 52.6698 90.2048 52.3033 89.6788 51.723C89.4906 51.7812 89.2908 51.8127 89.0834 51.8127C87.9692 51.8127 87.0662 50.9096 87.0662 49.7955C87.0664 48.6811 87.9695 47.778 89.0836 47.778Z" fill="url(#paint4_linear_1_254)"/>
<path d="M129.725 61.814C129.933 61.814 130.132 61.8454 130.321 61.9036C130.847 61.3234 131.604 60.9568 132.449 60.9568C132.51 60.9568 132.57 60.9623 132.631 60.966C133.186 59.0198 134.974 57.5937 137.099 57.5937C139.033 57.5937 140.69 58.7747 141.391 60.4544C141.869 60.1195 142.449 59.9216 143.077 59.9216C144.595 59.9216 145.843 61.0706 146.002 62.546C146.337 62.2033 146.803 61.9896 147.32 61.9896C148.337 61.9896 149.162 62.8143 149.162 63.8314C149.162 64.8485 148.337 65.6732 147.32 65.6732C147.111 65.6732 146.912 65.6367 146.724 65.5727C146.538 66.6462 145.604 67.4633 144.477 67.4633C143.776 67.4633 143.15 67.1471 142.731 66.6504C142.2 67.7032 141.113 68.4272 139.853 68.4272C138.791 68.4272 137.851 67.9106 137.264 67.1174C136.739 67.6917 135.985 68.0543 135.145 68.0543C134.114 68.0543 133.212 67.5092 132.704 66.6929C132.62 66.7003 132.535 66.7058 132.448 66.7058C131.604 66.7058 130.846 66.3392 130.32 65.7589C130.132 65.8169 129.932 65.8486 129.725 65.8486C128.611 65.8486 127.708 64.9455 127.708 63.8314C127.708 62.717 128.611 61.814 129.725 61.814Z" fill="url(#paint5_linear_1_254)"/>
<path d="M122.05 42.4662C122.26 42.4662 122.463 42.4982 122.653 42.557C123.186 41.9694 123.953 41.5978 124.809 41.5978C124.871 41.5978 124.932 41.6033 124.993 41.6072C125.556 39.6359 127.367 38.1914 129.519 38.1914C131.478 38.1914 133.156 39.3876 133.866 41.0889C134.35 40.7498 134.938 40.5492 135.574 40.5492C137.111 40.5492 138.376 41.7129 138.537 43.2075C138.876 42.8604 139.349 42.644 139.872 42.644C140.902 42.644 141.738 43.4792 141.738 44.5097C141.738 45.5399 140.903 46.3753 139.872 46.3753C139.661 46.3753 139.458 46.3386 139.269 46.2735C139.08 47.3609 138.134 48.1885 136.992 48.1885C136.283 48.1885 135.648 47.868 135.224 47.3651C134.687 48.4315 133.585 49.1647 132.309 49.1647C131.233 49.1647 130.281 48.6416 129.686 47.8382C129.154 48.42 128.391 48.7871 127.54 48.7871C126.495 48.7871 125.582 48.2349 125.068 47.4081C124.983 47.4157 124.896 47.4212 124.809 47.4212C123.953 47.4212 123.186 47.05 122.653 46.4621C122.463 46.5208 122.26 46.5528 122.05 46.5528C120.922 46.5528 120.007 45.6379 120.007 44.5097C120.007 43.3811 120.922 42.4662 122.05 42.4662Z" fill="url(#paint6_linear_1_254)"/>
<path d="M124.819 105.719C131.041 105.719 136.085 104.757 136.085 103.57C136.085 102.384 131.041 101.422 124.819 101.422C118.597 101.422 113.553 102.384 113.553 103.57C113.553 104.757 118.597 105.719 124.819 105.719Z" fill="url(#paint7_radial_1_254)"/>
<path d="M119.871 101.758C119.871 101.758 118.366 96.9576 118.408 93.4115C118.45 89.8654 120.202 91.5553 120.786 89.3543C121.37 87.1533 120.745 84.9007 123.123 84.6086C125.501 84.3165 123.415 81.256 124.75 79.7616C126.085 78.2673 127.086 80.548 127.879 78.6774C128.671 76.807 128.463 75.7351 130.298 75.958C132.134 76.1811 132.802 71.9674 134.929 72.1344C137.057 72.3012 135.555 74.4702 135.263 76.5147C134.971 78.5591 138.1 78.9029 136.598 80.9214C135.096 82.9399 135.086 83.2092 135.028 85.2229C134.971 87.237 132.676 86.9866 132.343 88.2798C132.009 89.573 134.053 90.5744 131.55 91.7842C129.047 92.9941 127.461 93.599 128.504 94.7567C129.547 95.9148 125.423 101.153 119.871 101.758Z" fill="url(#paint8_linear_1_254)"/>
<path d="M119.605 102.314C120.783 99.8508 121.988 97.4014 123.22 94.966C124.446 92.5275 125.696 90.1018 126.951 87.6784C128.214 85.2593 129.482 82.8427 130.775 80.4388C132.061 78.0317 133.375 75.639 134.715 73.26C133.537 75.7235 132.332 78.1728 131.101 80.6082C129.874 83.0465 128.624 85.4724 127.369 87.8953C126.105 90.3142 124.837 92.7307 123.545 95.1346C122.258 97.542 120.945 99.9349 119.605 102.314Z" fill="#65840F"/>
<path d="M129.553 76.5148C129.761 77.2907 129.948 78.0711 130.133 78.8519L130.4 80.0256C130.487 80.4173 130.58 80.8077 130.661 81.2005L130.53 81.1457C131.142 80.7695 131.748 80.383 132.365 80.0146C132.98 79.6428 133.597 79.2746 134.222 78.9206C133.633 79.3325 133.035 79.7306 132.434 80.125C131.836 80.5227 131.226 80.9027 130.623 81.2923L130.519 81.3589L130.492 81.2375C130.403 80.8463 130.325 80.4527 130.241 80.0604L129.996 78.8821C129.84 78.0947 129.686 77.3072 129.553 76.5148Z" fill="#65840F"/>
<path d="M125.513 80.9215C125.898 81.9074 126.265 82.8994 126.629 83.8926C126.814 84.3879 126.988 84.8874 127.167 85.3851L127.7 86.8792L127.58 86.8286L129.025 86.162C129.508 85.9413 129.987 85.7144 130.473 85.4997C131.44 85.0636 132.409 84.6299 133.386 84.2141C132.44 84.6965 131.486 85.1609 130.53 85.6229C130.054 85.8571 129.573 86.0794 129.094 86.3078L127.655 86.9883L127.566 87.0302L127.534 86.9377L127.016 85.4383C126.844 84.938 126.667 84.4398 126.502 83.9374C126.164 82.9348 125.83 81.9313 125.513 80.9215Z" fill="#65840F"/>
<path d="M122.103 86.1782C122.579 87.2034 123.036 88.2368 123.491 89.271C123.721 89.7867 123.939 90.3077 124.164 90.8261L124.833 92.3832L124.721 92.3354C125.742 91.9513 126.76 91.5582 127.784 91.1812C128.807 90.8031 129.832 90.4278 130.863 90.0702C129.858 90.495 128.845 90.9022 127.832 91.3063C126.818 91.7116 125.8 92.101 124.784 92.4993L124.705 92.5303L124.672 92.4513L124.016 90.8888C123.799 90.367 123.575 89.8484 123.365 89.3242C122.936 88.279 122.51 87.2328 122.103 86.1782Z" fill="#65840F"/>
<path d="M120.549 91.9543C120.851 92.8592 121.131 93.7704 121.41 94.6818L121.817 96.0524C121.95 96.51 122.091 96.9654 122.218 97.4248L122.108 97.3669C122.907 97.1081 123.703 96.8377 124.505 96.5884C125.306 96.3346 126.108 96.0849 126.916 95.8508C126.13 96.1492 125.339 96.4324 124.546 96.7111C123.755 96.9945 122.957 97.2568 122.163 97.5305L122.078 97.5596L122.052 97.4726C121.915 97.016 121.791 96.5559 121.66 96.0975L121.274 94.7209C121.025 93.8011 120.777 92.881 120.549 91.9543Z" fill="#65840F"/>
<path d="M120.699 103.775C120.699 103.775 120.917 99.3965 122.021 96.5098C123.124 93.6232 124.047 95.5334 125.189 93.91C126.33 92.2867 126.498 90.2561 128.53 90.7346C130.563 91.2132 129.78 88.0816 131.323 87.2625C132.865 86.4433 132.996 88.61 134.208 87.3199C135.42 86.0298 135.573 85.0903 137.006 85.8266C138.44 86.5626 140.257 83.3188 141.946 84.097C143.635 84.8753 141.753 86.1955 140.898 87.779C140.042 89.3625 142.497 90.5873 140.66 91.7845C138.823 92.9818 138.733 93.1986 138.079 94.828C137.425 96.4574 135.624 95.5606 134.961 96.5174C134.298 97.4742 135.668 98.9093 133.256 99.1435C130.845 99.3776 129.366 99.3939 129.87 100.655C130.373 101.916 125.421 104.955 120.699 103.775Z" fill="url(#paint9_linear_1_254)"/>
<path d="M120.314 104.15C122.02 102.491 123.744 100.852 125.486 99.2326C127.224 97.6087 128.977 96.0027 130.735 94.3998C132.497 92.8027 134.262 91.2095 136.044 89.6338C137.822 88.054 139.618 86.4939 141.431 84.9531C139.725 86.6119 138.001 88.2512 136.26 89.8706C134.522 91.4945 132.768 93.1005 131.01 94.7029C129.248 96.2995 127.482 97.8927 125.7 99.4683C123.922 101.048 122.127 102.609 120.314 104.15Z" fill="#65840F"/>
<path d="M136.229 86.0566C136.165 86.7539 136.082 87.4482 135.998 88.1425L135.863 89.1825C135.815 89.5288 135.773 89.876 135.722 90.2219L135.631 90.1374C136.245 90.0142 136.857 89.881 137.472 89.7659C138.087 89.6474 138.702 89.5325 139.321 89.4318C138.715 89.591 138.106 89.7357 137.496 89.8771C136.887 90.0218 136.274 90.1484 135.662 90.2851L135.558 90.3084L135.572 90.2009C135.617 89.8543 135.672 89.5089 135.722 89.1628L135.877 88.1255C135.987 87.4348 136.098 86.7444 136.229 86.0566Z" fill="#65840F"/>
<path d="M131.597 88.4409C131.614 89.3628 131.615 90.2848 131.613 91.2064C131.615 91.6674 131.606 92.1281 131.602 92.5891L131.588 93.9715L131.505 93.8938L132.888 93.7848C133.348 93.7499 133.809 93.709 134.271 93.6799C135.193 93.6151 136.116 93.5527 137.04 93.5073C136.121 93.6164 135.201 93.7085 134.28 93.7979C133.82 93.8459 133.36 93.882 132.899 93.9245L131.517 94.047L131.433 94.0546L131.434 93.9694L131.463 92.587C131.473 92.1263 131.479 91.6656 131.495 91.2049C131.522 90.2835 131.551 89.3621 131.597 88.4409Z" fill="#65840F"/>
<path d="M127.223 91.7103C127.303 92.6921 127.365 93.6748 127.425 94.6576C127.458 95.1487 127.479 95.6406 127.506 96.1323L127.584 97.6069L127.506 97.534C128.457 97.528 129.408 97.5136 130.359 97.5141C131.309 97.5136 132.26 97.5159 133.211 97.5346C132.261 97.5786 131.311 97.6061 130.36 97.6308C129.41 97.6568 128.459 97.6675 127.508 97.6869L127.434 97.6885L127.431 97.614L127.366 96.1388C127.347 95.6469 127.32 95.1553 127.306 94.6633C127.27 93.6795 127.238 92.6955 127.223 91.7103Z" fill="#65840F"/>
<path d="M124.211 95.9643C124.185 96.7953 124.139 97.6247 124.092 98.454L124.012 99.6974C123.982 100.112 123.96 100.527 123.925 100.94L123.853 100.86C124.584 100.889 125.316 100.908 126.047 100.946C126.779 100.98 127.51 101.018 128.241 101.071C127.508 101.078 126.776 101.07 126.044 101.059C125.312 101.052 124.58 101.026 123.848 101.01L123.771 101.009L123.776 100.93C123.802 100.515 123.839 100.102 123.87 99.6875L123.97 98.4457C124.043 97.6176 124.117 96.7903 124.211 95.9643Z" fill="#65840F"/>
<path d="M121.284 91.2663C121.284 91.2663 118.871 88.3222 117.898 85.8212C116.925 83.3203 118.633 84.0112 118.421 82.3013C118.208 80.5914 117.132 79.187 118.719 78.3097C120.306 77.4326 117.976 75.8738 118.491 74.4476C119.006 73.0214 120.353 74.339 120.381 72.8022C120.408 71.2654 119.959 70.5719 121.31 70.2095C122.662 69.8471 121.939 66.7008 123.48 66.2165C125.021 65.7322 124.579 67.6791 124.952 69.1968C125.325 70.7145 127.619 70.0713 127.135 71.9125C126.651 73.7538 126.72 73.9457 127.249 75.3756C127.778 76.8054 126.097 77.2782 126.228 78.2803C126.359 79.2825 128.077 79.4073 126.662 80.9643C125.247 82.5211 124.305 83.3937 125.365 83.9116C126.425 84.4297 125.01 89.2722 121.284 91.2663Z" fill="url(#paint10_linear_1_254)"/>
<path d="M121.254 91.7321C121.385 89.67 121.539 87.6101 121.715 85.5525C121.886 83.4944 122.078 81.4384 122.274 79.3827C122.477 77.3278 122.684 75.2731 122.912 73.2205C123.134 71.1674 123.38 69.1164 123.648 67.0677C123.518 69.1298 123.365 71.1897 123.188 73.2473C123.017 75.3053 122.825 77.3613 122.629 79.4171C122.426 81.472 122.218 83.5267 121.991 85.5793C121.768 87.6324 121.522 89.6834 121.254 91.7321Z" fill="#65840F"/>
<path d="M120.944 70.8113C121.31 71.2969 121.661 71.7919 122.012 72.2875L122.531 73.0359C122.703 73.2863 122.878 73.5341 123.047 73.7868L122.939 73.7853C123.262 73.3482 123.578 72.9058 123.908 72.4729C124.234 72.0382 124.563 71.6052 124.902 71.1799C124.605 71.6357 124.298 72.0843 123.988 72.5308C123.68 72.9792 123.359 73.4182 123.046 73.8624L122.992 73.9381L122.939 73.8608C122.766 73.6114 122.6 73.3571 122.43 73.1056L121.925 72.3478C121.593 71.8386 121.262 71.3297 120.944 70.8113Z" fill="#65840F"/>
<path d="M119.355 75.0461C119.904 75.6293 120.441 76.2219 120.978 76.8163C121.248 77.1116 121.511 77.4134 121.777 77.712L122.574 78.6098L122.475 78.6083L123.301 77.732C123.578 77.4406 123.85 77.1459 124.13 76.858C124.686 76.2785 125.243 75.7003 125.811 75.1324C125.284 75.7384 124.745 76.3341 124.205 76.9283C123.937 77.2272 123.662 77.5193 123.39 77.8151L122.573 78.6995L122.522 78.7538L122.474 78.6979L121.686 77.792C121.424 77.4894 121.159 77.1897 120.901 76.8837C120.381 76.2754 119.862 75.6655 119.355 75.0461Z" fill="#65840F"/>
<path d="M118.447 79.7C119.071 80.2852 119.683 80.8812 120.295 81.4788C120.603 81.7756 120.903 82.0798 121.207 82.38L122.117 83.2839L122.025 83.282C122.633 82.7238 123.236 82.1603 123.848 81.6062C124.46 81.0514 125.073 80.4986 125.696 79.9559C125.11 80.5382 124.515 81.1101 123.918 81.6804C123.321 82.2513 122.716 82.8127 122.115 83.3793L122.069 83.4236L122.023 83.3777L121.121 82.4663C120.822 82.1613 120.518 81.8606 120.222 81.5522C119.626 80.9389 119.031 80.3248 118.447 79.7Z" fill="#65840F"/>
<path d="M118.989 84.1932C119.457 84.7433 119.91 85.3037 120.364 85.8645L121.037 86.7115C121.26 86.9949 121.487 87.2752 121.707 87.5613L121.613 87.5519C122.101 87.1441 122.582 86.7296 123.075 86.3279C123.566 85.9233 124.059 85.5213 124.559 85.1288C124.092 85.5604 123.617 85.9828 123.139 86.4026C122.664 86.825 122.178 87.2349 121.698 87.6515L121.647 87.6958L121.604 87.6421C121.379 87.3602 121.161 87.0723 120.94 86.7878L120.28 85.9306C119.845 85.3551 119.41 84.7793 118.989 84.1932Z" fill="#65840F"/>
<path d="M123.714 107.075C123.714 108.944 107.573 110.459 87.6621 110.459C67.7512 110.459 51.61 108.944 51.61 107.075C51.61 105.205 67.7512 103.69 87.6621 103.69C107.573 103.69 123.714 105.205 123.714 107.075Z" fill="url(#paint11_radial_1_254)"/>
<path d="M111.68 108.962C127.278 108.962 139.922 107.447 139.922 105.578C139.922 103.708 127.278 102.193 111.68 102.193C96.0819 102.193 83.4373 103.708 83.4373 105.578C83.4373 107.447 96.0819 108.962 111.68 108.962Z" fill="url(#paint12_radial_1_254)"/>
<path d="M63.2569 108.962C78.8548 108.962 91.4994 107.447 91.4994 105.578C91.4994 103.708 78.8548 102.193 63.2569 102.193C47.6591 102.193 35.0145 103.708 35.0145 105.578C35.0145 107.447 47.6591 108.962 63.2569 108.962Z" fill="url(#paint13_radial_1_254)"/>
<path d="M58.0862 79.3566H67.7038V54.4075H58.0862V79.3566Z" fill="url(#paint14_linear_1_254)"/>
<path d="M57.8669 54.2463C57.7085 53.7295 57.311 51.9743 58.7033 50.6656C60.3537 49.1143 62.4495 48.124 62.895 46.6719C63.3403 48.1242 65.4361 49.1143 67.0867 50.6656C68.4791 51.9743 68.0816 53.7295 67.9232 54.2463H57.8669Z" fill="url(#paint15_radial_1_254)"/>
<path d="M63.0202 39.811H62.7698V46.4352H63.0202V39.811Z" fill="url(#paint16_linear_1_254)"/>
<path d="M63.6042 46.4354C63.6042 46.8271 63.2866 47.1446 62.8949 47.1446C62.5031 47.1446 62.1856 46.8271 62.1856 46.4354C62.1856 46.0436 62.5031 45.7261 62.8949 45.7261C63.2866 45.7261 63.6042 46.0436 63.6042 46.4354Z" fill="url(#paint17_linear_1_254)"/>
<path d="M56.8654 55.1802H68.9247V53.6353H56.8654V55.1802Z" fill="url(#paint18_linear_1_254)"/>
<path d="M56.8654 66.9457H68.9247V65.4008H56.8654V66.9457Z" fill="url(#paint19_linear_1_254)"/>
<path d="M63.9234 60.1496C64.3134 59.8226 64.8081 59.6139 64.9133 59.3076C65.0184 59.6139 65.5135 59.8226 65.9031 60.1496C66.2078 60.4052 66.1496 60.7411 66.1098 60.8759V64.1989H63.7181V60.8798C63.678 60.7477 63.6161 60.4076 63.9234 60.1496Z" fill="white"/>
<path d="M59.8864 60.1496C60.276 59.8226 60.7711 59.6139 60.8762 59.3076C60.9814 59.6139 61.4764 59.8226 61.8661 60.1496C62.1707 60.4052 62.1125 60.7411 62.0727 60.8759V64.1989H59.681V60.8798C59.6409 60.7477 59.5788 60.4076 59.8864 60.1496Z" fill="white"/>
<path d="M63.9234 73.0147C64.3134 72.6877 64.8081 72.479 64.9133 72.1727C65.0184 72.479 65.5135 72.6877 65.9031 73.0147C66.2078 73.2704 66.1496 73.6063 66.1098 73.741V77.064H63.7181V73.745C63.678 73.6128 63.6161 73.2727 63.9234 73.0147Z" fill="white"/>
<path d="M59.8864 73.0147C60.276 72.6877 60.7711 72.479 60.8762 72.1727C60.9814 72.479 61.4764 72.6877 61.8661 73.0147C62.1707 73.2704 62.1125 73.6063 62.0727 73.741V77.064H59.681V73.745C59.6409 73.6128 59.5788 73.2727 59.8864 73.0147Z" fill="white"/>
<path d="M52.9587 102.864H72.8314V80.8674H52.9587V102.864Z" fill="url(#paint20_linear_1_254)"/>
<path d="M53.9305 77.8533V79.3566H55.9044V77.8533H57.9193V79.3566H59.8932V77.8533H61.908V79.3566H63.8819V77.8533H65.8968V79.3566H67.8707V77.8533H69.8855V79.3566H71.8597V77.8533H73.8743V79.3566V81.7126H71.8597H69.8855H67.8707H65.8968H63.8819H61.908H59.8932H57.9193H55.9044H53.9305H51.9157V79.3566V77.8533H53.9305Z" fill="url(#paint21_linear_1_254)"/>
<path d="M51.9155 104.042H73.8741V101.686H51.9155V104.042Z" fill="url(#paint22_linear_1_254)"/>
<path d="M50.4538 105.825H75.336V103.469H50.4538V105.825Z" fill="url(#paint23_linear_1_254)"/>
<path d="M70.4101 83.0199H72.3793V82.2112H70.4101V83.0199Z" fill="#C0B4CC"/>
<path d="M67.975 83.0199H69.9442V82.2112H67.975V83.0199Z" fill="#C0B4CC"/>
<path d="M65.54 83.0199H67.5092V82.2112H65.54V83.0199Z" fill="#C0B4CC"/>
<path d="M63.1051 83.0199H65.0743V82.2112H63.1051V83.0199Z" fill="#C0B4CC"/>
<path d="M60.6701 83.0199H62.6393V82.2112H60.6701V83.0199Z" fill="#C0B4CC"/>
<path d="M58.235 83.0199H60.2042V82.2112H58.235V83.0199Z" fill="#C0B4CC"/>
<path d="M55.8001 83.0199H57.7693V82.2112H55.8001V83.0199Z" fill="#C0B4CC"/>
<path d="M53.3651 83.0199H55.3343V82.2112H53.3651V83.0199Z" fill="#C0B4CC"/>
<path d="M60.6775 89.8388C61.5506 89.1061 62.6595 88.6384 62.8952 87.9527C63.131 88.6386 64.2396 89.1061 65.1128 89.8388C65.7953 90.4114 65.665 91.1642 65.5753 91.466V98.9105H60.217V91.4749C60.1276 91.1786 59.9886 90.4167 60.6775 89.8388Z" fill="white"/>
<path d="M117.238 54.4075H107.621V79.3566H117.238V54.4075Z" fill="url(#paint24_linear_1_254)"/>
<path d="M117.458 54.2463C117.616 53.7295 118.014 51.9743 116.621 50.6656C114.971 49.1143 112.875 48.124 112.43 46.6719C111.984 48.1242 109.888 49.1143 108.238 50.6656C106.846 51.9743 107.243 53.7295 107.401 54.2463H117.458Z" fill="url(#paint25_radial_1_254)"/>
<path d="M112.555 39.811H112.305V46.4352H112.555V39.811Z" fill="url(#paint26_linear_1_254)"/>
<path d="M113.139 46.4354C113.139 46.8271 112.821 47.1446 112.43 47.1446C112.038 47.1446 111.72 46.8271 111.72 46.4354C111.72 46.0436 112.038 45.7261 112.43 45.7261C112.821 45.7261 113.139 46.0436 113.139 46.4354Z" fill="url(#paint27_linear_1_254)"/>
<path d="M118.459 53.6353H106.4V55.18H118.459V53.6353Z" fill="url(#paint28_linear_1_254)"/>
<path d="M118.459 65.4008H106.4V66.9455H118.459V65.4008Z" fill="url(#paint29_linear_1_254)"/>
<path d="M111.401 60.1495C111.011 59.8226 110.516 59.6138 110.411 59.3076C110.306 59.6138 109.811 59.8226 109.421 60.1495C109.116 60.4052 109.175 60.7411 109.215 60.8759V64.1989H111.606V60.8798C111.646 60.7476 111.708 60.4076 111.401 60.1495Z" fill="white"/>
<path d="M115.438 60.1495C115.048 59.8226 114.553 59.6138 114.448 59.3076C114.343 59.6138 113.848 59.8226 113.458 60.1495C113.153 60.4052 113.212 60.7411 113.252 60.8759V64.1989H115.643V60.8798C115.683 60.7476 115.745 60.4076 115.438 60.1495Z" fill="white"/>
<path d="M111.401 73.0147C111.011 72.6877 110.516 72.479 110.411 72.1727C110.306 72.479 109.811 72.6877 109.421 73.0147C109.116 73.2703 109.175 73.6062 109.215 73.741V77.064H111.606V73.7449C111.646 73.6128 111.708 73.2727 111.401 73.0147Z" fill="white"/>
<path d="M115.438 73.0147C115.048 72.6877 114.553 72.479 114.448 72.1727C114.343 72.479 113.848 72.6877 113.458 73.0147C113.153 73.2703 113.212 73.6062 113.252 73.741V77.064H115.643V73.7449C115.683 73.6128 115.745 73.2727 115.438 73.0147Z" fill="white"/>
<path d="M122.366 80.8673H102.493V102.864H122.366V80.8673Z" fill="url(#paint30_linear_1_254)"/>
<path d="M121.394 77.8533V79.3566H119.42V77.8533H117.405V79.3566H115.431V77.8533H113.417V79.3566H111.443V77.8533H109.428V79.3566H107.454V77.8533H105.439V79.3566H103.465V77.8533H101.45V79.3566V81.7125H103.465H105.439H107.454H109.428H111.443H113.417H115.431H117.405H119.42H121.394H123.409V79.3566V77.8533H121.394Z" fill="url(#paint31_linear_1_254)"/>
<path d="M123.409 101.686H101.45V104.042H123.409V101.686Z" fill="url(#paint32_linear_1_254)"/>
<path d="M124.871 103.469H99.9884V105.825H124.871V103.469Z" fill="url(#paint33_linear_1_254)"/>
<path d="M104.914 82.211H102.945V83.0196H104.914V82.211Z" fill="#C0B4CC"/>
<path d="M107.349 82.211H105.38V83.0196H107.349V82.211Z" fill="#C0B4CC"/>
<path d="M109.784 82.211H107.815V83.0196H109.784V82.211Z" fill="#C0B4CC"/>
<path d="M112.22 82.211H110.25V83.0196H112.22V82.211Z" fill="#C0B4CC"/>
<path d="M114.654 82.211H112.685V83.0196H114.654V82.211Z" fill="#C0B4CC"/>
<path d="M117.09 82.211H115.12V83.0196H117.09V82.211Z" fill="#C0B4CC"/>
<path d="M119.525 82.211H117.555V83.0196H119.525V82.211Z" fill="#C0B4CC"/>
<path d="M121.96 82.211H119.99V83.0196H121.96V82.211Z" fill="#C0B4CC"/>
<path d="M114.647 89.8387C113.774 89.1061 112.665 88.6383 112.43 87.9527C112.194 88.6386 111.085 89.1061 110.212 89.8387C109.529 90.4114 109.66 91.1642 109.749 91.466V98.9104H115.108V91.4749C115.197 91.1786 115.336 90.4167 114.647 89.8387Z" fill="white"/>
<path d="M104.355 65.8383C104.87 64.6321 106.163 60.5367 101.635 57.4827C96.2677 53.8626 89.452 51.552 88.0038 48.1629C86.5557 51.552 79.74 53.8626 74.3728 57.4827C69.8447 60.5367 71.1377 64.6321 71.6529 65.8383H104.355Z" fill="url(#paint34_linear_1_254)"/>
<path d="M96.1901 65.8383C96.4478 64.6321 97.0952 60.5367 94.8284 57.4827C92.1413 53.8626 88.7291 51.552 88.0041 48.1629C87.2791 51.552 83.8667 53.8626 81.1796 57.4827C78.9125 60.5367 79.5599 64.6321 79.8179 65.8383H96.1901Z" fill="url(#paint35_linear_1_254)"/>
<mask id="mask0_1_254" style="mask-type:luminance" maskUnits="userSpaceOnUse" x="71" y="48" width="34" height="18">
<path d="M104.355 65.8383C104.87 64.6321 106.163 60.5367 101.635 57.4827C96.2677 53.8626 89.452 51.552 88.0038 48.1629C86.5557 51.552 79.74 53.8626 74.3728 57.4827C69.8447 60.5367 71.1377 64.6321 71.6529 65.8383H104.355Z" fill="white"/>
</mask>
<g mask="url(#mask0_1_254)">
<path d="M72.8084 65.5951C72.8032 65.5655 72.2895 62.651 70.6019 61.1923C68.5593 63.0488 68.0697 65.2852 68.065 65.3077L67.8201 65.2561C67.8406 65.1591 68.3448 62.8574 70.5164 60.9328L70.5961 60.862L70.6787 60.9293C72.505 62.4232 73.0339 65.4257 73.0554 65.5526L72.8084 65.5951Z" fill="#ED7D2B"/>
<path d="M75.9977 65.5952C75.9925 65.5655 75.4788 62.6511 73.7912 61.1924C71.7518 63.0459 71.2591 65.2852 71.2544 65.3078L71.0094 65.2561C71.0299 65.1591 71.5341 62.8574 73.7055 60.9328L73.7852 60.862L73.8678 60.9294C75.6941 62.4232 76.223 65.4258 76.2445 65.5527L75.9977 65.5952Z" fill="#ED7D2B"/>
<path d="M79.187 65.5952C79.1817 65.5655 78.6681 62.6511 76.9807 61.1924C74.9381 63.0488 74.4486 65.2852 74.4439 65.3078L74.1989 65.2561C74.2194 65.1591 74.7236 62.8574 76.895 60.9328L76.9747 60.862L77.0573 60.9294C78.8836 62.4232 79.4122 65.4258 79.434 65.5527L79.187 65.5952Z" fill="#ED7D2B"/>
<path d="M82.3762 65.5952C82.371 65.5655 81.8573 62.6511 80.1697 61.1924C78.1302 63.0459 77.6378 65.2852 77.6328 65.3078L77.3879 65.2561C77.4084 65.1591 77.9126 62.8574 80.084 60.9328L80.1637 60.862L80.2463 60.9294C82.0726 62.4232 82.6015 65.4258 82.623 65.5527L82.3762 65.5952Z" fill="#ED7D2B"/>
<path d="M85.5655 65.5952C85.5603 65.5655 85.0466 62.6511 83.3593 61.1924C81.3198 63.0459 80.8271 65.2852 80.8224 65.3078L80.5775 65.2561C80.598 65.1591 81.1022 62.8574 83.2738 60.9328L83.3535 60.862L83.4361 60.9294C85.2624 62.4232 85.791 65.4258 85.8128 65.5527L85.5655 65.5952Z" fill="#ED7D2B"/>
<path d="M88.7548 65.5952C88.7495 65.5655 88.2359 62.6511 86.5483 61.1924C84.5088 63.0459 84.0164 65.2852 84.0114 65.3078L83.7665 65.2561C83.7869 65.1591 84.2912 62.8574 86.4625 60.9328L86.5422 60.862L86.6248 60.9294C88.4509 62.4232 88.98 65.4258 89.0015 65.5527L88.7548 65.5952Z" fill="#ED7D2B"/>
<path d="M91.9442 65.5952C91.9389 65.5655 91.4253 62.6511 89.7379 61.1924C87.6985 63.0459 87.2058 65.2852 87.2011 65.3078L86.9562 65.2561C86.9766 65.1591 87.4808 62.8574 89.6522 60.9328L89.7319 60.862L89.8145 60.9294C91.6405 62.4232 92.1694 65.4258 92.1909 65.5527L91.9442 65.5952Z" fill="#ED7D2B"/>
<path d="M95.1333 65.5952C95.128 65.5655 94.6143 62.6511 92.9267 61.1924C90.8841 63.0488 90.3946 65.2852 90.3899 65.3078L90.145 65.2561C90.1654 65.1591 90.6696 62.8574 92.8413 60.9328L92.921 60.862L93.0036 60.9294C94.8299 62.4232 95.3587 65.4258 95.3802 65.5527L95.1333 65.5952Z" fill="#ED7D2B"/>
<path d="M98.3226 65.5952C98.3173 65.5655 97.8036 62.6511 96.1161 61.1924C94.0766 63.0459 93.5842 65.2852 93.5792 65.3078L93.3343 65.2561C93.3547 65.1591 93.8589 62.8574 96.0303 60.9328L96.11 60.862L96.1926 60.9294C98.0189 62.4232 98.5475 65.4258 98.5693 65.5527L98.3226 65.5952Z" fill="#ED7D2B"/>
<path d="M101.512 65.5952C101.507 65.5655 100.993 62.6511 99.3056 61.1924C97.263 63.0488 96.7735 65.2852 96.7688 65.3078L96.5239 65.2561C96.5443 65.1591 97.0485 62.8574 99.2199 60.9328L99.2996 60.862L99.3822 60.9294C101.209 62.4232 101.737 65.4258 101.759 65.5527L101.512 65.5952Z" fill="#ED7D2B"/>
<path d="M104.701 65.5952C104.696 65.5655 104.182 62.6511 102.495 61.1924C100.455 63.0459 99.9627 65.2852 99.9577 65.3078L99.7128 65.2561C99.7333 65.1591 100.238 62.8574 102.409 60.9328L102.489 60.862L102.571 60.9294C104.397 62.4232 104.926 65.4258 104.948 65.5527L104.701 65.5952Z" fill="#ED7D2B"/>
<path d="M107.891 65.5952C107.885 65.5655 107.372 62.6511 105.684 61.1924C103.645 63.0459 103.152 65.2852 103.147 65.3078L102.903 65.2561C102.923 65.1591 103.427 62.8574 105.599 60.9328L105.679 60.862L105.761 60.9294C107.587 62.4232 108.116 65.4258 108.138 65.5527L107.891 65.5952Z" fill="#ED7D2B"/>
</g>
<path d="M88.7362 48.0769C88.7362 48.4815 88.4081 48.8093 88.0038 48.8093C87.5992 48.8093 87.2714 48.4812 87.2714 48.0769C87.2714 47.6726 87.5992 47.3446 88.0038 47.3446C88.4081 47.3446 88.7362 47.6723 88.7362 48.0769Z" fill="url(#paint36_linear_1_254)"/>
<path d="M88.4816 46.9817C88.4816 47.2457 88.2677 47.4597 88.0039 47.4597C87.7399 47.4597 87.5259 47.2457 87.5259 46.9817C87.5259 46.7176 87.7399 46.5037 88.0039 46.5037C88.2679 46.5037 88.4816 46.7176 88.4816 46.9817Z" fill="url(#paint37_linear_1_254)"/>
<path d="M88.0039 46.6161C85.9584 46.6161 84.2942 44.9521 84.2942 42.9064C84.2942 40.8609 85.9581 39.1966 88.0039 39.1966C90.0494 39.1966 91.7137 40.8609 91.7137 42.9064C91.7137 44.9521 90.0494 46.6161 88.0039 46.6161ZM88.0039 39.447C86.0963 39.447 84.5446 40.9991 84.5446 42.9064C84.5446 44.814 86.0963 46.3657 88.0039 46.3657C89.9115 46.3657 91.4635 44.8137 91.4635 42.9064C91.4633 40.9991 89.9115 39.447 88.0039 39.447Z" fill="url(#paint38_linear_1_254)"/>
<path d="M88.0039 39.8111L88.7229 42.0244H91.05L89.1676 43.3924L89.8866 45.6057L88.0039 44.2377L86.1212 45.6057L86.8402 43.3924L84.9575 42.0244H87.2847L88.0039 39.8111Z" fill="url(#paint39_linear_1_254)"/>
<path d="M103.924 67.4782H72.0843V102.72H103.924V67.4782Z" fill="url(#paint40_linear_1_254)"/>
<path d="M105.595 65.058H70.4132V68.8328H105.595V65.058Z" fill="url(#paint41_linear_1_254)"/>
<path d="M105.595 100.833H70.4132V104.608H105.595V100.833Z" fill="url(#paint42_linear_1_254)"/>
<path d="M107.937 103.69H68.0711V107.465H107.937V103.69Z" fill="url(#paint43_linear_1_254)"/>
<path d="M75.9632 69.6313H72.8083V70.9269H75.9632V69.6313Z" fill="#C0B4CC"/>
<path d="M79.8646 69.6314H76.7097V70.927H79.8646V69.6314Z" fill="#C0B4CC"/>
<path d="M83.7658 69.6314H80.6109V70.927H83.7658V69.6314Z" fill="#C0B4CC"/>
<path d="M87.6672 69.6314H84.5122V70.927H87.6672V69.6314Z" fill="#C0B4CC"/>
<path d="M91.5683 69.6314H88.4134V70.927H91.5683V69.6314Z" fill="#C0B4CC"/>
<path d="M95.4697 69.6314H92.3148V70.927H95.4697V69.6314Z" fill="#C0B4CC"/>
<path d="M99.371 69.6314H96.2161V70.927H99.371V69.6314Z" fill="#C0B4CC"/>
<path d="M103.272 69.6314H100.117V70.927H103.272V69.6314Z" fill="#C0B4CC"/>
<path d="M74.7408 87.2221C74.5035 87.2221 74.3092 87.0278 74.3092 86.7905V72.6044C74.3092 72.3671 74.5035 72.1728 74.7408 72.1728C74.9781 72.1728 75.1724 72.3671 75.1724 72.6044V86.7905C75.1724 87.0278 74.9781 87.2221 74.7408 87.2221Z" fill="#C0B4CC"/>
<path d="M76.3181 87.2221C76.0808 87.2221 75.8865 87.0278 75.8865 86.7905V72.6044C75.8865 72.3671 76.0808 72.1728 76.3181 72.1728C76.5554 72.1728 76.7497 72.3671 76.7497 72.6044V86.7905C76.7497 87.0278 76.5557 87.2221 76.3181 87.2221Z" fill="#C0B4CC"/>
<path d="M77.8959 87.2221C77.6586 87.2221 77.4643 87.0278 77.4643 86.7905V72.6044C77.4643 72.3671 77.6586 72.1728 77.8959 72.1728C78.1332 72.1728 78.3275 72.3671 78.3275 72.6044V86.7905C78.3272 87.0278 78.1332 87.2221 77.8959 87.2221Z" fill="#C0B4CC"/>
<path d="M98.112 87.2221C97.8747 87.2221 97.6804 87.0278 97.6804 86.7905V72.6044C97.6804 72.3671 97.8747 72.1728 98.112 72.1728C98.3493 72.1728 98.5436 72.3671 98.5436 72.6044V86.7905C98.5433 87.0278 98.3493 87.2221 98.112 87.2221Z" fill="#C0B4CC"/>
<path d="M99.6893 87.2221C99.452 87.2221 99.2577 87.0278 99.2577 86.7905V72.6044C99.2577 72.3671 99.452 72.1728 99.6893 72.1728C99.9266 72.1728 100.121 72.3671 100.121 72.6044V86.7905C100.121 87.0278 99.9269 87.2221 99.6893 87.2221Z" fill="#C0B4CC"/>
<path d="M101.267 87.2221C101.03 87.2221 100.835 87.0278 100.835 86.7905V72.6044C100.835 72.3671 101.03 72.1728 101.267 72.1728C101.504 72.1728 101.699 72.3671 101.699 72.6044V86.7905C101.698 87.0278 101.504 87.2221 101.267 87.2221Z" fill="#C0B4CC"/>
<path d="M91.9952 82.9072C90.4238 81.4595 88.4281 80.5355 88.0041 79.1801C87.5801 80.5355 85.5845 81.4595 84.0128 82.9072C82.7843 84.0386 83.019 85.5261 83.18 86.1227V100.833H92.8236V86.14C92.9846 85.5547 93.2347 84.0491 91.9952 82.9072Z" fill="white"/>
<path d="M82.6327 81.9999C84.7477 80.0517 87.4333 78.808 88.0038 76.9843C88.5747 78.8083 91.26 80.0519 93.375 81.9999C94.1587 82.7218 94.497 83.5509 94.616 84.3097C94.7605 83.3388 94.7112 81.7954 93.375 80.5646C91.26 78.6163 88.5744 77.3727 88.0038 75.549C87.4333 77.3729 84.7474 78.6166 82.6327 80.5646C81.2962 81.7959 81.2469 83.3395 81.3914 84.31C81.5104 83.5514 81.8487 82.7223 82.6327 81.9999Z" fill="#C0B4CC"/>
<path d="M100.379 86.1633C99.4341 85.2933 98.2347 84.738 97.9799 83.9235C97.725 84.738 96.5257 85.2933 95.5812 86.1633C94.8431 86.8435 94.9839 87.7374 95.0806 88.0958V96.9365H100.876V88.1063C100.973 87.7544 101.124 86.8498 100.379 86.1633Z" fill="white"/>
<path d="M80.4264 86.1633C79.4819 85.2933 78.2826 84.738 78.0277 83.9235C77.7728 84.738 76.5735 85.2933 75.629 86.1633C74.8909 86.8435 75.0317 87.7374 75.1284 88.0958V96.9365H80.9241V88.1063C81.0208 87.7544 81.1714 86.8498 80.4264 86.1633Z" fill="white"/>
<path d="M68.5174 106.453C68.5174 107.586 61.8791 108.504 53.69 108.504C45.5011 108.504 38.8625 107.586 38.8625 106.453C38.8625 105.319 45.5009 104.401 53.69 104.401C61.8791 104.401 68.5174 105.319 68.5174 106.453Z" fill="url(#paint44_radial_1_254)"/>
<path d="M53.3042 106.289C53.3042 106.289 57.3868 95.3716 70.0532 96.5188C65.5547 104.38 58.0484 107.198 53.3042 106.289Z" fill="url(#paint45_linear_1_254)"/>
<path d="M53.3042 106.288C53.3042 106.288 61.6787 101.028 70.0532 96.5185C65.5547 104.38 58.0484 107.197 53.3042 106.288Z" fill="url(#paint46_linear_1_254)"/>
<path d="M53.3042 106.289C54.6423 105.446 55.989 104.619 57.3446 103.806C58.6982 102.99 60.0601 102.187 61.4233 101.388C62.7892 100.592 64.1566 99.8 65.5322 99.0215C66.9059 98.2395 68.2883 97.4728 69.6798 96.7213C68.342 97.5643 66.9953 98.3924 65.6397 99.2053C64.2859 100.021 62.9242 100.824 61.5607 101.623C60.1949 102.418 58.8272 103.21 57.4516 103.989C56.0779 104.77 54.6955 105.537 53.3042 106.289Z" fill="#65840F"/>
<path d="M66.1455 96.7205C66.0078 97.1649 65.8584 97.6049 65.7081 98.0446L65.4763 98.702C65.3977 98.9207 65.3227 99.1407 65.2414 99.3583L65.1942 99.2912C65.6103 99.2956 66.0262 99.2935 66.4423 99.3035C66.8584 99.3114 67.2743 99.3213 67.6904 99.3413C67.2743 99.3612 66.8584 99.3714 66.4423 99.379C66.0262 99.3892 65.6103 99.3869 65.1942 99.3913L65.1231 99.3921L65.147 99.3242C65.2241 99.105 65.3075 98.8882 65.3874 98.67L65.6313 98.0171C65.7986 97.5831 65.9659 97.1497 66.1455 96.7205Z" fill="#65840F"/>
<path d="M62.8059 97.6323C62.69 98.2341 62.5633 98.8335 62.4348 99.4324C62.3727 99.7324 62.3035 100.031 62.2374 100.33L62.0373 101.226L61.9941 101.165L62.9081 101.284C63.2126 101.325 63.5178 101.362 63.8217 101.407C64.4303 101.492 65.0389 101.579 65.6459 101.677C65.0336 101.621 64.4227 101.554 63.812 101.485C63.5065 101.453 63.2018 101.413 62.8966 101.377L61.9815 101.266L61.9251 101.259L61.938 101.204L62.1469 100.309C62.2172 100.011 62.2843 99.7125 62.3585 99.4151C62.5028 98.8196 62.6488 98.2247 62.8059 97.6323Z" fill="#65840F"/>
<path d="M59.5111 99.1544C59.4275 99.8037 59.3323 100.451 59.2358 101.098C59.1897 101.422 59.1354 101.745 59.0856 102.068L58.9324 103.038L58.8921 102.98C59.5111 103.107 60.131 103.228 60.749 103.36C61.3673 103.491 61.9851 103.624 62.6008 103.767C61.977 103.664 61.3553 103.551 60.7338 103.436C60.1124 103.322 59.4928 103.198 58.8721 103.079L58.8236 103.07L58.8317 103.022L58.993 102.053C59.0481 101.731 59.0987 101.408 59.1571 101.086C59.2707 100.441 59.3853 99.7969 59.5111 99.1544Z" fill="#65840F"/>
<path d="M56.9666 101.505C56.835 102.041 56.6908 102.574 56.546 103.107L56.3221 103.904C56.2461 104.169 56.174 104.436 56.0948 104.7L56.0586 104.638C56.53 104.758 57.0033 104.871 57.4735 104.996C57.9444 105.119 58.4146 105.245 58.8823 105.379C58.4051 105.283 57.93 105.177 57.4557 105.069C56.9805 104.964 56.5085 104.846 56.0347 104.735L55.9844 104.723L55.9985 104.672C56.0725 104.406 56.1538 104.142 56.2311 103.877L56.4674 103.084C56.6294 102.556 56.7917 102.029 56.9666 101.505Z" fill="#65840F"/>
<path d="M53.291 106.377C53.291 106.377 50.9235 94.965 62.2508 89.1814C62.637 98.2306 57.789 104.616 53.291 106.377Z" fill="url(#paint47_linear_1_254)"/>
<path d="M53.2913 106.377C53.2913 106.377 57.5711 97.4623 62.251 89.1814C62.6373 98.2306 57.7892 104.616 53.2913 106.377Z" fill="url(#paint48_linear_1_254)"/>
<path d="M53.2913 106.378C53.9738 104.951 54.6718 103.533 55.385 102.122C56.0951 100.71 56.8191 99.3052 57.5459 97.9016C58.2772 96.5006 59.0117 95.101 59.7603 93.7089C60.5052 92.315 61.2662 90.9292 62.0426 89.5515C61.3603 90.9782 60.6625 92.3968 59.9491 93.8072C59.239 95.2195 58.5148 96.6241 57.7877 98.0275C57.0561 99.4285 56.3216 100.828 55.573 102.22C54.8278 103.614 54.0674 105 53.2913 106.378Z" fill="#65840F"/>
<path d="M59.0525 91.436C59.1731 91.8855 59.2811 92.3373 59.3886 92.7896L59.5431 93.4692C59.5931 93.696 59.6469 93.9221 59.6941 94.1497L59.6183 94.1179C59.9728 93.9 60.3234 93.6761 60.6808 93.4629C61.0369 93.2477 61.3943 93.0345 61.7566 92.8294C61.4152 93.068 61.0689 93.2985 60.7209 93.5269C60.3743 93.7574 60.0213 93.9771 59.6718 94.2029L59.612 94.2414L59.596 94.1712C59.5444 93.9446 59.4993 93.7167 59.4508 93.4894L59.3089 92.8069C59.219 92.3509 59.1295 91.8949 59.0525 91.436Z" fill="#65840F"/>
<path d="M56.713 93.9881C56.9359 94.5589 57.1483 95.1337 57.3591 95.7087C57.4663 95.9955 57.567 96.285 57.6706 96.5732L57.9795 97.4385L57.9097 97.4091L58.7467 97.0231C59.0262 96.8954 59.3039 96.7641 59.585 96.6395C60.1453 96.387 60.7062 96.1358 61.272 95.8951C60.7243 96.1744 60.1715 96.4434 59.6185 96.7111C59.3427 96.8467 59.0637 96.9754 58.7866 97.1078L57.9532 97.5019L57.9021 97.5261L57.8835 97.4726L57.5833 96.6041C57.4839 96.3144 57.3814 96.026 57.2854 95.7349C57.09 95.1541 56.8963 94.5728 56.713 93.9881Z" fill="#65840F"/>
<path d="M54.7378 97.0326C55.0133 97.6265 55.2779 98.2249 55.5414 98.8238C55.6752 99.1225 55.8013 99.4243 55.9316 99.7245L56.3191 100.626L56.2541 100.599C56.8454 100.376 57.4348 100.149 58.028 99.9303C58.6208 99.7114 59.2142 99.494 59.8115 99.2869C59.2292 99.5328 58.6429 99.7685 58.056 100.003C57.4695 100.237 56.8792 100.463 56.2908 100.694L56.2449 100.712L56.2258 100.666L55.8461 99.7612C55.7208 99.4591 55.591 99.1586 55.4691 98.855C55.2205 98.2493 54.9737 97.6431 54.7378 97.0326Z" fill="#65840F"/>
<path d="M53.8385 100.378C54.0131 100.902 54.1754 101.429 54.3369 101.957L54.5726 102.751C54.6497 103.016 54.731 103.28 54.8047 103.546L54.7407 103.512C55.2035 103.362 55.6642 103.206 56.1291 103.061C56.593 102.914 57.0576 102.77 57.5254 102.634C57.0702 102.807 56.6119 102.971 56.153 103.133C55.6949 103.297 55.2326 103.449 54.7727 103.607L54.7239 103.624L54.7087 103.574C54.6295 103.309 54.5577 103.043 54.4817 102.777L54.2583 101.98C54.1138 101.447 53.9698 100.914 53.8385 100.378Z" fill="#65840F"/>
<path d="M53.7947 106.334C53.7947 106.334 50.8482 98.4551 41.707 99.2835C44.9537 104.957 50.371 106.99 53.7947 106.334Z" fill="url(#paint49_linear_1_254)"/>
<path d="M53.7947 106.334C53.7947 106.334 47.7507 102.538 41.707 99.2836C44.9537 104.957 50.371 106.99 53.7947 106.334Z" fill="url(#paint50_linear_1_254)"/>
<path d="M53.7945 106.334C52.8288 105.726 51.8568 105.129 50.8785 104.542C49.9015 103.953 48.9187 103.374 47.9349 102.797C46.9492 102.223 45.9623 101.651 44.9696 101.089C43.9781 100.525 42.9804 99.9714 41.9762 99.4289C42.9416 100.037 43.9136 100.635 44.8919 101.221C45.8689 101.81 46.8517 102.389 47.8355 102.966C48.8214 103.54 49.8084 104.112 50.8011 104.674C51.7928 105.238 52.7905 105.791 53.7945 106.334Z" fill="#65840F"/>
<path d="M44.5272 99.4288C44.6266 99.7495 44.7344 100.067 44.8429 100.385L45.0102 100.859C45.0668 101.017 45.1211 101.175 45.1799 101.332L45.2139 101.284C44.9137 101.287 44.6135 101.286 44.3132 101.293C44.013 101.298 43.7128 101.306 43.4126 101.32C43.7128 101.335 44.013 101.342 44.3132 101.347C44.6135 101.355 44.9137 101.353 45.2139 101.356L45.2653 101.357L45.248 101.308C45.1924 101.15 45.1321 100.993 45.0744 100.836L44.8985 100.364C44.7776 100.052 44.6567 99.7388 44.5272 99.4288Z" fill="#65840F"/>
<path d="M46.9375 100.087C47.0211 100.521 47.1126 100.954 47.2052 101.386C47.25 101.603 47.3001 101.818 47.3476 102.034L47.4918 102.681L47.523 102.636L46.8633 102.722C46.6435 102.752 46.4233 102.779 46.2038 102.811C45.7646 102.872 45.3254 102.935 44.8872 103.005C45.3291 102.965 45.7701 102.917 46.2109 102.867C46.4314 102.844 46.6514 102.815 46.8716 102.789L47.5322 102.709L47.5728 102.704L47.5634 102.664L47.4126 102.019C47.3617 101.804 47.3132 101.588 47.2597 101.373C47.1561 100.944 47.0507 100.514 46.9375 100.087Z" fill="#65840F"/>
<path d="M49.3152 101.185C49.3755 101.654 49.4442 102.121 49.514 102.588C49.5473 102.822 49.5864 103.055 49.6223 103.288L49.7327 103.988L49.7618 103.946C49.315 104.038 48.8676 104.125 48.4216 104.22C47.9753 104.315 47.5296 104.41 47.0851 104.514C47.5353 104.44 47.984 104.358 48.4326 104.275C48.8813 104.193 49.3283 104.103 49.7762 104.018L49.8111 104.011L49.8053 103.976L49.6889 103.277C49.6493 103.045 49.6126 102.811 49.5704 102.579C49.4888 102.114 49.4062 101.649 49.3152 101.185Z" fill="#65840F"/>
<path d="M51.1514 102.881C51.2465 103.269 51.3506 103.653 51.455 104.038L51.6165 104.613C51.6713 104.805 51.7232 104.997 51.7807 105.188L51.8066 105.143C51.4663 105.229 51.1249 105.311 50.7856 105.402C50.4457 105.49 50.1064 105.581 49.7687 105.678C50.1133 105.608 50.456 105.532 50.7984 105.454C51.1414 105.378 51.482 105.293 51.8239 105.213L51.8601 105.204L51.8499 105.168C51.7964 104.976 51.7379 104.786 51.6821 104.595L51.5116 104.022C51.3949 103.641 51.2777 103.26 51.1514 102.881Z" fill="#65840F"/>
<path d="M53.8041 106.398C53.8041 106.398 55.5129 98.1619 47.338 93.9877C47.0593 100.519 50.5579 105.127 53.8041 106.398Z" fill="url(#paint51_linear_1_254)"/>
<path d="M53.8041 106.398C53.8041 106.398 50.7153 99.964 47.338 93.9877C47.0593 100.519 50.5579 105.127 53.8041 106.398Z" fill="url(#paint52_linear_1_254)"/>
<path d="M53.804 106.398C53.3114 105.369 52.8079 104.345 52.2929 103.327C51.7806 102.308 51.258 101.294 50.7333 100.281C50.2055 99.2702 49.6755 98.2602 49.1354 97.2554C48.5976 96.2493 48.0485 95.2492 47.4884 94.2549C47.9809 95.2846 48.4843 96.3083 48.9993 97.3262C49.5117 98.3454 50.0342 99.3594 50.5592 100.372C51.0873 101.383 51.6172 102.393 52.1574 103.398C52.6952 104.404 53.244 105.404 53.804 106.398Z" fill="#65840F"/>
<path d="M49.6463 95.6151C49.5593 95.9394 49.4811 96.2656 49.4038 96.5918L49.2923 97.0824C49.2561 97.246 49.2173 97.4094 49.1833 97.5735L49.2378 97.5507C48.9821 97.3934 48.7288 97.2319 48.4711 97.0779C48.2141 96.9224 47.9561 96.7688 47.6944 96.6206C47.9409 96.7929 48.1908 96.9592 48.442 97.1241C48.6921 97.2903 48.947 97.449 49.1992 97.6121L49.2422 97.6399L49.2538 97.589C49.291 97.4254 49.3235 97.261 49.3587 97.0971L49.4612 96.6046C49.5262 96.2753 49.5907 95.9462 49.6463 95.6151Z" fill="#65840F"/>
<path d="M51.3346 97.4571C51.1736 97.869 51.0204 98.2838 50.8684 98.6989C50.791 98.906 50.7184 99.1147 50.6436 99.3227L50.4208 99.9473L50.4711 99.926L49.867 99.6473C49.6653 99.555 49.4647 99.4603 49.262 99.3704C48.8577 99.1882 48.4529 99.0067 48.0446 98.8331C48.44 99.0348 48.8388 99.2288 49.2379 99.4221C49.4369 99.5199 49.6383 99.613 49.8384 99.7084L50.4396 99.9929L50.4766 100.01L50.49 99.9717L50.7068 99.345C50.7787 99.136 50.8526 98.9275 50.9216 98.7178C51.0624 98.2987 51.2024 97.8792 51.3346 97.4571Z" fill="#65840F"/>
<path d="M52.76 99.6542C52.5612 100.083 52.3701 100.515 52.18 100.947C52.0835 101.162 51.9925 101.38 51.8984 101.597L51.6189 102.248L51.6658 102.228C51.2389 102.067 50.8136 101.903 50.3857 101.745C49.9578 101.587 49.5296 101.43 49.0985 101.281C49.5188 101.459 49.942 101.629 50.3655 101.798C50.789 101.967 51.2148 102.13 51.6393 102.296L51.6723 102.309L51.6862 102.276L51.9603 101.623C52.0507 101.405 52.1443 101.188 52.2324 100.969C52.4118 100.532 52.5898 100.095 52.76 99.6542Z" fill="#65840F"/>
<path d="M53.4091 102.068C53.283 102.446 53.1661 102.827 53.0494 103.208L52.8792 103.781C52.8236 103.972 52.7649 104.163 52.7117 104.355L52.7578 104.331C52.4237 104.222 52.0913 104.109 51.7559 104.005C51.4211 103.899 51.0857 103.795 50.7482 103.697C51.0768 103.822 51.4074 103.94 51.7386 104.057C52.0692 104.175 52.4028 104.285 52.7347 104.399L52.7699 104.411L52.7809 104.375C52.838 104.184 52.89 103.992 52.9448 103.8L53.106 103.225C53.2104 102.84 53.3142 102.455 53.4091 102.068Z" fill="#65840F"/>
<g opacity="0.57">
<path d="M43.7232 125.522C52.5617 125.522 59.7267 123.696 59.7267 121.445C59.7267 119.193 52.5617 117.368 43.7232 117.368C34.8847 117.368 27.7197 119.193 27.7197 121.445C27.7197 123.696 34.8847 125.522 43.7232 125.522Z" fill="url(#paint53_radial_1_254)"/>
</g>
<path d="M40.9358 94.9399C40.9358 94.9399 41.5667 101.88 42.1404 106.412C42.7141 110.943 42.4847 114.327 42.4847 114.327L47.0159 114.614L48.5074 94.5959L40.9358 94.9399Z" fill="url(#paint54_linear_1_254)"/>
<path d="M40.643 118.035C40.643 118.035 40.4911 119.019 40.0755 119.849C39.6597 120.679 39.3101 121.313 39.9001 122.012C40.4901 122.712 41.9323 122.384 42.9811 122.449C44.0299 122.515 44.2266 122.47 44.2266 122.47L44.3577 121.073C44.3577 121.073 43.4182 120.414 43.1995 120.12C42.9811 119.827 43.6366 118.035 43.6366 118.035H40.643Z" fill="url(#paint55_linear_1_254)"/>
<path d="M43.7616 120.63C43.7616 120.63 44.0626 121.029 43.9861 121.652C43.9095 122.274 43.6583 122.384 43.6583 122.384C43.6583 122.384 41.9867 122.438 41.2001 122.296C40.4134 122.154 39.9614 121.914 39.5864 122.111C39.2115 122.307 39.4191 122.755 40.5335 122.865C41.6479 122.974 44.7945 123.017 45.4717 123.017C46.149 123.017 46.3785 122.44 46.1055 121.817C45.8325 121.194 43.7616 120.63 43.7616 120.63Z" fill="#4C4340"/>
<path d="M44.3576 116.774C44.3576 116.774 44.962 117.564 45.2733 118.439C45.5845 119.314 45.6844 120.293 46.5974 120.351C47.5104 120.41 48.3875 118.855 49.1611 118.143C49.9346 117.432 50.0387 117.259 50.0387 117.259L48.2357 115.957C48.2357 115.957 47.9947 116.418 47.6321 116.373C47.2692 116.327 46.4304 114.614 46.4304 114.614L44.3576 116.774Z" fill="url(#paint56_linear_1_254)"/>
<path d="M47.6572 116.276C47.6899 116.276 48.6842 115.96 49.1866 117.445C48.8476 118.457 48.0586 119.15 47.5997 119.783C47.1409 120.417 46.3624 120.373 45.9691 119.947C45.554 119.554 45.7997 118.942 45.7997 118.942C45.7997 118.942 45.5047 119.499 45.592 119.958C45.6793 120.417 47.0538 121.311 48.0481 120.12C49.0424 118.929 50.3189 117.554 51.0221 116.615C52.1512 115.107 50.0826 114.614 49.4163 114.861C48.5836 115.169 47.6572 116.276 47.6572 116.276Z" fill="#4C4340"/>
<path d="M52.8665 95.1694C52.8665 95.1694 52.0633 100.848 50.687 105.322C49.3104 109.796 47.0483 117.762 47.6792 119.368C47.0236 119.783 45.4674 119.719 43.6319 118.859C41.7965 117.998 40.4505 118.867 40.4505 118.867C40.4505 118.867 40.4505 113.458 43.976 107.645C46.3707 103.697 44.7791 97.0626 45.2951 95.1697C47.4175 94.3665 52.8665 95.1694 52.8665 95.1694Z" fill="#4C4340"/>
<path d="M50.3998 68.7848C50.3998 68.7848 50.357 69.4156 50.1132 69.8173C49.8693 70.2188 49.4679 70.1616 49.4393 70.4482C49.4107 70.7351 48.7366 69.7313 48.7796 69.6739C48.8226 69.6165 49.8407 67.8099 49.8407 67.8099L50.3998 68.7848Z" fill="url(#paint57_linear_1_254)"/>
<path d="M49.4821 63.5004C49.4821 63.5004 47.7615 62.9841 46.5139 63.5004C45.2663 64.0167 45.1373 65.092 45.1803 66.3826C45.2233 67.6732 45.4168 69.2218 45.9976 69.8671C46.5784 70.5124 49.1811 70.1466 49.2026 70.0606C49.2241 69.9746 49.7619 68.2107 50.3642 67.5439C50.9665 66.8774 50.3212 63.9092 49.4821 63.5004Z" fill="#4C4340"/>
<path d="M45.1948 67.021C45.1948 67.021 45.7627 67.6348 47.4102 67.7237C49.0091 67.8097 50.0344 67.6243 50.6 67.0569C50.6351 65.2277 50.5066 63.8878 49.5889 63.4145C48.6711 62.9412 46.4138 62.8697 45.5676 63.9308C44.7215 64.992 45.1948 67.021 45.1948 67.021Z" fill="white"/>
<path d="M50.1567 69.2577C50.4184 69.3528 50.6156 69.0856 50.673 68.5264C50.7304 67.9671 50.9169 67.3218 50.802 67.0782C50.6872 66.8343 50.4884 67.156 50.1499 67.7442C49.8114 68.3326 49.6837 69.0856 50.1567 69.2577Z" fill="url(#paint58_linear_1_254)"/>
<path d="M36.8346 91.7565C36.8346 91.7565 36.5551 92.8822 36.9851 93.6995C37.4154 94.5168 37.5014 95.9149 37.3509 96.3022C37.2004 96.6895 36.656 96.3237 36.7455 95.8719C36.8349 95.4201 36.5336 94.8123 36.5336 94.8123C36.3616 95.1191 36.1463 96.431 36.7056 97.4421C36.9636 97.8938 36.4691 97.9583 36.2108 97.6786C35.9528 97.399 35.7019 96.1729 35.7734 95.3268C35.6586 95.9291 35.5909 97.0044 35.7611 97.4633C35.9313 97.9222 36.0747 98.252 35.8739 98.381C35.673 98.51 35.3576 98.209 35.2 97.4919C35.0421 96.775 35.1284 95.6994 35.1284 95.599C34.9276 96.0293 34.8416 97.0186 34.8704 97.3629C34.899 97.7071 35.0138 97.9937 34.9852 98.0942C34.9567 98.1946 34.469 98.3522 34.3544 97.4919C34.2395 96.6316 34.3974 95.685 34.4548 95.47C34.2109 95.8428 34.0245 96.775 34.0389 97.248C34.0533 97.7213 33.6805 97.4489 33.6516 96.9326C33.6231 96.4163 33.5512 95.5415 34.0531 94.3944C34.555 93.2472 34.7844 91.3401 34.7844 91.3401L36.8346 91.7565Z" fill="url(#paint59_linear_1_254)"/>
<path d="M56.958 91.7565C56.958 91.7565 57.2375 92.8822 56.8075 93.6995C56.3772 94.5168 56.2912 95.9149 56.4417 96.3022C56.5922 96.6895 57.1365 96.3237 57.0474 95.8719C56.958 95.4201 57.2593 94.8123 57.2593 94.8123C57.4313 95.1191 57.6465 96.431 57.0873 97.4421C56.8292 97.8938 57.3238 97.9583 57.582 97.6786C57.8401 97.399 58.091 96.1729 58.0194 95.3268C58.1343 95.9291 58.2019 97.0044 58.0317 97.4633C57.8616 97.9222 57.7181 98.252 57.919 98.381C58.1198 98.51 58.4353 98.209 58.5929 97.4919C58.7507 96.775 58.6644 95.6994 58.6644 95.599C58.8653 96.0293 58.9513 97.0186 58.9225 97.3629C58.8936 97.7071 58.779 97.9937 58.8076 98.0942C58.8362 98.1946 59.3239 98.3522 59.4385 97.4919C59.5533 96.6316 59.3955 95.685 59.3381 95.47C59.5819 95.8428 59.7684 96.775 59.7539 97.248C59.7395 97.7213 60.1124 97.4489 60.1412 96.9326C60.1698 96.4163 60.2416 95.5415 59.7398 94.3944C59.2379 93.2472 59.0085 91.3401 59.0085 91.3401L56.958 91.7565Z" fill="url(#paint60_linear_1_254)"/>
<path d="M45.7396 69.5447L49.6974 69.8027V70.9643C49.6974 70.9643 53.0099 72.1689 53.6552 73.4595C54.3005 74.7501 56.1074 80.0845 57.1397 82.2354C58.1723 84.3863 59.3766 90.1078 59.6779 91.2263C58.0003 92.646 56.1074 92.0867 56.1074 92.0867C56.1074 92.0867 54.3868 87.8278 54.0425 86.2792C53.6982 84.7306 52.7089 82.0634 52.7089 82.0634C52.7089 85.1606 52.7949 89.9378 53.0962 92.1955C53.3972 94.4529 53.3542 95.5284 53.2682 95.6574C50.472 96.905 43.5459 97.6363 40.1474 95.3132C40.3624 91.3554 40.5777 82.9667 40.8357 82.2784C38.8998 85.2036 38.9858 85.4189 38.6848 86.4082C38.3838 87.3976 37.9105 91.1833 37.9535 91.9577C36.5769 93.0332 33.8237 91.3124 33.8237 91.3124C33.8237 91.3124 34.684 86.8047 35.7596 83.1865C36.8352 79.5682 40.1474 74.2768 41.008 73.2445C41.8683 72.2119 45.5681 70.5343 45.5681 70.5343L45.7396 69.5447Z" fill="url(#paint61_linear_1_254)"/>
<path d="M53.5104 73.2279C53.5104 73.2279 52.2675 73.6782 51.8742 76.038C51.4809 78.3979 50.9381 88.5211 50.9381 88.5211C50.9381 88.5211 47.2357 88.8442 45.5594 87.7515C45.1068 80.8903 46.3678 75.5307 47.242 73.2277C48.1159 70.9247 49.3397 70.4671 50.1919 70.4994C51.0441 70.5316 53.5516 71.7724 53.5104 73.2279Z" fill="url(#paint62_linear_1_254)"/>
<path d="M52.5728 71.6224C52.5728 71.6224 51.0004 72.2247 49.8472 76.6965C49.2498 79.0131 49.3285 87.0724 49.3285 87.0724C49.3285 87.0724 46.875 87.3784 45.1987 86.2858C45.464 77.9278 46.3676 75.5304 47.2418 73.2277C48.1158 70.9247 49.3395 70.4671 50.1917 70.4994C51.0441 70.5314 52.5728 71.0448 52.5728 71.6224Z" fill="url(#paint63_linear_1_254)"/>
<path d="M53.524 46.7206C49.9294 49.7363 44.5709 49.267 41.5552 45.6723C38.5395 42.0777 39.0089 36.7191 42.6035 33.7035C43.4229 33.0162 44.3344 32.512 45.2883 32.1824C42.9315 32.1787 40.5606 32.9724 38.6137 34.6057C34.2267 38.2861 33.6537 44.8262 37.3341 49.2132C41.0145 53.6003 47.5546 54.1732 51.9416 50.4928C53.8885 48.8595 55.0824 46.6627 55.4885 44.3413C54.9985 45.2234 54.3435 46.0334 53.524 46.7206Z" fill="url(#paint64_linear_1_254)"/>
<path d="M155.548 0H155.328V24.5961H155.548V0Z" fill="#EDA900"/>
<path d="M159.617 31.3596C159.617 31.3596 160.34 29.9135 158.959 28.8836C157.579 27.8539 155.826 27.1965 155.454 26.2324C155.081 27.1965 153.328 27.8539 151.948 28.8836C150.568 29.9133 151.291 31.3596 151.291 31.3596C150.54 31.3596 149.932 31.9677 149.932 32.7181V35.2034V39.8233V42.3085C149.932 43.0587 150.54 43.667 151.291 43.667C151.291 43.667 150.567 45.1131 151.948 46.1428C153.328 47.1725 155.081 47.8299 155.454 48.794C155.826 47.8299 157.579 47.1725 158.959 46.1428C160.34 45.1131 159.617 43.667 159.617 43.667C160.367 43.667 160.975 43.0587 160.975 42.3085V39.8233V35.2034V32.7181C160.975 31.9677 160.367 31.3596 159.617 31.3596ZM157.586 40.6576C157.65 40.8171 157.839 41.4246 157.235 41.8753C156.533 42.3984 155.643 42.7325 155.454 43.222C155.264 42.7322 154.374 42.3984 153.673 41.8753C153.068 41.4243 153.258 40.8171 153.321 40.6576H153.326V34.3696H153.321C153.258 34.2101 153.068 33.6026 153.673 33.1518C154.374 32.6287 155.264 32.2947 155.454 31.8049C155.643 32.2947 156.533 32.6285 157.235 33.1518C157.839 33.6026 157.65 34.2101 157.586 34.3696H157.582V40.6576H157.586ZM150.541 41.4878C150.257 41.0769 150.346 40.5234 150.376 40.3781H150.378V34.6488H150.376C150.346 34.5035 150.257 33.95 150.541 33.5394C150.87 33.0627 151.287 32.7585 151.376 32.3122C151.464 32.7585 151.882 33.0627 152.211 33.5394C152.494 33.9503 152.405 34.5035 152.375 34.6488H152.373V40.3781H152.375C152.405 40.5234 152.494 41.0769 152.211 41.4878C151.882 41.9645 151.464 42.2686 151.376 42.7149C151.287 42.2686 150.87 41.9642 150.541 41.4878ZM160.531 40.3781C160.561 40.5234 160.65 41.0769 160.366 41.4878C160.038 41.9645 159.62 42.2686 159.532 42.7149C159.443 42.2686 159.025 41.9645 158.697 41.4878C158.413 41.0769 158.502 40.5234 158.532 40.3781H158.534V34.6488H158.532C158.502 34.5035 158.413 33.95 158.697 33.5394C159.026 33.0627 159.443 32.7585 159.532 32.3122C159.62 32.7585 160.038 33.0627 160.366 33.5394C160.65 33.9503 160.561 34.5035 160.531 34.6488H160.529V40.3781H160.531Z" fill="url(#paint65_linear_1_254)"/>
<path d="M155.454 49.5318C155.734 49.5318 155.961 49.3049 155.961 49.025C155.961 48.745 155.734 48.5181 155.454 48.5181C155.174 48.5181 154.947 48.745 154.947 49.025C154.947 49.3049 155.174 49.5318 155.454 49.5318Z" fill="#F3B701"/>
<path d="M155.016 49.9379C155.016 50.18 155.212 50.3761 155.454 50.3761C155.696 50.3761 155.892 50.18 155.892 49.9379C155.892 49.6959 155.696 49.4995 155.454 49.4995C155.212 49.4998 155.016 49.6959 155.016 49.9379Z" fill="#F3B701"/>
<path d="M155.263 48.7943C155.263 48.8913 155.342 48.9699 155.439 48.9699C155.536 48.9699 155.615 48.8913 155.615 48.7943C155.615 48.6973 155.536 48.6186 155.439 48.6186C155.342 48.6186 155.263 48.6973 155.263 48.7943Z" fill="#FFE000"/>
<path d="M155.263 49.7804C155.263 49.8774 155.342 49.9561 155.439 49.9561C155.536 49.9561 155.615 49.8774 155.615 49.7804C155.615 49.6834 155.536 49.6047 155.439 49.6047C155.342 49.6047 155.263 49.6834 155.263 49.7804Z" fill="#FFE000"/>
<path d="M154.9 24.6562C154.9 24.9622 155.148 25.2103 155.454 25.2103C155.76 25.2103 156.008 24.9622 156.008 24.6562C156.008 24.3502 155.759 24.1021 155.454 24.1021C155.148 24.1024 154.9 24.3502 154.9 24.6562Z" fill="#F3B701"/>
<path d="M155.454 26.4793C155.817 26.4793 156.112 26.1845 156.112 25.8208C156.112 25.4572 155.817 25.1624 155.454 25.1624C155.09 25.1624 154.795 25.4572 154.795 25.8208C154.795 26.1845 155.09 26.4793 155.454 26.4793Z" fill="#F3B701"/>
<path d="M155.246 24.4043C155.246 24.5105 155.332 24.5965 155.438 24.5965C155.544 24.5965 155.63 24.5105 155.63 24.4043C155.63 24.2981 155.544 24.2121 155.438 24.2121C155.332 24.2121 155.246 24.2981 155.246 24.4043Z" fill="#FFE000"/>
<path d="M155.168 25.5841C155.168 25.7298 155.286 25.8481 155.432 25.8481C155.578 25.8481 155.696 25.7298 155.696 25.5841C155.696 25.4383 155.578 25.32 155.432 25.32C155.286 25.32 155.168 25.438 155.168 25.5841Z" fill="#FFE000"/>
<path d="M171.116 0H170.879V33.8068H171.116V0Z" fill="#EDA900"/>
<path d="M175.527 41.1385C175.527 41.1385 176.311 39.5708 174.815 38.4545C173.318 37.338 171.418 36.6256 171.015 35.5807C170.611 36.6256 168.71 37.3383 167.214 38.4545C165.718 39.5708 166.502 41.1385 166.502 41.1385C165.688 41.1385 165.029 41.7977 165.029 42.6111V45.3053V50.3135V53.0078C165.029 53.8211 165.688 54.4803 166.502 54.4803C166.502 54.4803 165.718 56.0481 167.214 57.1643C168.711 58.2805 170.611 58.9932 171.015 60.0381C171.418 58.993 173.318 58.2805 174.815 57.1643C176.311 56.0481 175.527 54.4803 175.527 54.4803C176.341 54.4803 177 53.8211 177 53.0078V50.3135V45.3053V42.6111C177 41.7977 176.341 41.1385 175.527 41.1385ZM173.326 51.2176C173.395 51.3904 173.6 52.0489 172.945 52.5376C172.185 53.1048 171.22 53.4666 171.015 53.9976C170.809 53.4666 169.844 53.1048 169.084 52.5376C168.429 52.0489 168.634 51.3904 168.703 51.2176H168.708V44.4012H168.703C168.634 44.2284 168.429 43.5697 169.084 43.0812C169.844 42.5141 170.809 42.1522 171.015 41.6213C171.22 42.1522 172.185 42.5141 172.945 43.0812C173.6 43.57 173.395 44.2284 173.326 44.4012H173.321V51.2176H173.326ZM165.689 52.1175C165.382 51.6723 165.478 51.0721 165.51 50.9148H165.513V44.7041H165.51C165.478 44.5467 165.382 43.9465 165.689 43.5013C166.045 42.9845 166.498 42.6549 166.594 42.1711C166.69 42.6549 167.143 42.9848 167.499 43.5013C167.806 43.9465 167.71 44.5467 167.678 44.7041H167.676V50.9148H167.678C167.71 51.0721 167.806 51.6723 167.499 52.1175C167.143 52.6341 166.69 52.964 166.594 53.4477C166.498 52.964 166.045 52.6341 165.689 52.1175ZM176.519 50.9145C176.551 51.0719 176.647 51.6721 176.34 52.1173C175.984 52.6338 175.531 52.9637 175.435 53.4475C175.339 52.9637 174.886 52.6338 174.53 52.1173C174.223 51.6721 174.319 51.0719 174.351 50.9145H174.354V44.7038H174.351C174.319 44.5465 174.223 43.9463 174.53 43.501C174.886 42.9842 175.339 42.6546 175.435 42.1709C175.531 42.6546 175.984 42.9845 176.34 43.501C176.647 43.9463 176.551 44.5465 176.519 44.7038H176.516V50.9145H176.519Z" fill="url(#paint66_linear_1_254)"/>
<path d="M171.014 60.837C171.318 60.837 171.564 60.591 171.564 60.2876C171.564 59.9843 171.318 59.7383 171.014 59.7383C170.711 59.7383 170.465 59.9843 170.465 60.2876C170.465 60.591 170.711 60.837 171.014 60.837Z" fill="#F3B701"/>
<path d="M170.539 61.2778C170.539 61.5403 170.752 61.7529 171.015 61.7529C171.277 61.7529 171.49 61.5403 171.49 61.2778C171.49 61.0153 171.277 60.8027 171.015 60.8027C170.752 60.8027 170.539 61.0153 170.539 61.2778Z" fill="#F3B701"/>
<path d="M170.808 60.0381C170.808 60.1432 170.894 60.2287 170.999 60.2287C171.104 60.2287 171.19 60.1435 171.19 60.0381C171.19 59.9329 171.104 59.8474 170.999 59.8474C170.894 59.8474 170.808 59.9326 170.808 60.0381Z" fill="#FFE000"/>
<path d="M170.808 61.1068C170.808 61.2119 170.894 61.2974 170.999 61.2974C171.104 61.2974 171.19 61.2122 171.19 61.1068C171.19 61.0016 171.104 60.9162 170.999 60.9162C170.894 60.9164 170.808 61.0016 170.808 61.1068Z" fill="#FFE000"/>
<path d="M170.414 33.8719C170.414 34.2036 170.683 34.4724 171.015 34.4724C171.346 34.4724 171.615 34.2036 171.615 33.8719C171.615 33.5402 171.346 33.2714 171.015 33.2714C170.683 33.2714 170.414 33.5402 170.414 33.8719Z" fill="#F3B701"/>
<path d="M170.301 35.1337C170.301 35.5278 170.62 35.8474 171.015 35.8474C171.409 35.8474 171.728 35.5278 171.728 35.1337C171.728 34.7396 171.409 34.4199 171.015 34.4199C170.62 34.4199 170.301 34.7396 170.301 35.1337Z" fill="#F3B701"/>
<path d="M170.997 33.8064C171.112 33.8064 171.206 33.7132 171.206 33.5982C171.206 33.4832 171.112 33.39 170.997 33.39C170.882 33.39 170.789 33.4832 170.789 33.5982C170.789 33.7132 170.882 33.8064 170.997 33.8064Z" fill="#FFE000"/>
<path d="M170.705 34.877C170.705 35.0351 170.833 35.1633 170.991 35.1633C171.149 35.1633 171.278 35.0351 171.278 34.877C171.278 34.7189 171.149 34.5907 170.991 34.5907C170.833 34.5907 170.705 34.7191 170.705 34.877Z" fill="#FFE000"/>
<path d="M21.6719 0H21.4527V24.5961H21.6719V0Z" fill="#EDA900"/>
<path d="M16.0248 32.7181V35.2034V39.8233V42.3085C16.0248 43.0587 16.6329 43.667 17.3833 43.667C17.3833 43.667 16.6604 45.1131 18.0407 46.1428C19.4209 47.1725 21.1738 47.8299 21.5464 48.794C21.919 47.8299 23.6716 47.1725 25.0522 46.1428C26.4324 45.1131 25.7095 43.667 25.7095 43.667C26.4597 43.667 27.068 43.0587 27.068 42.3085V39.8233V35.2034V32.7181C27.068 31.968 26.4597 31.3596 25.7095 31.3596C25.7095 31.3596 26.4327 29.9135 25.0522 28.8836C23.6719 27.8539 21.919 27.1965 21.5464 26.2324C21.1738 27.1965 19.4212 27.8539 18.0407 28.8836C16.6604 29.9133 17.3833 31.3596 17.3833 31.3596C16.6331 31.3596 16.0248 31.9677 16.0248 32.7181ZM19.4186 40.6576V34.3696H19.4141C19.3501 34.2101 19.1611 33.6026 19.7655 33.1518C20.4666 32.6287 21.3571 32.2947 21.5464 31.8049C21.7357 32.2947 22.6262 32.6285 23.3274 33.1518C23.9317 33.6026 23.7424 34.2101 23.6787 34.3696H23.6743V40.6576H23.6787C23.7424 40.8171 23.9317 41.4246 23.3274 41.8753C22.6262 42.3984 21.7357 42.7325 21.5464 43.222C21.3571 42.7322 20.4666 42.3984 19.7655 41.8753C19.1611 41.4243 19.3504 40.8171 19.4141 40.6576H19.4186ZM25.6241 42.7147C25.5354 42.2684 25.1177 41.9642 24.7892 41.4875C24.5057 41.0766 24.5946 40.5231 24.6245 40.3778H24.6266V34.6485H24.6245C24.5946 34.5033 24.506 33.9498 24.7892 33.5391C25.118 33.0624 25.5354 32.7583 25.6241 32.312C25.7127 32.7583 26.1304 33.0624 26.4589 33.5391C26.7424 33.95 26.6535 34.5033 26.6236 34.6485H26.6215V40.3778H26.6236C26.6535 40.5231 26.7421 41.0766 26.4589 41.4875C26.1304 41.9642 25.7129 42.2686 25.6241 42.7147ZM16.4711 40.3781V34.6488H16.469C16.4391 34.5035 16.3504 33.95 16.6336 33.5394C16.9624 33.0627 17.3799 32.7585 17.4685 32.3122C17.5571 32.7585 17.9748 33.0627 18.3037 33.5394C18.5871 33.9503 18.4982 34.5035 18.4683 34.6488H18.4662V40.3781H18.4683C18.4982 40.5234 18.5868 41.0769 18.3037 41.4878C17.9748 41.9645 17.5574 42.2686 17.4685 42.7149C17.3799 42.2686 16.9624 41.9645 16.6336 41.4878C16.3502 41.0769 16.4391 40.5234 16.469 40.3781H16.4711Z" fill="url(#paint67_linear_1_254)"/>
<path d="M21.5464 49.5318C21.8263 49.5318 22.0532 49.3049 22.0532 49.025C22.0532 48.745 21.8263 48.5181 21.5464 48.5181C21.2664 48.5181 21.0395 48.745 21.0395 49.025C21.0395 49.3049 21.2664 49.5318 21.5464 49.5318Z" fill="#F3B701"/>
<path d="M21.9846 49.9379C21.9846 50.18 21.7885 50.3761 21.5464 50.3761C21.3044 50.3761 21.1083 50.18 21.1083 49.9379C21.1083 49.6959 21.3044 49.4995 21.5464 49.4995C21.7885 49.4998 21.9846 49.6959 21.9846 49.9379Z" fill="#F3B701"/>
<path d="M21.7367 48.7943C21.7367 48.8913 21.6581 48.9699 21.5611 48.9699C21.464 48.9699 21.3854 48.8913 21.3854 48.7943C21.3854 48.6973 21.464 48.6186 21.5611 48.6186C21.6578 48.6186 21.7367 48.6973 21.7367 48.7943Z" fill="#FFE000"/>
<path d="M21.7367 49.7804C21.7367 49.8774 21.6581 49.9561 21.5611 49.9561C21.464 49.9561 21.3854 49.8774 21.3854 49.7804C21.3854 49.6834 21.464 49.6047 21.5611 49.6047C21.6578 49.6047 21.7367 49.6834 21.7367 49.7804Z" fill="#FFE000"/>
<path d="M22.1003 24.6562C22.1003 24.9622 21.8523 25.2103 21.5463 25.2103C21.2403 25.2103 20.9925 24.9622 20.9925 24.6562C20.9925 24.3502 21.2405 24.1021 21.5463 24.1021C21.8523 24.1024 22.1003 24.3502 22.1003 24.6562Z" fill="#F3B701"/>
<path d="M21.5464 26.4793C21.91 26.4793 22.2048 26.1845 22.2048 25.8208C22.2048 25.4572 21.91 25.1624 21.5464 25.1624C21.1828 25.1624 20.888 25.4572 20.888 25.8208C20.888 26.1845 21.1828 26.4793 21.5464 26.4793Z" fill="#F3B701"/>
<path d="M21.7542 24.4043C21.7542 24.5105 21.6682 24.5965 21.562 24.5965C21.4558 24.5965 21.3698 24.5105 21.3698 24.4043C21.3698 24.2981 21.4558 24.2121 21.562 24.2121C21.6682 24.2121 21.7542 24.2981 21.7542 24.4043Z" fill="#FFE000"/>
<path d="M21.8322 25.5841C21.8322 25.7298 21.714 25.8481 21.5682 25.8481C21.4224 25.8481 21.3041 25.7298 21.3041 25.5841C21.3041 25.4383 21.4224 25.32 21.5682 25.32C21.714 25.32 21.8322 25.438 21.8322 25.5841Z" fill="#FFE000"/>
<path d="M6.12128 0H5.88372V33.8068H6.12128V0Z" fill="#EDA900"/>
<path d="M0 42.6111V45.3053V50.3135V53.0078C0 53.8211 0.659198 54.4803 1.47258 54.4803C1.47258 54.4803 0.688827 56.0481 2.18526 57.1643C3.6817 58.2805 5.58168 58.9932 5.98548 60.0381C6.38929 58.993 8.28953 58.2805 9.7857 57.1643C11.2821 56.0481 10.4981 54.4803 10.4981 54.4803C11.3115 54.4803 11.9707 53.8211 11.9707 53.0078V50.3135V45.3053V42.6111C11.9707 41.7977 11.3115 41.1385 10.4981 41.1385C10.4981 41.1385 11.2819 39.5708 9.7857 38.4545C8.28926 37.338 6.38929 36.6256 5.98548 35.5807C5.58168 36.6256 3.6817 37.3383 2.18526 38.4545C0.688827 39.5708 1.47258 41.1385 1.47258 41.1385C0.659198 41.1385 0 41.7977 0 42.6111ZM3.67881 51.2176V44.4012H3.67383C3.60461 44.2284 3.39956 43.5697 4.05456 43.0812C4.81471 42.5141 5.78017 42.1522 5.98522 41.6213C6.19027 42.1522 7.15573 42.5141 7.91588 43.0812C8.57114 43.57 8.36583 44.2284 8.29661 44.4012H8.29162V51.2176H8.29661C8.36583 51.3904 8.57088 52.0489 7.91588 52.5376C7.15573 53.1048 6.19053 53.4666 5.98522 53.9976C5.78017 53.4666 4.81471 53.1048 4.05456 52.5376C3.39956 52.0489 3.60461 51.3904 3.67383 51.2176H3.67881ZM10.4058 53.4477C10.3096 52.964 9.85702 52.6341 9.50068 52.1175C9.19363 51.6723 9.2896 51.0721 9.32211 50.9148H9.32447V44.7041H9.32211C9.2896 44.5467 9.19363 43.9465 9.50068 43.5013C9.85702 42.9845 10.3096 42.6549 10.4058 42.1711C10.5021 42.6549 10.9546 42.9848 11.311 43.5013C11.618 43.9465 11.5221 44.5467 11.4895 44.7041H11.4872V50.9148H11.4895C11.5221 51.0721 11.6183 51.6723 11.311 52.1175C10.9544 52.6341 10.5018 52.964 10.4058 53.4477ZM0.483516 50.9145V44.7038H0.481156C0.448642 44.5465 0.352673 43.9463 0.659722 43.501C1.01607 42.9842 1.46864 42.6546 1.56487 42.1709C1.6611 42.6546 2.11368 42.9845 2.47002 43.501C2.77707 43.9463 2.6811 44.5465 2.64859 44.7038H2.64623V50.9145H2.64859C2.6811 51.0719 2.77733 51.6721 2.47002 52.1173C2.11368 52.6338 1.6611 52.9637 1.56487 53.4475C1.46864 52.9637 1.01607 52.6338 0.659722 52.1173C0.352673 51.6721 0.448642 51.0719 0.481156 50.9145H0.483516Z" fill="url(#paint68_linear_1_254)"/>
<path d="M5.98555 60.837C6.28894 60.837 6.53488 60.591 6.53488 60.2876C6.53488 59.9843 6.28894 59.7383 5.98555 59.7383C5.68216 59.7383 5.43622 59.9843 5.43622 60.2876C5.43622 60.591 5.68216 60.837 5.98555 60.837Z" fill="#F3B701"/>
<path d="M6.46069 61.2778C6.46069 61.5403 6.24803 61.7529 5.98556 61.7529C5.72309 61.7529 5.51043 61.5403 5.51043 61.2778C5.51043 61.0153 5.72309 60.8027 5.98556 60.8027C6.24777 60.8027 6.46069 61.0153 6.46069 61.2778Z" fill="#F3B701"/>
<path d="M6.19154 60.0381C6.19154 60.1432 6.10632 60.2287 6.00092 60.2287C5.89577 60.2287 5.81029 60.1435 5.81029 60.0381C5.81029 59.9329 5.89551 59.8474 6.00092 59.8474C6.10632 59.8474 6.19154 59.9326 6.19154 60.0381Z" fill="#FFE000"/>
<path d="M6.19154 61.1068C6.19154 61.2119 6.10632 61.2974 6.00092 61.2974C5.89577 61.2974 5.81029 61.2122 5.81029 61.1068C5.81029 61.0016 5.89551 60.9162 6.00092 60.9162C6.10632 60.9164 6.19154 61.0016 6.19154 61.1068Z" fill="#FFE000"/>
<path d="M6.58595 33.8719C6.58595 34.2036 6.31719 34.4724 5.98549 34.4724C5.65379 34.4724 5.38503 34.2036 5.38503 33.8719C5.38503 33.5402 5.65379 33.2714 5.98549 33.2714C6.31692 33.2714 6.58595 33.5402 6.58595 33.8719Z" fill="#F3B701"/>
<path d="M6.69911 35.1337C6.69911 35.5278 6.37948 35.8474 5.98537 35.8474C5.59127 35.8474 5.27164 35.5278 5.27164 35.1337C5.27164 34.7396 5.59127 34.4199 5.98537 34.4199C6.37948 34.4199 6.69911 34.7396 6.69911 35.1337Z" fill="#F3B701"/>
<path d="M6.00252 33.8064C6.1175 33.8064 6.21071 33.7132 6.21071 33.5982C6.21071 33.4832 6.1175 33.39 6.00252 33.39C5.88753 33.39 5.79432 33.4832 5.79432 33.5982C5.79432 33.7132 5.88753 33.8064 6.00252 33.8064Z" fill="#FFE000"/>
<path d="M6.29514 34.877C6.29514 35.0351 6.16692 35.1633 6.00881 35.1633C5.8507 35.1633 5.72247 35.0351 5.72247 34.877C5.72247 34.7189 5.8507 34.5907 6.00881 34.5907C6.16718 34.5909 6.29514 34.7191 6.29514 34.877Z" fill="#FFE000"/>
<defs>
<linearGradient id="paint0_linear_1_254" x1="90.1638" y1="120.652" x2="90.1638" y2="21.005" gradientUnits="userSpaceOnUse">
<stop stop-color="#FDF6B9"/>
<stop offset="0.3652" stop-color="#FDF6BD"/>
<stop offset="0.7631" stop-color="#FDF8CB"/>
<stop offset="1" stop-color="#FDF9D6"/>
</linearGradient>
<linearGradient id="paint1_linear_1_254" x1="85.8307" y1="120.652" x2="85.8307" y2="21.0049" gradientUnits="userSpaceOnUse">
<stop stop-color="#FDE584"/>
<stop offset="0.4382" stop-color="#FDE78F"/>
<stop offset="1" stop-color="#FDEAA4"/>
</linearGradient>
<linearGradient id="paint2_linear_1_254" x1="84.4996" y1="34.1571" x2="46.7916" y2="34.1571" gradientUnits="userSpaceOnUse">
<stop stop-color="#FDF9D6"/>
<stop offset="0.023" stop-color="#FDF9D8"/>
<stop offset="0.3659" stop-color="#FEFCED"/>
<stop offset="0.6967" stop-color="#FFFEFB"/>
<stop offset="1" stop-color="white"/>
</linearGradient>
<linearGradient id="paint3_linear_1_254" x1="44.5504" y1="57.8542" x2="23.0962" y2="57.8542" gradientUnits="userSpaceOnUse">
<stop stop-color="#FDF9D6"/>
<stop offset="0.023" stop-color="#FDF9D8"/>
<stop offset="0.3659" stop-color="#FEFCED"/>
<stop offset="0.6967" stop-color="#FFFEFB"/>
<stop offset="1" stop-color="white"/>
</linearGradient>
<linearGradient id="paint4_linear_1_254" x1="108.521" y1="48.9743" x2="87.0664" y2="48.9743" gradientUnits="userSpaceOnUse">
<stop stop-color="#FDF9D6"/>
<stop offset="0.023" stop-color="#FDF9D8"/>
<stop offset="0.3659" stop-color="#FEFCED"/>
<stop offset="0.6967" stop-color="#FFFEFB"/>
<stop offset="1" stop-color="white"/>
</linearGradient>
<linearGradient id="paint5_linear_1_254" x1="149.162" y1="63.0101" x2="127.708" y2="63.0101" gradientUnits="userSpaceOnUse">
<stop stop-color="#FDF9D6"/>
<stop offset="0.023" stop-color="#FDF9D8"/>
<stop offset="0.3659" stop-color="#FEFCED"/>
<stop offset="0.6967" stop-color="#FFFEFB"/>
<stop offset="1" stop-color="white"/>
</linearGradient>
<linearGradient id="paint6_linear_1_254" x1="141.738" y1="43.6781" x2="120.007" y2="43.6781" gradientUnits="userSpaceOnUse">
<stop stop-color="#FDF9D6"/>
<stop offset="0.023" stop-color="#FDF9D8"/>
<stop offset="0.3659" stop-color="#FEFCED"/>
<stop offset="0.6967" stop-color="#FFFEFB"/>
<stop offset="1" stop-color="white"/>
</linearGradient>
<radialGradient id="paint7_radial_1_254" cx="0" cy="0" r="1" gradientUnits="userSpaceOnUse" gradientTransform="translate(124.819 103.572) scale(10.7722 2.09451)">
<stop stop-color="#D9B86E"/>
<stop offset="1" stop-color="#D9B86E" stop-opacity="0"/>
</radialGradient>
<linearGradient id="paint8_linear_1_254" x1="119.737" y1="101.517" x2="135.945" y2="72.2303" gradientUnits="userSpaceOnUse">
<stop stop-color="#688000"/>
<stop offset="1" stop-color="#A4C113"/>
</linearGradient>
<linearGradient id="paint9_linear_1_254" x1="128.989" y1="88.3033" x2="134.232" y2="99.9981" gradientUnits="userSpaceOnUse">
<stop stop-color="#A4C113"/>
<stop offset="1" stop-color="#8CA813"/>
</linearGradient>
<linearGradient id="paint10_linear_1_254" x1="122.474" y1="91.2663" x2="122.475" y2="66.1413" gradientUnits="userSpaceOnUse">
<stop stop-color="#8CA813"/>
<stop offset="1" stop-color="#CFDD13"/>
</linearGradient>
<radialGradient id="paint11_radial_1_254" cx="0" cy="0" r="1" gradientUnits="userSpaceOnUse" gradientTransform="translate(87.6622 107.079) scale(34.4712 3.2996)">
<stop stop-color="#D9B86E"/>
<stop offset="1" stop-color="#D9B86E" stop-opacity="0"/>
</radialGradient>
<radialGradient id="paint12_radial_1_254" cx="0" cy="0" r="1" gradientUnits="userSpaceOnUse" gradientTransform="translate(111.68 105.582) scale(27.0039 3.29977)">
<stop stop-color="#D9B86E"/>
<stop offset="1" stop-color="#D9B86E" stop-opacity="0"/>
</radialGradient>
<radialGradient id="paint13_radial_1_254" cx="0" cy="0" r="1" gradientUnits="userSpaceOnUse" gradientTransform="translate(63.2569 105.582) scale(27.0039 3.29977)">
<stop stop-color="#D9B86E"/>
<stop offset="1" stop-color="#D9B86E" stop-opacity="0"/>
</radialGradient>
<linearGradient id="paint14_linear_1_254" x1="67.7037" y1="66.882" x2="58.0861" y2="66.882" gradientUnits="userSpaceOnUse">
<stop stop-color="#664EA8"/>
<stop offset="1" stop-color="#C18CED"/>
</linearGradient>
<radialGradient id="paint15_radial_1_254" cx="0" cy="0" r="1" gradientUnits="userSpaceOnUse" gradientTransform="translate(62.9809 51.1439) rotate(180) scale(7.11317 7.11317)">
<stop stop-color="#FFE000"/>
<stop offset="1" stop-color="#FF9F00"/>
</radialGradient>
<linearGradient id="paint16_linear_1_254" x1="62.7698" y1="43.1231" x2="63.0201" y2="43.1231" gradientUnits="userSpaceOnUse">
<stop stop-color="#FFD700"/>
<stop offset="1" stop-color="#FFE000"/>
</linearGradient>
<linearGradient id="paint17_linear_1_254" x1="62.3218" y1="46.8531" x2="63.4681" y2="46.0174" gradientUnits="userSpaceOnUse">
<stop stop-color="#FF9F00"/>
<stop offset="1" stop-color="#FFE000"/>
</linearGradient>
<linearGradient id="paint18_linear_1_254" x1="68.9246" y1="54.4078" x2="56.8653" y2="54.4078" gradientUnits="userSpaceOnUse">
<stop stop-color="#FF9F00"/>
<stop offset="1" stop-color="#FFE000"/>
</linearGradient>
<linearGradient id="paint19_linear_1_254" x1="68.9246" y1="66.1732" x2="56.8653" y2="66.1732" gradientUnits="userSpaceOnUse">
<stop stop-color="#FF9F00"/>
<stop offset="1" stop-color="#FFE000"/>
</linearGradient>
<linearGradient id="paint20_linear_1_254" x1="72.8313" y1="91.8655" x2="52.9586" y2="91.8655" gradientUnits="userSpaceOnUse">
<stop stop-color="#563D99"/>
<stop offset="1" stop-color="#C18CED"/>
</linearGradient>
<linearGradient id="paint21_linear_1_254" x1="73.8743" y1="79.7831" x2="51.9157" y2="79.7831" gradientUnits="userSpaceOnUse">
<stop stop-color="#FF9F00"/>
<stop offset="1" stop-color="#FFE000"/>
</linearGradient>
<linearGradient id="paint22_linear_1_254" x1="73.8741" y1="102.864" x2="51.9156" y2="102.864" gradientUnits="userSpaceOnUse">
<stop stop-color="#FF9F00"/>
<stop offset="1" stop-color="#FFE000"/>
</linearGradient>
<linearGradient id="paint23_linear_1_254" x1="75.336" y1="104.647" x2="50.4538" y2="104.647" gradientUnits="userSpaceOnUse">
<stop stop-color="#FF7C00"/>
<stop offset="0.2276" stop-color="#FF8000"/>
<stop offset="0.4759" stop-color="#FF8E00"/>
<stop offset="0.7341" stop-color="#FFA300"/>
<stop offset="0.9975" stop-color="#FFC200"/>
<stop offset="1" stop-color="#FFC200"/>
</linearGradient>
<linearGradient id="paint24_linear_1_254" x1="107.621" y1="66.882" x2="117.238" y2="66.882" gradientUnits="userSpaceOnUse">
<stop stop-color="#664EA8"/>
<stop offset="1" stop-color="#C18CED"/>
</linearGradient>
<radialGradient id="paint25_radial_1_254" cx="0" cy="0" r="1" gradientUnits="userSpaceOnUse" gradientTransform="translate(112.344 51.1439) scale(7.11318 7.11317)">
<stop stop-color="#FFE000"/>
<stop offset="1" stop-color="#FF9F00"/>
</radialGradient>
<linearGradient id="paint26_linear_1_254" x1="112.305" y1="43.1231" x2="112.555" y2="43.1231" gradientUnits="userSpaceOnUse">
<stop stop-color="#FFD700"/>
<stop offset="1" stop-color="#FFE000"/>
</linearGradient>
<linearGradient id="paint27_linear_1_254" x1="111.856" y1="46.8531" x2="113.003" y2="46.0174" gradientUnits="userSpaceOnUse">
<stop stop-color="#FF9F00"/>
<stop offset="1" stop-color="#FFE000"/>
</linearGradient>
<linearGradient id="paint28_linear_1_254" x1="106.4" y1="54.4078" x2="118.459" y2="54.4078" gradientUnits="userSpaceOnUse">
<stop stop-color="#FF9F00"/>
<stop offset="1" stop-color="#FFE000"/>
</linearGradient>
<linearGradient id="paint29_linear_1_254" x1="106.4" y1="66.1732" x2="118.459" y2="66.1732" gradientUnits="userSpaceOnUse">
<stop stop-color="#FF9F00"/>
<stop offset="1" stop-color="#FFE000"/>
</linearGradient>
<linearGradient id="paint30_linear_1_254" x1="102.493" y1="91.8655" x2="122.366" y2="91.8655" gradientUnits="userSpaceOnUse">
<stop stop-color="#664EA8"/>
<stop offset="1" stop-color="#C18CED"/>
</linearGradient>
<linearGradient id="paint31_linear_1_254" x1="101.45" y1="79.783" x2="123.409" y2="79.783" gradientUnits="userSpaceOnUse">
<stop stop-color="#FF9F00"/>
<stop offset="1" stop-color="#FFE000"/>
</linearGradient>
<linearGradient id="paint32_linear_1_254" x1="101.45" y1="102.864" x2="123.409" y2="102.864" gradientUnits="userSpaceOnUse">
<stop stop-color="#FF9F00"/>
<stop offset="1" stop-color="#FFE000"/>
</linearGradient>
<linearGradient id="paint33_linear_1_254" x1="99.9885" y1="104.647" x2="124.871" y2="104.647" gradientUnits="userSpaceOnUse">
<stop stop-color="#FF7C00"/>
<stop offset="0.2276" stop-color="#FF8000"/>
<stop offset="0.4759" stop-color="#FF8E00"/>
<stop offset="0.7341" stop-color="#FFA300"/>
<stop offset="0.9975" stop-color="#FFC200"/>
<stop offset="1" stop-color="#FFC200"/>
</linearGradient>
<linearGradient id="paint34_linear_1_254" x1="71.081" y1="57.0007" x2="104.927" y2="57.0007" gradientUnits="userSpaceOnUse">
<stop stop-color="#FF9F00"/>
<stop offset="1" stop-color="#FFE000"/>
</linearGradient>
<linearGradient id="paint35_linear_1_254" x1="88.0038" y1="65.8384" x2="88.0038" y2="48.1631" gradientUnits="userSpaceOnUse">
<stop stop-color="#FFD700"/>
<stop offset="1" stop-color="#FFE000"/>
</linearGradient>
<linearGradient id="paint36_linear_1_254" x1="87.412" y1="48.5084" x2="88.5956" y2="47.6454" gradientUnits="userSpaceOnUse">
<stop stop-color="#FF9F00"/>
<stop offset="1" stop-color="#FFE000"/>
</linearGradient>
<linearGradient id="paint37_linear_1_254" x1="87.6177" y1="47.2632" x2="88.3901" y2="46.7001" gradientUnits="userSpaceOnUse">
<stop stop-color="#FF9F00"/>
<stop offset="1" stop-color="#FFE000"/>
</linearGradient>
<linearGradient id="paint38_linear_1_254" x1="84.2942" y1="42.9065" x2="91.7136" y2="42.9065" gradientUnits="userSpaceOnUse">
<stop stop-color="#FFD700"/>
<stop offset="1" stop-color="#FFE000"/>
</linearGradient>
<linearGradient id="paint39_linear_1_254" x1="84.9576" y1="42.7084" x2="91.0501" y2="42.7084" gradientUnits="userSpaceOnUse">
<stop stop-color="#FF9F00"/>
<stop offset="1" stop-color="#FFE000"/>
</linearGradient>
<linearGradient id="paint40_linear_1_254" x1="72.0842" y1="85.0992" x2="103.924" y2="85.0992" gradientUnits="userSpaceOnUse">
<stop stop-color="#664EA8"/>
<stop offset="1" stop-color="#C18CED"/>
</linearGradient>
<linearGradient id="paint41_linear_1_254" x1="70.4132" y1="66.9455" x2="105.595" y2="66.9455" gradientUnits="userSpaceOnUse">
<stop stop-color="#FF9F00"/>
<stop offset="1" stop-color="#FFE000"/>
</linearGradient>
<linearGradient id="paint42_linear_1_254" x1="70.4132" y1="102.72" x2="105.595" y2="102.72" gradientUnits="userSpaceOnUse">
<stop stop-color="#FF9F00"/>
<stop offset="1" stop-color="#FFE000"/>
</linearGradient>
<linearGradient id="paint43_linear_1_254" x1="68.0711" y1="105.578" x2="107.937" y2="105.578" gradientUnits="userSpaceOnUse">
<stop stop-color="#FF7C00"/>
<stop offset="0.2276" stop-color="#FF8000"/>
<stop offset="0.4759" stop-color="#FF8E00"/>
<stop offset="0.7341" stop-color="#FFA300"/>
<stop offset="0.9975" stop-color="#FFC200"/>
<stop offset="1" stop-color="#FFC200"/>
</linearGradient>
<radialGradient id="paint44_radial_1_254" cx="0" cy="0" r="1" gradientUnits="userSpaceOnUse" gradientTransform="translate(53.6901 106.457) scale(14.1772 2.00049)">
<stop stop-color="#D9B86E"/>
<stop offset="1" stop-color="#D9B86E" stop-opacity="0"/>
</radialGradient>
<linearGradient id="paint45_linear_1_254" x1="53.3042" y1="101.444" x2="70.0533" y2="101.444" gradientUnits="userSpaceOnUse">
<stop stop-color="#6A9110"/>
<stop offset="0.2693" stop-color="#6E9410"/>
<stop offset="0.527" stop-color="#799E11"/>
<stop offset="0.779" stop-color="#8DAE12"/>
<stop offset="1" stop-color="#A4C113"/>
</linearGradient>
<linearGradient id="paint46_linear_1_254" x1="53.3042" y1="101.485" x2="70.0533" y2="101.485" gradientUnits="userSpaceOnUse">
<stop stop-color="#6A9110"/>
<stop offset="1" stop-color="#A4C113"/>
</linearGradient>
<linearGradient id="paint47_linear_1_254" x1="50.7075" y1="102.278" x2="64.8766" y2="93.3479" gradientUnits="userSpaceOnUse">
<stop stop-color="#6A9110"/>
<stop offset="0.2693" stop-color="#6E9410"/>
<stop offset="0.527" stop-color="#799E11"/>
<stop offset="0.779" stop-color="#8DAE12"/>
<stop offset="1" stop-color="#A4C113"/>
</linearGradient>
<linearGradient id="paint48_linear_1_254" x1="50.7302" y1="102.314" x2="64.8994" y2="93.3836" gradientUnits="userSpaceOnUse">
<stop stop-color="#6A9110"/>
<stop offset="1" stop-color="#A4C113"/>
</linearGradient>
<linearGradient id="paint49_linear_1_254" x1="53.7947" y1="102.837" x2="41.707" y2="102.837" gradientUnits="userSpaceOnUse">
<stop stop-color="#6A9110"/>
<stop offset="0.2693" stop-color="#6E9410"/>
<stop offset="0.527" stop-color="#799E11"/>
<stop offset="0.779" stop-color="#8DAE12"/>
<stop offset="1" stop-color="#A4C113"/>
</linearGradient>
<linearGradient id="paint50_linear_1_254" x1="53.7947" y1="102.868" x2="41.707" y2="102.868" gradientUnits="userSpaceOnUse">
<stop stop-color="#6A9110"/>
<stop offset="1" stop-color="#A4C113"/>
</linearGradient>
<linearGradient id="paint51_linear_1_254" x1="55.6687" y1="103.44" x2="45.4429" y2="96.9949" gradientUnits="userSpaceOnUse">
<stop stop-color="#6A9110"/>
<stop offset="0.2693" stop-color="#6E9410"/>
<stop offset="0.527" stop-color="#799E11"/>
<stop offset="0.779" stop-color="#8DAE12"/>
<stop offset="1" stop-color="#A4C113"/>
</linearGradient>
<linearGradient id="paint52_linear_1_254" x1="55.6525" y1="103.466" x2="45.4267" y2="97.0206" gradientUnits="userSpaceOnUse">
<stop stop-color="#6A9110"/>
<stop offset="1" stop-color="#A4C113"/>
</linearGradient>
<radialGradient id="paint53_radial_1_254" cx="0" cy="0" r="1" gradientUnits="userSpaceOnUse" gradientTransform="translate(43.723 121.447) scale(15.3017 3.97384)">
<stop stop-color="#D9B86E"/>
<stop offset="1" stop-color="#D9B86E" stop-opacity="0"/>
</radialGradient>
<linearGradient id="paint54_linear_1_254" x1="40.9357" y1="104.605" x2="48.5071" y2="104.605" gradientUnits="userSpaceOnUse">
<stop stop-color="#38312F"/>
<stop offset="0.0397" stop-color="#393230"/>
<stop offset="0.5527" stop-color="#473F3C"/>
<stop offset="1" stop-color="#4C4340"/>
</linearGradient>
<linearGradient id="paint55_linear_1_254" x1="41.9721" y1="122.485" x2="41.9721" y2="118.035" gradientUnits="userSpaceOnUse">
<stop stop-color="#FFD188"/>
<stop offset="0.3271" stop-color="#FFCC88"/>
<stop offset="0.7019" stop-color="#FFBE88"/>
<stop offset="1" stop-color="#FFAE88"/>
</linearGradient>
<linearGradient id="paint56_linear_1_254" x1="48.4006" y1="119.05" x2="45.1586" y2="115.939" gradientUnits="userSpaceOnUse">
<stop stop-color="#FFD188"/>
<stop offset="0.3271" stop-color="#FFCC88"/>
<stop offset="0.7019" stop-color="#FFBE88"/>
<stop offset="1" stop-color="#FFAE88"/>
</linearGradient>
<linearGradient id="paint57_linear_1_254" x1="48.7775" y1="69.1546" x2="50.3996" y2="69.1546" gradientUnits="userSpaceOnUse">
<stop stop-color="#FFD188"/>
<stop offset="0.3271" stop-color="#FFCC88"/>
<stop offset="0.7019" stop-color="#FFBE88"/>
<stop offset="1" stop-color="#FFAE88"/>
</linearGradient>
<linearGradient id="paint58_linear_1_254" x1="49.8472" y1="68.1364" x2="50.8387" y2="68.1364" gradientUnits="userSpaceOnUse">
<stop stop-color="#FFD188"/>
<stop offset="0.3271" stop-color="#FFCC88"/>
<stop offset="0.7019" stop-color="#FFBE88"/>
<stop offset="1" stop-color="#FFAE88"/>
</linearGradient>
<linearGradient id="paint59_linear_1_254" x1="35.5251" y1="98.4104" x2="35.5251" y2="91.3406" gradientUnits="userSpaceOnUse">
<stop stop-color="#FFD188"/>
<stop offset="0.3271" stop-color="#FFCC88"/>
<stop offset="0.7019" stop-color="#FFBE88"/>
<stop offset="1" stop-color="#FFAE88"/>
</linearGradient>
<linearGradient id="paint60_linear_1_254" x1="58.2676" y1="98.4104" x2="58.2676" y2="91.3406" gradientUnits="userSpaceOnUse">
<stop stop-color="#FFD188"/>
<stop offset="0.3271" stop-color="#FFCC88"/>
<stop offset="0.7019" stop-color="#FFBE88"/>
<stop offset="1" stop-color="#FFAE88"/>
</linearGradient>
<linearGradient id="paint61_linear_1_254" x1="33.8234" y1="83.1863" x2="59.6777" y2="83.1863" gradientUnits="userSpaceOnUse">
<stop stop-color="#5269D1"/>
<stop offset="0.1007" stop-color="#4F78D8"/>
<stop offset="0.3461" stop-color="#4798E5"/>
<stop offset="0.5831" stop-color="#42AFEF"/>
<stop offset="0.806" stop-color="#3FBDF5"/>
<stop offset="1" stop-color="#3EC2F7"/>
</linearGradient>
<linearGradient id="paint62_linear_1_254" x1="49.4876" y1="88.5658" x2="49.4876" y2="70.498" gradientUnits="userSpaceOnUse">
<stop stop-color="#FF8B24"/>
<stop offset="0.2546" stop-color="#FF8E23"/>
<stop offset="0.4606" stop-color="#FF981E"/>
<stop offset="0.6496" stop-color="#FFA917"/>
<stop offset="0.8273" stop-color="#FFC10D"/>
<stop offset="0.9975" stop-color="#FFDF00"/>
<stop offset="1" stop-color="#FFE000"/>
</linearGradient>
<linearGradient id="paint63_linear_1_254" x1="48.8859" y1="87.1119" x2="48.8859" y2="70.4977" gradientUnits="userSpaceOnUse">
<stop stop-color="#FF9F40"/>
<stop offset="1" stop-color="#FFE000"/>
</linearGradient>
<linearGradient id="paint64_linear_1_254" x1="45.1989" y1="52.9183" x2="45.1989" y2="32.1824" gradientUnits="userSpaceOnUse">
<stop stop-color="#FF9F00"/>
<stop offset="0.0293" stop-color="#FFA500"/>
<stop offset="0.1803" stop-color="#FFC200"/>
<stop offset="0.3425" stop-color="#FFD800"/>
<stop offset="0.5188" stop-color="#FFE800"/>
<stop offset="0.7199" stop-color="#FFF100"/>
<stop offset="1" stop-color="#FFF400"/>
</linearGradient>
<linearGradient id="paint65_linear_1_254" x1="155.454" y1="48.7944" x2="155.454" y2="26.2325" gradientUnits="userSpaceOnUse">
<stop stop-color="#FF9F00"/>
<stop offset="1" stop-color="#FFE000"/>
</linearGradient>
<linearGradient id="paint66_linear_1_254" x1="171.015" y1="60.038" x2="171.015" y2="35.5805" gradientUnits="userSpaceOnUse">
<stop stop-color="#FF9F00"/>
<stop offset="1" stop-color="#FFE000"/>
</linearGradient>
<linearGradient id="paint67_linear_1_254" x1="21.5464" y1="48.7944" x2="21.5464" y2="26.2325" gradientUnits="userSpaceOnUse">
<stop stop-color="#FF9F00"/>
<stop offset="1" stop-color="#FFE000"/>
</linearGradient>
<linearGradient id="paint68_linear_1_254" x1="5.9854" y1="60.038" x2="5.9854" y2="35.5805" gradientUnits="userSpaceOnUse">
<stop stop-color="#FF9F00"/>
<stop offset="1" stop-color="#FFE000"/>
</linearGradient>
</defs>
</svg>
