<svg width="100" height="69" viewBox="0 0 100 69" fill="none" xmlns="http://www.w3.org/2000/svg">
<mask id="mask0_1_38" style="mask-type:luminance" maskUnits="userSpaceOnUse" x="-2" y="-15" width="121" height="101">
<path d="M118.99 -14.4575L-1.07199 -14.4575L-1.07199 85.5943L118.99 85.5943L118.99 -14.4575Z" fill="white"/>
</mask>
<g mask="url(#mask0_1_38)">
<path d="M2.84618 41.7287L0.176563 43.3439L2.90268 44.8589L2.84618 41.7287Z" fill="#22A5AD"/>
<path d="M36.9933 65.0122L37.8337 64.5048L37.8266 64.4977L36.9933 65.0122Z" fill="#6B4900"/>
<path d="M36.4071 54.4496L2.74731 35.6756L36.4071 54.4496Z" fill="#A5A5A5"/>
<path d="M36.7955 53.5348L91.4944 20.5178L54.6989 1.10181e-09L-6.64924e-10 33.0099L36.7955 53.5348Z" fill="#22A5AD"/>
<path d="M36.7955 53.5348L37.6713 54.9999L38.6459 54.3996L92.3631 21.9828L91.4944 20.5178L36.7955 53.5348Z" fill="#0E9396"/>
<path d="M44.536 63.5329L43.8509 69L98.5498 35.9901L99.2349 30.5229L44.536 63.5329Z" fill="#0E9396"/>
<path d="M36.5625 63.6329L37.7984 62.8754L39.2321 65.2838L42.9822 67.3777L43.5331 62.9755L42.8269 57.8657L39.0696 55.7717L37.6925 56.6222L36.4071 54.4496L2.74731 35.6756L2.84618 41.7287L2.90268 44.8589L36.5625 63.6329Z" fill="#FFE7B2"/>
<path d="M43.6532 57.1939L44.536 63.5329L99.2349 30.5229L98.3521 24.1839L43.6532 57.1939Z" fill="#0E9396"/>
<path d="M44.536 63.5329L43.6532 57.1939L38.6459 54.3996L37.6713 54.9999L36.7955 53.5348L0 33.0099L0.00706237 33.5817L0.0211877 34.1534L2.7473 35.6756L36.4071 54.4496L37.6924 56.6222L39.0696 55.7717L42.8269 57.8657L43.5331 62.9754L42.9822 67.3777L39.2321 65.2838L37.7984 62.8754L36.5625 63.6329L2.90268 44.8589L0.176562 43.3439L0.183624 43.9156L0.190687 44.4873L36.9933 65.0122L37.8266 64.4977L37.8337 64.5048L38.8436 66.2057L43.8509 69L44.536 63.5329Z" fill="#048484"/>
<path d="M38.6459 54.3996L43.6532 57.1939L98.3521 24.1839L93.3448 21.3896L92.3631 21.9828L38.6459 54.3996Z" fill="#209DA5"/>
<g opacity="0.7">
<path d="M53.6254 27.1783C53.6325 27.1998 53.6466 27.2284 53.6537 27.2498C53.4559 27.2927 53.2652 27.3499 53.0604 27.3713C52.2906 27.4785 51.6055 27.6715 50.984 27.9502C50.8075 28.0288 50.645 28.1288 50.532 28.2432C50.4685 28.3004 50.4685 28.4219 50.532 28.479C50.532 28.479 50.5391 28.4862 50.5462 28.4862C50.6097 28.5219 50.7792 28.5291 50.8993 28.5219C51.0405 28.5219 51.1747 28.4862 51.3089 28.4719C51.323 28.4862 51.3372 28.4933 51.3513 28.5076C51.2807 28.5648 51.2312 28.6434 51.1323 28.672C50.8357 28.7649 50.532 28.8792 50.2072 28.9221C49.96 28.9507 49.7552 28.915 49.6139 28.8364C49.4374 28.7363 49.3809 28.5648 49.5009 28.3933C49.6916 28.1145 50.0588 27.9216 50.4614 27.7572C51.2877 27.4142 52.22 27.2284 53.2299 27.1712C53.3641 27.1641 53.4983 27.1783 53.6254 27.1783Z" fill="white"/>
<path d="M60.6738 22.7832C60.6879 22.7975 60.6949 22.819 60.7091 22.8332C60.5466 22.8833 60.3842 22.9476 60.2147 22.9905C59.5861 23.1548 58.9858 23.3407 58.4773 23.6122C58.3573 23.6765 58.2443 23.748 58.1736 23.8338C58.1313 23.8766 58.1454 23.9695 58.1948 24.0053C58.2584 24.041 58.3926 24.0482 58.4844 24.041C58.6256 24.0339 58.7669 23.9981 58.9717 23.9624C58.7528 24.2697 57.8699 24.4984 57.4462 24.3912C57.3826 24.3769 57.3191 24.3483 57.2696 24.3197C57.1213 24.234 57.0648 24.0982 57.1849 23.9767C57.3473 23.8123 57.5592 23.648 57.8134 23.5193C58.555 23.1477 59.4166 22.919 60.363 22.7904C60.4619 22.7832 60.5678 22.7904 60.6738 22.7832Z" fill="white"/>
<path d="M70.6742 14.6004L82.2849 21.3825L75.5756 25.3274C75.3496 25.0701 75.0953 24.8128 74.8058 24.5699C75.9287 23.5622 76.4231 22.3473 76.1759 21.1895C75.7945 19.3958 73.9371 18.1165 72.4398 17.0874C72.3198 17.0017 72.2068 16.923 72.0938 16.8516C71.6347 16.53 71.0697 16.1155 70.7237 15.7296C70.427 15.3937 70.4623 15.2722 70.4694 15.265L70.6742 14.6004ZM76.2748 24.1411L80.9643 21.3825L73.81 17.2018C75.2295 18.2094 76.7409 19.4458 77.1011 21.1324C77.32 22.1543 77.0234 23.1977 76.2748 24.1411Z" fill="white"/>
<path d="M33.9705 27.1283C34.0058 27.1498 34.02 27.1784 34.027 27.2284C34.0341 27.5357 34.0623 27.8501 34.0553 28.1574C34.0553 28.3718 33.9281 28.4647 33.575 28.5005C33.1795 28.5433 32.784 28.5648 32.3885 28.5934C32.2967 28.6005 32.2332 28.5862 32.1908 28.5648C32.1413 28.5362 32.1202 28.4862 32.1202 28.4362C32.099 28.1217 32.0919 27.8073 32.0919 27.4928C32.0919 27.4356 32.1413 27.3856 32.1696 27.3213C32.3179 27.2927 32.445 27.2498 32.5863 27.2355C32.9747 27.1855 33.3773 27.1498 33.7657 27.1069C33.8575 27.0997 33.9211 27.1069 33.9705 27.1283Z" fill="white"/>
<path d="M37.8266 28.1574C37.8337 28.1717 37.8478 28.1932 37.862 28.2075C37.756 28.2503 37.6642 28.3004 37.5512 28.3432C37.0851 28.5148 36.5836 28.6648 36.1528 28.8649C35.8915 28.9864 35.7008 29.1722 35.5455 29.3438C35.4678 29.4367 35.4607 29.4938 35.5313 29.5367C35.5878 29.5724 35.7008 29.5867 35.8562 29.5796C35.9904 29.5725 36.1175 29.5582 36.2729 29.551C36.0681 29.7368 35.2135 29.9584 34.8957 29.9083C34.818 29.9012 34.7686 29.8798 34.7262 29.8583C34.6415 29.8083 34.6273 29.7297 34.6344 29.6439C34.6768 29.2794 34.9663 28.9936 35.4325 28.7649C36.0186 28.479 36.6896 28.2932 37.417 28.1717C37.5371 28.1503 37.6854 28.1574 37.8266 28.1574Z" fill="white"/>
<path d="M34.5355 25.8419C34.4084 25.8991 34.2883 25.9706 34.14 26.0063C34.0553 26.0278 33.9281 25.9992 33.8222 25.9849C33.6527 25.9634 33.4832 25.9349 33.3208 25.9063C31.6823 25.6133 31.6893 25.5918 29.959 26.285C29.6765 26.3994 29.4293 26.5495 29.1892 26.6924C29.0621 26.7639 28.9632 26.8568 28.8855 26.9568C28.8361 27.014 28.8079 27.114 28.8573 27.1498C28.935 27.1926 29.0833 27.1998 29.2033 27.1998C29.3517 27.1998 29.5 27.1712 29.6483 27.1569C29.6553 27.1784 29.6624 27.1926 29.6765 27.2141C29.2952 27.4213 28.8714 27.5643 28.3276 27.5428C28.2146 27.5357 28.1157 27.5142 28.0451 27.4714C27.9533 27.4142 27.918 27.3356 27.9745 27.2498C28.1157 27.0354 28.2852 26.8139 28.5254 26.6352C29.1186 26.2207 29.8955 25.9349 30.7288 25.7133C30.8136 25.6919 30.8772 25.649 30.9548 25.6133C30.8842 25.5775 30.8207 25.5275 30.7359 25.5132C30.3898 25.4489 30.0367 25.3917 29.6836 25.3345C29.5847 25.3202 29.4788 25.3131 29.394 25.2845C29.281 25.2488 29.1892 25.1916 29.0903 25.1416C29.2245 25.0987 29.3517 25.0129 29.4858 25.0129C29.7189 25.0058 29.959 25.0415 30.185 25.0773C31.534 25.2845 32.8829 25.4918 34.2318 25.7062C34.2954 25.7133 34.3448 25.7419 34.4013 25.7705C34.4155 25.7776 34.4296 25.7848 34.4437 25.7991C34.4578 25.8062 34.472 25.8134 34.4861 25.8205C34.5002 25.8205 34.5143 25.8348 34.5355 25.8419Z" fill="white"/>
<path d="M40.242 16.3013C40.2985 16.5157 40.0654 16.7086 39.6911 16.7301C39.6346 16.7301 39.5569 16.7086 39.5004 16.6729C39.4722 16.6586 39.451 16.6372 39.4369 16.6229C39.3663 16.5371 39.3451 16.4371 39.3027 16.3442C38.9919 16.3728 38.6741 16.4013 38.3634 16.4228C37.0144 16.5157 35.715 16.3585 34.4296 16.1369C34.3801 16.1298 34.3307 16.1083 34.2883 16.0797C34.2601 16.0655 34.2389 16.044 34.2106 16.0297C34.1824 16.0154 34.1612 15.994 34.133 15.9797C34.1259 15.9797 34.1188 15.9725 34.1118 15.9725C34.246 15.9511 34.3801 15.9082 34.5002 15.9154C35.0864 15.9726 35.6655 16.0512 36.2446 16.1083C37.078 16.1869 37.9114 16.2155 38.7518 16.1512C38.9284 16.1369 39.1049 16.1155 39.3098 16.1012C39.2744 15.8868 39.338 15.701 39.6134 15.5652C40.0019 15.3722 40.4256 15.2222 40.9553 15.2079C41.146 15.2007 41.2802 15.2293 41.3579 15.2722C41.4638 15.3365 41.4779 15.4437 41.3649 15.5723C41.1884 15.7867 40.8776 15.9297 40.5386 16.044C40.4327 16.0797 40.3126 16.1155 40.1855 16.1512C40.2137 16.2155 40.2349 16.2584 40.242 16.3013ZM40.1008 15.9511C40.3197 15.8511 40.4963 15.7796 40.6516 15.6938C40.7081 15.6581 40.7434 15.5723 40.7081 15.5366C40.7011 15.5295 40.6869 15.5223 40.6728 15.5152C40.6163 15.4794 40.5245 15.458 40.4468 15.4509C40.1714 15.4294 39.9878 15.5509 40.016 15.7153C40.0301 15.7867 40.0654 15.8439 40.1008 15.9511Z" fill="white"/>
<path d="M50.7298 24.2483C50.7368 24.2697 50.7439 24.2911 50.7439 24.3126C50.6027 24.3483 50.4614 24.3912 50.3202 24.4269C49.6775 24.5842 49.0277 24.7414 48.3921 24.9057C48.2579 24.9415 48.1449 25.0129 48.039 25.0773C47.9119 25.1559 47.8836 25.2631 48.0107 25.3345C48.1096 25.3917 48.272 25.4274 48.4062 25.4274C48.5475 25.4274 48.6958 25.3846 48.9077 25.3488C48.8441 25.406 48.8229 25.4417 48.7805 25.4632C48.4769 25.6204 48.1237 25.7347 47.7141 25.7633C47.481 25.7776 47.2833 25.7348 47.1562 25.6633C46.9867 25.5632 46.9372 25.406 47.0785 25.2488C47.2268 25.0844 47.4599 24.9343 47.707 24.82C48.4627 24.4841 49.3314 24.3054 50.2707 24.234C50.419 24.2197 50.5744 24.2411 50.7298 24.2483Z" fill="white"/>
<path d="M40.7788 14.3932C40.7858 14.4146 40.7858 14.436 40.7929 14.4575C40.6516 14.4789 40.5104 14.5075 40.3691 14.5147C39.8041 14.5504 39.2815 14.6433 38.8224 14.8434C38.6883 14.9006 38.5611 14.9792 38.4623 15.0578C38.3563 15.1507 38.3422 15.2222 38.4128 15.265C38.4623 15.2936 38.5541 15.3151 38.6883 15.3151C38.7871 15.3151 38.886 15.3151 38.999 15.3222C38.7589 15.4651 38.3069 15.5509 38.0032 15.508C37.9114 15.4937 37.8337 15.4723 37.7701 15.4366C37.6289 15.3508 37.5865 15.2222 37.7066 15.0864C37.8337 14.9506 38.0244 14.822 38.2363 14.7362C38.9143 14.4718 39.6841 14.3717 40.4892 14.3646C40.5881 14.3646 40.6869 14.3789 40.7788 14.3932Z" fill="white"/>
<path d="M40.5104 37.8053C40.6022 37.8625 40.6587 37.9339 40.6375 38.0268C40.5881 38.2912 40.4821 38.5414 40.1431 38.7343C39.9595 38.8415 39.7688 38.9201 39.4934 38.8844C39.5499 38.8558 39.6064 38.8201 39.6629 38.7915C39.677 38.7558 39.6841 38.7343 39.6982 38.7057C39.6558 38.7057 39.6134 38.7057 39.564 38.7129C39.5358 38.7558 39.5146 38.7987 39.4934 38.8415C39.3945 38.6843 39.4722 38.5485 39.5499 38.3984C39.5923 38.3198 39.5923 38.184 39.5216 38.1412C39.3733 38.084 39.1332 38.0626 38.9919 38.0983C38.4834 38.2341 38.0032 38.4056 37.5018 38.5485C37.1204 38.6557 36.7249 38.7558 36.3294 38.8487C36.2446 38.8701 36.1387 38.863 35.9692 38.8701C36.0469 38.7772 36.1034 38.72 36.1528 38.6557C36.4 38.3627 36.6825 38.0769 36.8873 37.7767C36.9933 37.6266 36.9368 37.4408 36.732 37.2979C36.3082 36.9977 36.3506 36.7547 36.8732 36.5189C37.0215 36.4546 37.191 36.3974 37.3605 36.3402C37.4806 36.3045 37.5865 36.3045 37.6571 36.3474C37.6854 36.3688 37.7136 36.3903 37.7278 36.426C37.9114 36.7976 37.9184 37.1692 37.6289 37.5337C37.6077 37.5552 37.5653 37.5837 37.5724 37.6052C37.6783 37.8196 37.5088 37.9982 37.3676 38.184C37.3464 38.2126 37.3464 38.2412 37.3252 38.2984C37.6501 38.2984 37.8478 38.1698 38.095 38.1054C38.3634 38.034 38.6388 37.9625 38.9072 37.891C38.9496 37.8767 38.9778 37.8553 39.0202 37.8482C39.4086 37.7124 39.8253 37.6481 40.2703 37.741C40.3691 37.741 40.4468 37.7695 40.5104 37.8053Z" fill="white"/>
<path d="M34.7545 36.0472C34.7827 36.0615 34.811 36.083 34.8321 36.0973C35.0793 36.3117 35.0228 36.5475 34.6273 36.6547C34.1753 36.7833 33.681 36.8762 33.1936 36.9406C32.8193 36.9906 32.4168 36.9691 32.0213 36.9763C31.9224 36.9763 31.8165 36.962 31.7176 36.9477C31.7176 36.9263 31.7176 36.9048 31.7176 36.8905C32.2049 36.8334 32.6922 36.7833 33.1866 36.7262C33.3631 36.7047 33.5538 36.6976 33.7163 36.6547C33.8222 36.6261 33.9635 36.5475 33.9564 36.4975C33.9564 36.4689 33.914 36.4332 33.8646 36.4046C33.8222 36.376 33.7657 36.3545 33.7163 36.3331C33.6386 36.2974 33.5115 36.3045 33.4408 36.2688C33.3843 36.233 33.342 36.1616 33.3702 36.1258C33.5891 35.8757 34.4013 35.84 34.7545 36.0472Z" fill="white"/>
<path d="M30.5099 18.5882C30.6512 18.6668 30.6441 18.7811 30.4958 18.9026C30.1638 19.1599 29.7189 19.3314 29.1963 19.4029C28.7231 19.4672 28.2287 19.4815 27.7414 19.503C27.6072 19.5101 27.466 19.4529 27.3318 19.4243C27.3389 19.4029 27.3389 19.3815 27.3459 19.36C27.473 19.3457 27.6002 19.3314 27.7202 19.3171C28.1793 19.2671 28.6454 19.2242 29.1045 19.1599C29.2316 19.1456 29.3517 19.0956 29.4576 19.0456C29.6624 18.9527 29.7118 18.8955 29.6059 18.8312C29.5635 18.8097 29.507 18.7883 29.4293 18.7597C29.4082 18.7526 29.3799 18.7383 29.3587 18.724C29.3163 18.7025 29.281 18.6668 29.281 18.6454C29.281 18.6025 29.3517 18.5525 29.4152 18.5239C29.6624 18.4238 30.2486 18.4524 30.4817 18.5668C30.4887 18.5739 30.5028 18.581 30.5099 18.5882Z" fill="white"/>
<path d="M25.7215 24.1339C25.8134 24.1839 25.8769 24.2554 25.9193 24.3412C25.9899 24.5127 25.8557 24.6342 25.6297 24.6985C25.2625 24.8057 24.8811 24.8915 24.4927 24.9558C24.0336 25.0272 23.5604 25.0701 23.0872 25.1273C23.0731 25.113 23.059 25.0987 23.0449 25.0844C23.1579 25.0415 23.2567 24.9772 23.3768 24.9486C23.8006 24.8557 24.2384 24.7771 24.6692 24.6985C25.1142 24.6127 25.1777 24.4912 24.8599 24.3126C24.8529 24.3054 24.8458 24.3054 24.8317 24.2983C24.8246 24.2983 24.8246 24.2911 24.8176 24.2911C24.7116 24.2268 24.6904 24.1768 24.8317 24.1196C25.1495 23.9838 25.5026 23.9981 25.7215 24.1339Z" fill="white"/>
<path d="M23.3909 37.8482L23.1861 38.5128L11.5754 31.7307L18.2848 27.7858C18.5108 28.0431 18.765 28.3004 19.0546 28.5433C17.9316 29.551 17.4373 30.7659 17.6844 31.9165C18.0658 33.7103 19.9233 34.9895 21.4205 36.0186C21.5335 36.0973 21.6536 36.1759 21.7666 36.2545C22.2256 36.5761 22.7906 36.9906 23.1367 37.3765C23.4262 37.7195 23.3909 37.8482 23.3909 37.8482ZM12.889 31.7307L20.0433 35.9114C18.6238 34.9038 17.1124 33.6674 16.7593 31.9808C16.5403 30.966 16.837 29.9226 17.5856 28.9721L12.889 31.7307Z" fill="white"/>
<path d="M55.6382 5.8173L67.2489 12.5994L66.1119 12.7209C66.1048 12.7209 65.8859 12.7423 65.3138 12.5708C64.6429 12.3707 63.9366 12.0348 63.3928 11.7704C63.2586 11.7061 63.1174 11.6346 62.9832 11.5703C61.2176 10.6984 59.0282 9.61212 55.9701 9.39057C53.9927 9.24764 51.9375 9.5478 50.2142 10.2053C49.8046 10.0409 49.3667 9.89083 48.9218 9.75505L55.6382 5.8173ZM56.0832 8.85458C58.9576 9.06183 61.0763 9.94086 62.7925 10.7699L55.6453 6.58912L50.9558 9.3477C52.5731 8.90461 54.3458 8.73309 56.0832 8.85458Z" fill="white"/>
<path d="M50.2848 17.9093C50.412 17.9807 50.4049 18.0879 50.299 18.1737C50.1153 18.3238 49.9176 18.4667 49.7057 18.6025C49.6422 18.6454 49.4585 18.6668 49.395 18.6382C49.3879 18.6382 49.3879 18.6382 49.3808 18.6311C49.3243 18.5953 49.3314 18.5096 49.3102 18.4524C49.3032 18.4381 49.3173 18.4238 49.3243 18.4024C49.3738 18.2952 49.395 18.2452 49.3597 18.2166C49.3243 18.1951 49.2325 18.1951 49.0701 18.1951C49.0277 18.1951 48.9853 18.1665 48.943 18.1523C48.943 18.1594 48.9359 18.1594 48.9359 18.1665L48.9288 18.1594L48.9359 18.1594C48.9359 18.0451 49.0136 17.9736 49.2184 17.9307C49.4232 17.895 49.6139 17.8164 49.8187 17.7949C49.9529 17.7806 50.1295 17.8235 50.2425 17.8735C50.2566 17.895 50.2707 17.895 50.2848 17.9093Z" fill="white"/>
<path d="M65.1019 18.6811C65.1161 18.6882 65.1231 18.6954 65.1372 18.7025C65.3632 18.8884 65.6034 19.0742 65.8223 19.26C65.9424 19.36 65.8788 19.4458 65.6669 19.4458C64.9889 19.4458 64.2968 19.4815 63.6541 19.31C63.4352 19.2528 63.2374 19.1599 63.0467 19.0742C63.0397 19.0742 63.0397 19.0742 63.0397 19.067C62.9832 19.0384 62.9761 18.967 62.9408 18.9241C63.0397 18.9169 63.1527 18.8812 63.2374 18.9026C63.4705 18.9527 63.6753 19.0313 63.9084 19.0742C64.0496 19.1027 64.2121 19.0813 64.3604 19.0885C64.3039 19.0098 64.2827 18.9026 64.1909 18.8455C64.1838 18.8455 64.1838 18.8383 64.1767 18.8383C63.9578 18.724 63.6824 18.6454 63.4422 18.5453C63.3151 18.4953 63.2092 18.431 63.0962 18.3667C63.2374 18.3524 63.3857 18.3238 63.527 18.3309C64.1061 18.3452 64.6641 18.4167 65.1019 18.6811Z" fill="white"/>
<path d="M48.837 18.0379C48.8723 18.0951 48.9006 18.1308 48.9218 18.1665C48.8441 18.2166 48.7735 18.2737 48.6746 18.3166C47.8553 18.6597 47.0361 19.0027 46.2169 19.3457C46.125 19.3815 46.0262 19.41 45.9273 19.4458C45.9061 19.4386 45.8779 19.4315 45.8567 19.4172C45.8849 19.36 45.899 19.2957 45.9414 19.2385C46.1462 18.9527 46.3652 18.674 46.5629 18.3881C46.683 18.2166 46.6194 18.0379 46.4782 17.8664C46.2098 17.5448 46.2451 17.3804 46.6265 17.1946C46.8313 17.0946 47.0573 17.0946 47.2339 17.1946C47.255 17.2089 47.2692 17.2161 47.2904 17.2303C47.5517 17.4305 47.5658 17.6663 47.5164 17.9021C47.474 18.1237 47.4245 18.3452 47.3751 18.5882C47.8765 18.4024 48.3427 18.2237 48.837 18.0379Z" fill="white"/>
<path d="M40.92 17.8235C40.9271 17.845 40.9341 17.8592 40.9412 17.8807C40.807 17.9164 40.6799 17.9593 40.5457 17.995C39.903 18.1665 39.2532 18.3309 38.6247 18.5239C38.4199 18.5882 38.2433 18.7097 38.1162 18.824C38.0103 18.9169 38.0103 18.9884 38.0809 19.0384C38.1374 19.0742 38.2433 19.0885 38.3846 19.0813C38.5752 19.0742 38.773 19.0527 38.9849 19.0313C38.7659 19.2743 37.8337 19.5601 37.4382 19.5101C37.3605 19.503 37.2828 19.4815 37.2193 19.4529C37.1839 19.4386 37.1486 19.4172 37.1133 19.4029C36.9085 19.2814 36.8591 19.1242 37.0568 18.9598C37.2969 18.7597 37.5865 18.5668 37.9255 18.4167C38.66 18.1022 39.5004 17.9093 40.3974 17.8164C40.5669 17.8092 40.7505 17.8235 40.92 17.8235Z" fill="white"/>
<path d="M58.6115 19.3386C58.4138 19.3743 58.2796 19.41 58.1383 19.4243C57.3261 19.5315 56.5281 19.6602 55.8289 19.9246C55.6735 19.9818 55.5393 20.0675 55.4405 20.1604C55.391 20.2105 55.384 20.2533 55.4263 20.2819C55.4616 20.3034 55.5181 20.3105 55.61 20.3034C55.7653 20.2891 55.9278 20.2819 56.0831 20.2748C56.0902 20.2891 56.0973 20.3034 56.1043 20.3177C55.8006 20.482 55.4616 20.6035 55.045 20.6535C54.8684 20.675 54.6777 20.6678 54.5647 20.5964C54.5365 20.5821 54.5153 20.5606 54.4941 20.5321C54.4235 20.4392 54.4023 20.2962 54.4729 20.2033C54.6706 19.9317 55.0873 19.7745 55.5181 19.6459C56.2668 19.4172 57.0789 19.2957 57.9123 19.2314C58.1313 19.2171 58.3573 19.2099 58.6115 19.3386Z" fill="white"/>
<path d="M43.6391 42.9079C44.0487 43.0723 44.4795 43.2224 44.9315 43.3582L38.2221 47.3031L26.6114 40.521L27.7485 40.3995C27.7555 40.3995 27.9745 40.378 28.5465 40.5496C29.2104 40.7497 29.9237 41.0855 30.4675 41.35C30.6017 41.4143 30.7359 41.4786 30.8701 41.5501C32.6428 42.4291 34.8321 43.5154 37.8902 43.7298C39.8536 43.8656 41.9158 43.5654 43.6391 42.9079ZM38.2151 46.5312L42.9046 43.7727C41.2872 44.2157 39.5075 44.3873 37.7772 44.2658C34.9028 44.0585 32.784 43.1795 31.0608 42.3505L38.2151 46.5312Z" fill="white"/>
<path d="M55.7441 38.963C56.4857 38.4556 57.7075 38.1054 58.8022 38.2912L38.2363 50.3832L22.2751 41.057L6.31386 31.7307L26.8798 19.6387C27.2117 20.2748 26.6044 20.9966 25.7498 21.4325C24.8952 21.8685 23.8359 22.1543 22.9742 22.5974C21.4558 23.3692 20.6931 24.6199 21.025 25.7848C21.2369 26.5352 21.9219 27.2784 22.8754 27.8358C23.3415 28.1074 23.8641 28.3361 24.4362 28.4933C24.1396 28.0645 23.9842 27.6071 24.0124 27.0997C24.0548 26.3994 24.641 25.8491 25.439 25.3703C26.4772 24.7414 27.7344 24.2911 29.0692 23.9124C29.1398 23.8909 29.2175 23.8695 29.2881 23.8195C29.1892 23.8195 29.0904 23.8195 28.9915 23.8123C28.2217 23.7837 27.4448 23.7766 26.675 23.7194C26.343 23.698 26.004 23.6051 25.7215 23.4907C25.6297 23.455 25.552 23.4193 25.4814 23.3764C25.1071 23.162 25.0224 22.8618 25.0718 22.5402C25.1495 22.04 25.6015 21.6469 26.1947 21.311C27.4448 20.6035 28.9985 20.2176 30.6229 19.9103C30.6865 19.896 30.743 19.8889 30.8065 19.8746C30.7147 19.4172 30.8913 19.0098 31.3574 18.674C31.7176 18.4167 32.1272 18.1737 32.5792 17.9736C33.8505 17.4162 35.3265 17.1303 36.8591 16.9159C37.4241 16.8373 38.0032 16.7873 38.5753 16.7086C38.7377 16.6872 38.8578 16.7015 38.9496 16.7587C38.9919 16.7873 39.0343 16.8158 39.0696 16.8587C38.6035 16.923 38.1444 16.9874 37.6925 17.0588C36.2023 17.2947 34.7474 17.5877 33.4197 18.0665C32.9041 18.2523 32.438 18.4738 32.1343 18.7883C31.873 19.0599 31.9153 19.3314 32.2543 19.5315C32.3179 19.5673 32.3956 19.603 32.4803 19.6387C33.0807 19.8674 33.7586 19.9246 34.4437 19.9317C35.7291 19.9532 37.0145 19.9317 38.2998 19.9675C39.6841 20.0032 41.0613 20.089 42.4455 20.1533C42.4949 20.1533 42.5514 20.1604 42.6362 20.1676C42.6079 19.8388 42.6009 19.5172 42.5514 19.1956C42.389 18.1951 42.2266 17.1946 42.0288 16.1941C41.9299 15.7153 42.3043 15.3794 42.841 15.0649C43.5472 14.6504 44.3524 14.5504 45.2987 14.7291C46.5841 14.972 47.8695 15.2079 49.1407 15.4437C49.176 15.2508 49.2184 15.0506 49.2467 14.8434C49.2679 14.6647 49.4303 14.5432 49.6845 14.4646C49.9741 14.3789 50.2778 14.3003 50.5744 14.2216C50.8993 14.143 51.2312 14.1716 51.5632 14.2359C54.0421 14.7005 56.4504 15.2793 58.8375 15.8868C59.6426 16.094 60.4478 16.2941 61.2458 16.5085C61.3376 16.5371 61.4577 16.58 61.5424 16.63C61.606 16.6658 61.6484 16.7015 61.6413 16.7372C61.6272 16.8873 61.3306 16.9159 61.1258 16.9088C60.8221 16.8945 60.5113 16.8587 60.2359 16.7873C57.8135 16.1727 55.4334 15.508 52.9474 14.9863C52.1847 14.822 51.4219 14.6647 50.6521 14.5004C50.3202 14.4289 50.1154 14.4789 50.1012 14.679C50.073 15.0292 49.8611 15.3008 49.3173 15.508C49.7128 15.6009 50.0518 15.6724 50.3908 15.751C53.2299 16.3942 55.9843 17.1446 58.6539 17.995C59.8474 18.3738 60.9986 18.8026 62.1498 19.2242C62.3405 19.2957 62.51 19.3815 62.6724 19.4744C62.8066 19.553 62.9267 19.6316 63.0468 19.7173C63.7459 20.189 63.6541 20.7179 62.8419 21.1252C62.1357 21.4754 61.3235 21.6612 60.4054 21.7184C59.4025 21.7756 58.3996 21.7184 57.4038 21.6469C55.836 21.5326 54.2752 21.4968 52.7073 21.6183C52.34 21.6469 51.9798 21.6898 51.6126 21.7255C51.9234 21.5897 52.2553 21.4968 52.6084 21.4325C54.0915 21.1681 55.617 21.1109 57.1566 21.1467C58.3008 21.1681 59.4519 21.2396 60.5961 21.3039C61.2741 21.3396 61.5495 21.1967 61.493 20.7965C61.4436 20.4177 61.1399 20.1318 60.7161 19.8889C60.5749 19.8031 60.4195 19.7316 60.2571 19.653C58.8022 18.9813 57.192 18.4524 55.5535 17.9593C52.559 17.0588 49.4656 16.3013 46.2875 15.651C45.6307 15.5152 44.9668 15.4008 44.3029 15.2865C43.5049 15.1578 43.4131 15.215 43.5472 15.6795C44.0275 17.2589 44.4936 18.8383 44.9739 20.4177C44.988 20.4534 45.0304 20.5035 45.0798 20.5392C46.1392 20.775 47.0855 21.0466 47.9684 21.3896C48.378 20.8822 49.0136 20.5035 49.628 20.1104C50.1719 19.7602 50.7369 19.4172 51.2807 19.0599C51.4219 18.967 51.5561 18.8669 51.6408 18.7597C51.8527 18.4596 52.2482 18.2809 52.7214 18.138C52.8344 18.1022 52.9333 18.0593 53.0533 18.0308C53.2299 17.9879 53.4206 17.9593 53.6042 17.9236C53.5901 18.0522 53.4983 18.138 53.4418 18.2309C53.4065 18.288 53.4418 18.3667 53.4135 18.431C53.2511 18.8169 53.0887 19.1956 52.905 19.5816C52.8556 19.6888 52.7779 19.796 52.6649 19.8817C52.559 19.9675 52.453 19.9818 52.3683 19.9389C52.333 19.9175 52.3047 19.8889 52.2765 19.846C52.2129 19.7388 52.1705 19.6316 52.0928 19.5244C52.0646 19.4815 52.0293 19.4529 51.9869 19.4315C51.8951 19.3743 51.7821 19.3886 51.655 19.4744C50.9134 19.9818 50.1365 20.4749 49.6492 21.0823C49.3173 21.4897 49.4585 21.9185 49.6916 22.333C49.7764 22.4831 49.8894 22.6331 49.9741 22.7832C50.1154 23.0262 50.0518 23.162 49.6987 23.3192C49.2749 23.4979 48.8229 23.6622 48.3568 23.8481C48.0955 23.212 47.587 22.6975 46.8596 22.2758C46.4005 22.0042 45.8496 21.7756 45.2211 21.5755C45.6307 23.5908 46.0262 25.5704 46.4358 27.6C46.57 27.5214 46.6477 27.4714 46.7324 27.4285C49.4656 25.8062 52.1988 24.1839 54.939 22.5688C55.0591 22.4974 55.2286 22.4402 55.3981 22.4116C55.9348 22.3116 56.4857 22.2329 57.0366 22.14C56.8883 22.4688 54.713 24.7771 54.4305 24.8629C54.3952 24.7628 54.3528 24.6771 54.3387 24.5842C54.3246 24.4555 54.3528 24.3269 54.3387 24.1982C54.3317 24.1482 54.3034 24.0767 54.2469 24.0482C54.1551 24.0196 54.0138 24.0482 53.9362 24.0839C53.7737 24.1625 53.6395 24.2554 53.4912 24.3412C51.775 25.3631 50.0659 26.3779 48.3497 27.3999C47.813 27.7215 47.2762 28.0359 46.7395 28.3575C46.683 28.3933 46.6335 28.4504 46.6406 28.4933C46.7254 28.8292 46.7819 29.1651 46.9302 29.4867C47.0432 29.7368 47.2762 29.9512 47.5729 30.1299C48.159 30.4729 49.0136 30.6373 49.8187 30.5229C50.0871 30.4872 50.3696 30.3943 50.5603 30.28C52.7567 28.9436 54.939 27.5929 57.1213 26.2422C57.8346 25.7991 58.5691 25.3703 59.2824 24.9272C60.8291 23.9695 62.3617 23.0048 63.9084 22.0543C64.3957 21.7541 64.8759 21.454 65.2785 21.1038C65.4551 20.9466 65.8294 20.8537 66.1401 20.7607C66.3732 20.6893 66.6416 20.6607 66.9664 20.6035C66.9241 20.725 66.9099 20.7893 66.8676 20.8537C66.4014 21.5111 65.9353 22.1615 65.4621 22.819C65.3703 22.9476 65.2291 23.0691 65.0737 23.1834C65.0101 23.2263 64.8477 23.262 64.7629 23.2477C64.6782 23.2049 64.6358 23.1263 64.6358 23.0762C64.6288 22.8976 64.6499 22.7118 64.657 22.4974C64.5581 22.5402 64.5087 22.5474 64.4734 22.5688C63.7248 23.0333 62.9761 23.4979 62.2275 23.9696C61.6766 24.3126 61.1328 24.6628 60.5749 25.0058C60.4972 25.0558 60.4478 25.1773 60.2429 25.1059C60.2429 25.1059 60.1723 25.163 60.1441 25.1916C60.0946 25.2416 60.0805 25.3131 60.0169 25.3488C59.4943 25.6847 58.9646 26.0135 58.435 26.3422C57.3756 27.0068 56.3162 27.6858 55.2498 28.3504C54.2752 28.9578 53.3147 29.5725 52.3047 30.1513C51.4078 30.6659 50.3555 31.0446 49.1478 31.2662C47.9825 31.4806 47.0079 31.2876 46.1886 30.8088C45.553 30.4086 45.214 30.0155 45.0304 29.5796C45.0162 29.5367 44.9951 29.501 44.9597 29.4295C44.8679 29.4867 44.7973 29.5224 44.7337 29.5653C43.18 30.4729 41.6616 31.402 40.0725 32.2953C38.9284 32.9385 37.6148 33.4459 36.1316 33.8032C35.941 33.8461 35.7361 33.8818 35.5313 33.9104C35.4325 33.9247 35.3265 33.9033 35.15 33.9033C35.3336 33.7961 35.4395 33.7103 35.5808 33.6531C37.2546 33.0028 38.6741 32.1809 40.0937 31.3591C41.6192 30.4801 43.1164 29.5796 44.6207 28.6863C44.7055 28.6363 44.7832 28.5433 44.7691 28.4719C44.5077 26.5709 44.2394 24.6771 43.971 22.7832C43.8368 22.8761 43.7591 23.0333 43.6673 23.1763C43.2083 23.9695 42.5091 24.6771 41.3508 25.1916C40.694 25.4846 39.9666 25.6418 39.0979 25.6418C38.3351 25.6418 37.7419 25.4489 37.1275 25.2488C36.9438 25.1845 36.7461 25.1344 36.5554 25.0701C36.4495 25.0344 36.3365 25.0129 36.2517 24.9629C36.1881 24.9272 36.1528 24.8772 36.1599 24.7985C36.054 24.7628 36.0822 24.8128 36.1175 24.8915C35.4748 24.7199 34.8816 24.5484 34.2883 24.3983C33.0877 24.091 31.8447 23.8981 30.5311 23.8624C30.4181 23.8624 30.291 23.8624 30.185 23.8838C28.6737 24.2483 27.353 24.77 26.4066 25.5632C25.2484 26.5352 25.3261 27.6643 26.5761 28.6363C26.8092 28.8149 27.0564 28.9793 27.3177 29.1365C28.1157 29.6082 29.0621 29.9655 30.0791 30.2728C31.7247 30.7659 33.462 31.1018 35.2841 31.2876C35.715 31.3305 36.174 31.3091 36.6119 31.2948C36.8944 31.2876 37.1345 31.1876 37.2758 31.0446C38.1374 30.1156 39.0131 29.1937 39.8324 28.2503C40.0654 27.9788 40.3479 27.7858 40.8211 27.6715C40.9977 27.6286 41.1389 27.55 41.3014 27.4928C41.3932 27.4642 41.4921 27.4499 41.5909 27.4213C41.6121 27.4785 41.6686 27.5428 41.6545 27.6C41.598 27.8787 41.5203 28.1574 41.4568 28.4433C41.3861 28.7577 41.3226 29.0722 41.2378 29.3795C41.2166 29.451 41.1178 29.5081 41.0613 29.5724C40.9977 29.5367 40.9271 29.5081 40.8635 29.4724C40.7011 29.2937 40.6587 29.1651 40.6022 29.0436C40.5881 29.0079 40.5528 28.9793 40.4892 28.9078C40.3903 28.9936 40.3126 29.0436 40.2561 29.1008C39.7194 29.6368 39.1685 30.1656 38.653 30.7016C37.8478 31.552 36.5695 31.9237 34.9663 31.9594C34.3802 31.9737 33.7798 31.938 33.1937 31.8951C32.8405 31.8665 32.551 31.8808 32.2332 31.988C31.3998 32.2738 30.5594 32.5597 29.8955 32.9742C29.6624 33.1243 29.4505 33.303 29.3164 33.4888C29.1186 33.7675 29.2104 34.0319 29.5282 34.2177C29.6554 34.2892 29.8178 34.3535 30.0085 34.3964C30.6582 34.5465 31.3503 34.5536 32.0354 34.5536C33.2925 34.5465 34.5496 34.5179 35.8138 34.5036C38.1586 34.4678 40.3409 34.8252 42.3961 35.4827C42.9116 35.647 43.4484 35.7828 43.9639 35.9472C44.1687 36.0115 44.2676 35.9758 44.3877 35.8829C45.0939 35.3612 45.9202 34.9252 46.9372 34.6251C47.4669 34.4678 48.046 34.3535 48.6252 34.2677C48.943 34.2177 49.3173 34.2392 49.6492 34.282C49.8894 34.3106 50.08 34.3749 50.2284 34.4607C50.5462 34.6465 50.638 34.9538 50.4402 35.2897C50.2001 35.697 49.734 36.0115 49.2255 36.3045C48.2862 36.8405 47.1844 37.1835 45.8426 37.1907C45.3835 37.1907 44.9244 37.1335 44.4442 37.1049C44.0981 37.4337 44.2041 37.9339 44.7267 38.3055C44.7973 38.3556 44.875 38.4056 44.9527 38.4485C45.4612 38.7415 46.0756 38.913 46.8242 38.9487C47.481 38.9773 48.0178 38.8558 48.4698 38.5843C52.1988 36.3402 55.9348 34.0962 59.6709 31.8522C62.0439 30.4229 64.4098 29.0007 66.7757 27.5714C66.9029 27.4928 67.0229 27.407 67.0936 27.3141C67.2631 27.0926 67.5244 26.9354 67.9057 26.8425C68.2447 26.7639 68.5696 26.6709 68.9086 26.5923C69.0004 26.5709 69.1558 26.578 69.2335 26.6138C69.29 26.6424 69.29 26.7424 69.2547 26.7924C68.6897 27.5643 68.1176 28.3432 67.5244 29.1079C67.4679 29.1865 67.2701 29.2866 67.1642 29.2794C66.9382 29.1865 66.9523 29.0865 66.9735 29.0007C67.0017 28.8364 67.0653 28.672 67.1147 28.5148C67.1359 28.4504 67.1712 28.3861 67.1995 28.3147C66.9735 28.3432 66.8887 28.3933 66.8111 28.4361C65.1514 29.4724 63.5058 30.5158 61.8391 31.5449C58.8516 33.3959 55.8713 35.2468 52.8556 37.0835C51.5067 37.9053 50.0659 38.6629 48.378 39.2417C47.0432 39.6991 45.6448 39.7349 44.2182 39.4418C43.7662 39.3489 43.406 39.2203 43.1306 39.0631C42.5373 38.7129 42.3678 38.2198 42.6786 37.6338C42.8269 37.3551 43.0529 37.0906 43.2506 36.8048C42.7704 36.669 42.276 36.5261 41.7746 36.3831C40.5457 36.0329 39.3098 35.6899 37.975 35.4827C36.9438 35.3254 35.8986 35.3254 34.8533 35.3254C33.4762 35.3326 32.099 35.3254 30.7218 35.2968C30.3263 35.2897 29.9308 35.2182 29.5424 35.1611C29.2669 35.1182 29.0409 35.0396 28.8573 34.9324C28.3559 34.6394 28.2287 34.1534 28.3982 33.7961C28.6595 33.2315 29.2669 32.8027 30.0155 32.4382C30.5382 32.1881 31.1032 31.9594 31.6682 31.7236C31.2727 31.6521 30.8772 31.5806 30.4887 31.502C28.829 31.159 27.3318 30.6659 26.0888 29.9441C25.9687 29.8726 25.8557 29.8011 25.7357 29.7297C25.2131 29.3938 24.7893 29.0293 24.4927 28.6434C22.4587 29.1008 21.0815 30.4229 21.3569 31.695C21.6253 32.9456 23.2073 33.9318 24.5916 34.8966C25.9758 35.8614 27.4236 37.0477 27.0422 38.2841C29.1539 38.0554 31.1808 38.8987 32.8335 39.7063C34.479 40.5138 36.1811 41.4357 38.3069 41.593C40.5457 41.7502 42.8622 40.8926 43.5684 39.6348C43.8509 40.0279 44.2817 40.3852 44.8185 40.6996C45.7719 41.2571 47.0432 41.6573 48.3215 41.7788C50.3131 41.9717 52.4389 41.5143 53.7596 40.6282C54.5153 40.085 55.0026 39.4633 55.7441 38.963ZM38.2292 49.6114L50.7933 42.2219C49.9388 42.3362 49.0489 42.3576 48.1873 42.279C46.7395 42.1432 45.2776 41.693 44.1758 41.0498C43.9781 40.9355 43.8015 40.8211 43.632 40.6996C42.3961 41.6644 40.2773 42.2433 38.208 42.1004C35.9833 41.9431 34.2177 41.0713 32.664 40.2994C32.5227 40.228 32.3815 40.1636 32.2473 40.0922C30.7218 39.3418 28.9279 38.6057 27.2259 38.7844L25.8981 38.9273L26.1382 38.1483C26.449 37.1478 25.1777 36.1044 23.8994 35.2111C23.7794 35.1325 23.6664 35.0467 23.5463 34.9681C22.2256 34.0605 20.7354 33.0314 20.4529 31.7236C20.1916 30.5087 21.1804 29.2723 22.8189 28.5433C22.6141 28.4433 22.4092 28.3432 22.2186 28.2289C21.1168 27.5857 20.347 26.7281 20.1069 25.8777C19.9656 25.3703 20.0009 24.8486 20.1916 24.3483L7.62042 31.7307L38.2292 49.6114ZM27.3177 23.0119C28.4406 23.1834 29.5989 23.2049 30.743 23.1763C32.325 23.1334 33.8646 23.2335 35.3124 23.6194C36.3294 23.8909 37.3181 24.1982 38.3139 24.4984C38.8648 24.6628 39.3945 24.8486 39.9524 25.0058C40.3833 25.1273 40.7929 25.0844 41.146 24.8986C41.3014 24.82 41.4426 24.7199 41.5556 24.6199C42.0076 24.2197 42.2124 23.7694 42.3749 23.3049C42.6291 22.5617 42.6715 21.8113 42.6644 21.0323C42.0076 20.9894 41.372 20.918 40.7223 20.8965C38.8719 20.8394 37.0215 20.8036 35.1711 20.7536C34.133 20.725 33.0877 20.6964 32.0848 20.5106C31.767 20.4534 31.4704 20.3748 31.2303 20.2319C31.195 20.2105 31.1526 20.189 31.1173 20.1604C31.0608 20.1247 30.9195 20.1176 30.8489 20.1318C29.9449 20.3534 29.0268 20.5678 28.144 20.8179C27.4448 21.018 26.788 21.2753 26.3007 21.6541C25.8981 21.9685 25.8416 22.383 26.2159 22.6474C26.2442 22.6689 26.2724 22.6832 26.3007 22.7046C26.5832 22.8833 26.9434 22.9547 27.3177 23.0119ZM46.9867 35.0682C46.2027 35.3397 45.7225 35.7757 45.1646 36.233C45.7366 36.3331 46.2451 36.4474 46.7607 36.5118C48.0814 36.6833 49.0489 36.0329 48.6464 35.2754C48.604 35.1896 48.5334 35.1253 48.4415 35.0682C48.3356 35.011 48.2014 34.9681 48.0319 34.9467C47.6576 34.9109 47.3045 34.961 46.9867 35.0682Z" fill="white"/>
<path d="M38.2151 21.504C38.2433 21.5826 38.2786 21.6326 38.2857 21.6898C38.3069 21.9113 38.3139 22.1257 38.321 22.3473C38.321 22.4045 38.3422 22.4473 38.3846 22.4759C38.4269 22.4974 38.4905 22.5116 38.5894 22.5116C38.9637 22.5045 39.338 22.5259 39.7053 22.5331C39.8253 22.5331 39.9171 22.5474 39.9736 22.5831C40.0301 22.6188 40.0584 22.6617 40.0584 22.7332C40.0654 22.9762 40.0937 23.2263 40.1078 23.4693C40.1149 23.6408 40.0513 23.6837 39.7618 23.6765C39.3874 23.6694 39.0131 23.6622 38.6388 23.6551C38.4764 23.648 38.3775 23.6337 38.3139 23.5979C38.2504 23.5622 38.2292 23.505 38.2151 23.4121C38.1939 23.2406 38.1798 23.0691 38.1798 22.8976C38.1798 22.8261 38.1515 22.7689 38.0879 22.7332C38.0244 22.6975 37.9326 22.6832 37.8125 22.676C37.4453 22.6689 37.0851 22.6546 36.7178 22.6546C36.5907 22.6546 36.4989 22.6403 36.4424 22.6046C36.3929 22.576 36.3647 22.5259 36.3647 22.4616C36.3576 22.1972 36.3294 21.9256 36.3153 21.6612C36.3082 21.5826 36.3435 21.5326 36.506 21.5254C36.9509 21.5111 37.3958 21.4825 37.8408 21.4683C37.9608 21.4754 38.0879 21.4968 38.2151 21.504Z" fill="white"/>
<path d="M63.6117 24.5484C63.6259 24.5627 63.6329 24.577 63.6471 24.5913C63.5976 24.6199 63.5623 24.6628 63.5058 24.6842C63.2445 24.7628 62.9691 24.8414 62.7007 24.92C62.6371 24.9415 62.5665 24.9486 62.51 24.9772C62.3687 25.0415 62.2416 25.1201 62.0933 25.1773C61.6696 25.3274 61.4436 25.4846 61.2811 25.7991C61.5707 25.8062 61.832 25.8134 62.0862 25.8205C61.7967 26.0278 61.3588 26.0921 60.8998 26.1207C60.7726 26.1278 60.6667 26.1064 60.589 26.0563C60.5254 26.0206 60.4831 25.9706 60.476 25.9134C60.4478 25.7205 60.5043 25.5275 60.8009 25.3989C61.2388 25.2131 61.6625 25.0129 62.1216 24.8486C62.4606 24.7342 62.8419 24.6628 63.2162 24.5842C63.3363 24.5413 63.4776 24.5556 63.6117 24.5484Z" fill="white"/>
<path d="M42.8339 26.7567C42.9116 26.9568 42.7774 27.0997 42.502 27.1784C42.3537 27.2212 42.2336 27.2212 42.1559 27.1712C42.1136 27.1426 42.0782 27.1069 42.0571 27.0497C42.0288 26.964 42.0147 26.8711 41.9864 26.771C41.0542 26.9211 40.129 26.9711 39.1826 26.9068C38.1162 26.8282 37.0498 26.7496 35.9833 26.6638C35.5949 26.6352 35.2135 26.5852 34.8251 26.5352C34.6909 26.5209 34.5708 26.4708 34.4508 26.4423C34.4578 26.4137 34.4578 26.3922 34.4649 26.3636C34.6626 26.3494 34.8533 26.3208 35.044 26.3279C35.835 26.3636 36.626 26.4137 37.417 26.4423C38.7659 26.4994 40.1078 26.5423 41.4567 26.5852C41.6192 26.5923 41.7816 26.578 41.9582 26.5709C41.9441 26.4351 41.8876 26.3065 41.9229 26.1921C41.9582 26.0778 42.0359 25.9349 42.1771 25.8634C42.5373 25.6704 42.9964 25.5918 43.4837 25.5847C43.6673 25.5775 43.8015 25.6061 43.8792 25.649C43.9781 25.7062 43.9922 25.8062 43.9074 25.9349C43.745 26.1921 43.4201 26.3708 43.0246 26.5066C42.8269 26.5638 42.7845 26.6281 42.8339 26.7567ZM42.7209 26.3422C42.7562 26.3494 42.7916 26.3636 42.8269 26.3708C42.9469 26.2779 43.0811 26.185 43.1729 26.0849C43.2153 26.0349 43.2082 25.9849 43.1517 25.9491C43.1235 25.9349 43.0741 25.9206 43.0246 25.9206C42.9399 25.9206 42.7916 25.9706 42.7704 26.0135C42.7209 26.1207 42.728 26.235 42.7209 26.3422Z" fill="white"/>
<path d="M55.6311 4.27364L84.9193 21.3825L74.7281 27.3785C74.714 27.307 74.6928 27.2284 74.6787 27.1569C74.4173 26.2279 73.5981 25.2988 72.4328 24.5842C73.8523 23.7123 74.5868 22.4974 74.3397 21.3325C74.0289 19.8674 72.3692 18.724 71.0344 17.8021C70.9144 17.7235 70.8014 17.6377 70.6813 17.5591C70.1587 17.1946 69.5089 16.7158 69.0781 16.2298C68.6826 15.7796 68.5414 15.4008 68.6402 15.0649L69.1205 13.507L66.465 13.7929C65.9 13.8572 65.2502 13.7714 64.4804 13.5427C63.6471 13.2926 62.8278 12.9138 62.2134 12.6065C62.0721 12.5422 61.9379 12.4707 61.7967 12.3993C60.2218 11.6203 58.2655 10.6484 55.7653 10.4697C53.7737 10.3268 51.6973 10.7627 50.2213 11.5989C48.9995 10.9128 47.4104 10.4411 45.8284 10.291C45.7013 10.2767 45.5812 10.2696 45.4541 10.2625L55.6311 4.27364ZM75.2578 26.2922L83.5986 21.3825L70.0739 13.4856L69.5513 15.1721C69.4877 15.3794 69.6007 15.651 69.8974 15.9868C70.2858 16.4228 70.8932 16.873 71.3875 17.2161C71.5005 17.2947 71.6206 17.3733 71.7336 17.459C73.1461 18.431 74.9047 19.6459 75.2578 21.2753C75.505 22.433 74.9117 23.6408 73.6617 24.5913C74.3538 25.0987 74.9047 25.6847 75.2578 26.2922ZM66.2884 13.264L69.1629 12.9496L55.6311 5.04547L47.2904 9.95515C48.3285 10.1624 49.3314 10.4769 50.2072 10.8914C51.8315 10.1553 53.8867 9.80507 55.8642 9.94086C58.6468 10.141 60.7232 11.1701 62.3899 11.9919C62.5312 12.0634 62.6654 12.1277 62.7996 12.192C63.3787 12.4779 64.1485 12.8352 64.8971 13.0568C65.4692 13.2354 65.9353 13.2997 66.2884 13.264Z" fill="white"/>
<path d="M61.3447 29.844C61.1399 29.9083 60.9704 29.9512 61.0834 30.1156C60.7868 30.1871 60.5043 30.2514 60.2006 30.3228C60.137 30.2299 60.0876 30.1585 60.0523 30.1013C59.459 30.087 58.887 30.0727 58.3078 30.0727C58.2231 30.0727 58.1313 30.137 58.0606 30.1871C56.8953 30.9374 55.5746 31.5663 54.0209 32.0166C53.6254 32.1309 53.2158 32.2381 52.7426 32.231C54.2187 31.552 55.4263 30.723 56.7965 29.9441C56.6693 29.9226 56.5916 29.9083 56.514 29.9012C55.843 29.8011 55.165 29.7082 54.5012 29.5939C54.3528 29.5725 54.2398 29.4795 54.1127 29.4224C54.2752 29.3866 54.4376 29.3223 54.593 29.3223C54.9178 29.3366 55.2356 29.3938 55.5605 29.4295C56.0831 29.4867 56.5987 29.5582 57.1213 29.6082C57.2273 29.6153 57.3756 29.5867 57.4462 29.5439C60.3913 27.7644 63.3222 25.9849 66.2602 24.1982C66.4226 24.0982 66.5921 23.9981 66.7192 23.8766C67.0936 23.5193 67.7221 23.3835 68.3436 23.2406C68.4496 23.2192 68.5837 23.2335 68.7038 23.2335C68.6897 23.2978 68.7038 23.3764 68.6544 23.4336C68.1247 24.0839 67.595 24.7342 67.0582 25.3774C66.9664 25.4918 66.8746 25.6133 66.7475 25.7133C66.6839 25.7633 66.5427 25.7848 66.4438 25.8205C66.4014 25.7562 66.3167 25.6919 66.3167 25.6347C66.3167 25.456 66.3449 25.2702 66.3661 25.0916C66.3449 25.0844 66.3167 25.0701 66.2955 25.063C63.8024 26.5923 61.3094 28.1217 58.8163 29.6511C58.8234 29.6725 58.8375 29.6939 58.8446 29.7082C59.2048 29.7011 59.572 29.6939 59.9322 29.6868C59.9675 29.6868 60.0028 29.6296 60.0169 29.601C60.0593 29.5153 60.0805 29.4224 60.1299 29.3366C60.4054 28.8364 61.3659 28.6577 62.1004 28.965C62.1498 28.9864 62.1922 29.0079 62.2346 29.0293C62.4606 29.158 62.4747 29.3152 62.2275 29.4653C61.9733 29.6225 61.6625 29.744 61.3447 29.844ZM61.0622 29.5724C61.1611 29.5224 61.2953 29.4795 61.3518 29.4152C61.3871 29.3723 61.3094 29.3009 61.2811 29.2437C61.1893 29.2651 61.041 29.2794 61.0128 29.3152C60.9633 29.3866 60.9774 29.4724 60.9704 29.5582C60.9986 29.5582 61.0269 29.5653 61.0622 29.5724Z" fill="white"/>
<path d="M48.5334 32.2024C48.837 32.381 49.0419 32.624 49.2467 32.8599C49.3809 33.0171 49.2537 33.1171 48.9571 33.1386C48.0602 33.1886 47.3186 33.0028 46.683 32.6383C46.6265 32.6026 46.5841 32.5597 46.5559 32.5168C46.4994 32.4168 46.577 32.3596 46.7465 32.4025C46.9231 32.4454 47.0714 32.5168 47.2409 32.5669C47.4669 32.6383 47.6859 32.7312 48.0037 32.7026C47.933 32.5597 47.813 32.4525 47.6647 32.3668C47.4245 32.2238 47.1067 32.1381 46.7889 32.0523C46.796 32.0309 46.796 32.0094 46.803 31.988C47.022 31.9665 47.2409 31.9308 47.4599 31.938C47.933 31.9451 48.272 32.0452 48.5334 32.2024Z" fill="white"/>
<path d="M71.5853 12.0562L87.5465 21.3825L66.9805 33.4745C66.6486 32.8313 67.256 32.1166 68.1105 31.6807C68.9651 31.2447 70.0245 30.9589 70.8861 30.5158C72.4045 29.744 73.1673 28.4933 72.8353 27.3284C72.6235 26.578 71.9384 25.8348 70.985 25.2774C70.4482 24.9629 69.8338 24.7128 69.1629 24.5484C71.2957 24.1339 72.7647 22.7689 72.4822 21.4611C72.2138 20.2105 70.6318 19.2242 69.2476 18.2594C67.8634 17.2947 66.4155 16.1083 66.7969 14.872C64.6852 15.1007 62.6583 14.2574 61.0057 13.4498C59.3601 12.6423 57.6581 11.7204 55.5323 11.5631C53.2935 11.4059 50.977 12.2635 50.2707 13.5213C49.9882 13.1282 49.5574 12.7709 49.0207 12.4564C48.0672 11.899 46.796 11.4988 45.5177 11.3773C43.5261 11.1844 41.4002 11.6417 40.0796 12.5279C39.3309 13.0282 38.8507 13.6499 38.1021 14.1573C37.3605 14.6647 36.1387 15.0149 35.0511 14.8291L55.617 2.73713L71.5853 12.0562ZM73.6687 28.772L86.2329 21.3825L55.6241 3.50181L43.0599 10.8914C43.9145 10.777 44.8044 10.7556 45.666 10.8342C47.1138 10.97 48.5757 11.4202 49.6775 12.0634C49.8752 12.1777 50.0518 12.2921 50.2213 12.4136C51.4572 11.4488 53.576 10.8699 55.6453 11.0128C57.8699 11.1701 59.6356 12.0419 61.1893 12.8138C61.3306 12.8852 61.4718 12.9496 61.606 13.021C63.1315 13.7714 64.9254 14.5075 66.6274 14.3288L67.9552 14.1859L67.715 14.9649C67.4043 15.9654 68.6755 17.0088 69.9538 17.9021C70.0739 17.9807 70.1869 18.0665 70.307 18.1451C71.6277 19.0527 73.1178 20.0818 73.4003 21.3896C73.6617 22.6046 72.6729 23.8409 71.0344 24.5699C71.2392 24.6699 71.444 24.77 71.6347 24.8843C72.7365 25.5275 73.5063 26.3851 73.7464 27.2355C73.8947 27.7501 73.8594 28.2718 73.6687 28.772Z" fill="white"/>
<path d="M45.5883 32.5454C45.6589 32.5883 45.7225 32.6383 45.7649 32.6955C45.8849 32.8456 45.8355 33.0028 45.6448 33.11C45.4541 33.2172 44.9597 33.2887 44.8044 33.21C44.7973 33.21 44.7973 33.2029 44.7973 33.2029C44.7196 33.16 44.6984 33.0671 44.6914 32.9957C44.6772 32.8527 44.6137 32.7527 44.5007 32.6884C44.3877 32.624 44.2182 32.5883 43.9851 32.5954C43.7521 32.5954 43.6249 32.6741 43.6108 32.7956C43.5896 33.0171 43.6532 33.2243 43.9216 33.3887C43.9498 33.403 43.9781 33.4244 44.0134 33.4387C44.2464 33.5745 44.5007 33.7032 44.7408 33.8318C44.8397 33.8818 44.9456 33.9319 45.0374 33.9819C45.0798 34.0033 45.1151 34.0319 45.1504 34.0605C45.2211 34.1248 45.2422 34.2392 45.1928 34.3106C45.1575 34.3678 44.9668 34.425 44.8609 34.4107C44.6207 34.3821 44.3453 34.3535 44.1617 34.2677C43.3001 33.8675 42.4031 33.5245 41.3155 33.3744C41.1954 33.3601 41.0824 33.3172 40.9836 33.2672C40.9765 33.2672 40.9694 33.2601 40.9694 33.2601C40.92 33.2315 40.8776 33.1815 40.8917 33.1529C40.9059 33.1171 41.0118 33.0814 41.0754 33.0814C41.3084 33.0743 41.5486 33.0743 41.7816 33.0814C42.0147 33.0886 42.2477 33.11 42.5161 33.1243C42.2407 32.5097 42.7562 32.4025 43.4272 32.3239C43.9851 32.2596 44.5501 32.2739 45.101 32.3668C45.2917 32.4168 45.4612 32.4668 45.5883 32.5454Z" fill="white"/>
<path d="M54.141 33.3101C54.1904 33.3387 54.2257 33.3887 54.2257 33.4602C54.2469 33.7175 54.2751 33.9747 54.3034 34.2249C54.3175 34.3678 54.2186 34.4535 53.9715 34.4607C53.5195 34.475 53.0604 34.4893 52.6084 34.5036C52.5095 34.5107 52.4389 34.4964 52.3895 34.4678C52.3471 34.4393 52.3188 34.4035 52.3047 34.3463C52.2482 34.0962 52.1776 33.8532 52.0999 33.6031C52.0717 33.5173 52.0434 33.4673 51.9869 33.4316C51.9163 33.3887 51.8033 33.3816 51.6126 33.3887C51.3513 33.3959 51.0829 33.4101 50.8216 33.403C50.6733 33.403 50.5673 33.3816 50.4967 33.3387C50.4332 33.3029 50.3978 33.2386 50.3837 33.1529C50.3484 32.9313 50.3272 32.7026 50.3131 32.4811C50.299 32.3239 50.4332 32.2453 50.7086 32.2453C51.1182 32.2453 51.5278 32.2381 51.9375 32.2453C52.0363 32.2453 52.1423 32.2738 52.2412 32.2881C52.2694 32.3525 52.3047 32.3953 52.3118 32.4382C52.333 32.6598 52.3542 32.8742 52.3542 33.0957C52.3542 33.1815 52.3683 33.2315 52.4177 33.2529C52.4672 33.2815 52.5448 33.2887 52.6861 33.2815C53.0675 33.2744 53.4488 33.2672 53.8302 33.2458C53.9785 33.2601 54.0774 33.2744 54.141 33.3101Z" fill="white"/>
<path d="M68.9086 29.7011C68.7391 29.894 68.5979 30.037 68.4778 30.1871C67.9128 30.9089 67.3549 31.6307 66.7828 32.3525C66.7334 32.4168 66.5851 32.4597 66.4862 32.5097C66.4367 32.4382 66.352 32.3668 66.3379 32.2953C66.3167 32.1595 66.352 32.0166 66.3449 31.8808C66.3449 31.8451 66.3167 31.7807 66.2814 31.7664C66.1896 31.7521 66.0836 31.7664 66.0271 31.795C65.8788 31.8665 65.7517 31.9523 65.6175 32.0309C63.4776 33.3601 61.3376 34.6822 59.1977 36.0115C58.3078 36.5618 57.4391 37.1192 56.521 37.6552C55.158 38.4556 53.6183 39.1131 51.8315 39.5562C51.6055 39.6134 51.3725 39.6634 51.1323 39.692C51.0264 39.7063 50.8993 39.6634 50.7863 39.6419C50.8357 39.5776 50.8569 39.4919 50.9417 39.4561C51.2524 39.3204 51.6126 39.2132 51.9022 39.0631C52.9545 38.5128 54.028 37.9768 55.0308 37.3908C58.1948 35.5541 61.3235 33.696 64.4663 31.8451C65.0666 31.4949 65.6669 31.1447 66.2531 30.7874C66.4226 30.6873 66.5639 30.5658 66.6698 30.4372C66.811 30.2728 67.0017 30.1513 67.2913 30.0727C67.6797 29.9727 68.0611 29.8512 68.4495 29.7511C68.5908 29.7154 68.7462 29.7154 68.9086 29.7011Z" fill="white"/>
<path d="M48.039 42.8222C48.1661 42.8365 48.2862 42.8436 48.4133 42.8508L38.2221 48.8467L8.9411 31.7307L19.1323 25.7348C19.1464 25.8062 19.1676 25.8848 19.1817 25.9563C19.443 26.8853 20.2623 27.8144 21.4276 28.5291C20.008 29.4009 19.2735 30.6158 19.5207 31.7807C19.8314 33.2458 21.4911 34.3892 22.8259 35.3111C22.946 35.3897 23.059 35.4755 23.1791 35.5541C23.7017 35.9186 24.3514 36.3974 24.7822 36.8834C25.1777 37.3336 25.319 37.7124 25.2201 38.0483L24.7399 39.6062L27.3954 39.3204C27.9604 39.256 28.6101 39.3418 29.3799 39.5705C30.2133 39.8206 31.0325 40.1994 31.647 40.5067C31.7882 40.571 31.9224 40.6425 32.0637 40.7139C33.6386 41.4929 35.5949 42.4648 38.095 42.6435C40.0866 42.7864 42.163 42.3505 43.6391 41.5143C44.8679 42.1933 46.457 42.6721 48.039 42.8222ZM38.2221 48.0749L46.5629 43.1652C45.5247 42.9579 44.5219 42.6435 43.6461 42.229C42.0217 42.9651 39.9666 43.3153 37.9891 43.1795C35.2065 42.9794 33.1301 41.9503 31.4633 41.1284C31.3221 41.057 31.1879 40.9926 31.0537 40.9283C30.4746 40.6425 29.7048 40.2851 28.9562 40.0636C28.3841 39.8921 27.918 39.8278 27.5649 39.8635L24.6904 40.1779L38.2221 48.0749ZM10.2547 31.7307L23.7794 39.6348L24.302 37.9482C24.3656 37.741 24.2526 37.4694 23.9559 37.1335C23.5675 36.6976 22.9601 36.2473 22.4657 35.9043C22.3527 35.8257 22.2327 35.7471 22.1197 35.6613C20.7072 34.6894 18.9416 33.4745 18.5955 31.8451C18.3483 30.6873 18.9416 29.4795 20.1916 28.5291C19.4924 28.0145 18.9416 27.4285 18.5884 26.821L10.2547 31.7307Z" fill="white"/>
<path d="M33.9988 21.0538C34.0058 21.068 34.0129 21.0823 34.02 21.0966C33.7516 21.1538 33.4832 21.1967 33.229 21.2681C32.7699 21.3896 32.3179 21.5254 31.873 21.6612C31.7529 21.6969 31.654 21.7684 31.5622 21.8399C31.421 21.9399 31.3009 22.0686 31.4492 22.1758L31.4563 22.1829C31.5481 22.2329 31.7741 22.2329 31.9365 22.2329C32.0778 22.2329 32.219 22.2043 32.3532 22.1901C32.0213 22.4616 31.5763 22.5974 31.0255 22.5974C30.856 22.5974 30.7218 22.5617 30.6229 22.5116C30.5099 22.4473 30.4605 22.3473 30.4746 22.2258C30.5099 22.0114 30.7147 21.847 30.9902 21.7184C31.8235 21.3325 32.784 21.1252 33.8363 21.0466C33.8928 21.0395 33.9423 21.0466 33.9988 21.0538Z" fill="white"/>
</g>
<path d="M30.9407 66.7774C32.5792 66.4773 33.9705 65.1123 34.3166 63.4614C34.5214 62.4895 34.3943 61.4675 34.5991 60.5027C34.8039 59.538 35.6373 58.2802 36.619 58.323L33.1654 56.4006C32.1837 56.3577 31.3927 57.6012 31.1879 58.5732C30.9831 59.5451 31.1102 60.5671 30.9054 61.5319C30.5593 63.1756 29.161 64.5405 27.5295 64.8478C28.6807 65.2552 31.082 64.5977 31.082 64.5977C31.2868 65.5839 30.9407 66.7774 30.9407 66.7774Z" fill="#FF855A"/>
</g>
</svg>
