<?xml version="1.0" standalone="no"?>
<!DOCTYPE svg PUBLIC "-//W3C//DTD SVG 20010904//EN"
 "http://www.w3.org/TR/2001/REC-SVG-20010904/DTD/svg10.dtd">
<svg version="1.0" xmlns="http://www.w3.org/2000/svg"
 width="16.000000pt" height="17.000000pt" viewBox="0 0 16.000000 17.000000"
 preserveAspectRatio="xMidYMid meet">

<g transform="translate(0.000000,17.000000) scale(0.100000,-0.100000)"
fill="#000000" stroke="none">
<path d="M32 144 c-33 -23 -13 -42 20 -20 14 9 34 15 44 14 10 -2 21 2 24 7 9
17 -63 17 -88 -1z"/>
<path d="M90 85 c0 -8 9 -15 20 -15 13 0 20 -6 18 -14 -6 -27 15 -21 23 6 8
33 4 38 -33 38 -18 0 -28 -5 -28 -15z"/>
</g>
</svg>
